<?xml version="1.0" encoding="UTF-8" standalone="no"?>
<svg
   xmlns:dc="http://purl.org/dc/elements/1.1/"
   xmlns:cc="http://creativecommons.org/ns#"
   xmlns:rdf="http://www.w3.org/1999/02/22-rdf-syntax-ns#"
   xmlns:svg="http://www.w3.org/2000/svg"
   xmlns="http://www.w3.org/2000/svg"
   viewBox="0 0 724.32001 431.76001"
   height="431.76001"
   width="724.32001"
   xml:space="preserve"
   id="svg2"
   version="1.1"><metadata
     id="metadata8"><rdf:RDF><cc:Work
         rdf:about=""><dc:format>image/svg+xml</dc:format><dc:type
           rdf:resource="http://purl.org/dc/dcmitype/StillImage" /></cc:Work></rdf:RDF></metadata><defs
     id="defs6" /><g
     transform="matrix(1.3333333,0,0,-1.3333333,0,431.76)"
     id="g10"><g
       transform="scale(0.1)"
       id="g12"><path
         id="path14"
         style="fill:#fef9d8;fill-opacity:1;fill-rule:nonzero;stroke:none"
         d="m 663.109,1964.76 c -6.41,0.65 -25.711,3.32 -25.711,3.32 0,0 -10.761,19.43 -11.996,21.87 -0.703,1.39 -1.398,3.16 -2.586,3.12 -1.238,-0.03 -1.64,-1.45 -2.55,-3.07 -2.094,-3.74 -8.336,-15.7 -11.524,-21.92 0,0 -19.297,-2.67 -25.711,-3.32 -6.097,-0.61 -2.797,-4.02 -0.695,-5.95 2.098,-1.92 17.488,-16.79 17.488,-16.79 0,0 -3.324,-21.34 -4.199,-25.18 -0.875,-3.85 1.227,-4.55 3.848,-3.33 2.625,1.23 22.211,12.6 22.211,12.6 l 1.359,0.67 1.414,-0.67 c 0,0 19.59,-11.37 22.215,-12.6 2.621,-1.22 4.723,-0.52 3.848,3.33 -0.875,3.84 -4.2,25.18 -4.2,25.18 0,0 15.391,14.87 17.489,16.79 2.101,1.93 5.402,5.34 -0.7,5.95" /><path
         id="path16"
         style="fill:#fef9d8;fill-opacity:1;fill-rule:nonzero;stroke:none"
         d="m 2672.71,3209.85 c -6.41,0.64 -25.71,3.32 -25.71,3.32 0,0 -10.76,19.43 -11.99,21.87 -0.71,1.39 -1.4,3.16 -2.59,3.12 -1.24,-0.04 -1.64,-1.45 -2.55,-3.08 -2.09,-3.73 -8.34,-15.69 -11.52,-21.91 0,0 -19.3,-2.68 -25.71,-3.32 -6.11,-0.62 -2.8,-4.02 -0.7,-5.95 2.1,-1.92 17.49,-16.79 17.49,-16.79 0,0 -3.33,-21.34 -4.2,-25.19 -0.88,-3.85 1.22,-4.54 3.85,-3.32 2.62,1.22 22.21,12.59 22.21,12.59 l 1.36,0.68 1.41,-0.68 c 0,0 19.59,-11.37 22.21,-12.59 2.63,-1.22 4.73,-0.53 3.85,3.32 -0.87,3.85 -4.2,25.19 -4.2,25.19 0,0 15.39,14.87 17.49,16.79 2.1,1.93 5.4,5.33 -0.7,5.95" /><path
         id="path18"
         style="fill:#fef9d8;fill-opacity:1;fill-rule:nonzero;stroke:none"
         d="m 4204.16,2029.03 c -6.41,0.65 -25.71,3.33 -25.71,3.33 0,0 -10.76,19.42 -12,21.86 -0.7,1.39 -1.4,3.16 -2.58,3.12 -1.24,-0.03 -1.64,-1.45 -2.55,-3.07 -2.1,-3.74 -8.34,-15.7 -11.53,-21.91 0,0 -19.29,-2.68 -25.71,-3.33 -6.1,-0.61 -2.79,-4.02 -0.7,-5.94 2.1,-1.93 17.49,-16.8 17.49,-16.8 0,0 -3.32,-21.34 -4.19,-25.18 -0.88,-3.85 1.22,-4.55 3.84,-3.33 2.63,1.23 22.22,12.6 22.22,12.6 l 1.35,0.67 1.42,-0.67 c 0,0 19.59,-11.37 22.21,-12.6 2.62,-1.22 4.72,-0.52 3.85,3.33 -0.88,3.84 -4.2,25.18 -4.2,25.18 0,0 15.39,14.87 17.49,16.8 2.1,1.92 5.4,5.33 -0.7,5.94" /><path
         id="path20"
         style="fill:#fef9d8;fill-opacity:1;fill-rule:nonzero;stroke:none"
         d="m 4318.75,2422.32 c -6.41,0.65 -25.71,3.33 -25.71,3.33 0,0 -10.76,19.43 -12,21.86 -0.7,1.39 -1.4,3.16 -2.58,3.13 -1.24,-0.04 -1.64,-1.46 -2.55,-3.08 -2.1,-3.74 -8.34,-15.69 -11.53,-21.91 0,0 -19.29,-2.68 -25.7,-3.33 -6.11,-0.61 -2.8,-4.02 -0.7,-5.94 2.1,-1.93 17.49,-16.79 17.49,-16.79 0,0 -3.33,-21.34 -4.2,-25.19 -0.88,-3.85 1.22,-4.55 3.85,-3.33 2.62,1.23 22.21,12.6 22.21,12.6 l 1.36,0.67 1.41,-0.67 c 0,0 19.59,-11.37 22.21,-12.6 2.63,-1.22 4.73,-0.52 3.85,3.33 -0.87,3.85 -4.2,25.19 -4.2,25.19 0,0 15.39,14.86 17.49,16.79 2.1,1.92 5.4,5.33 -0.7,5.94" /><path
         id="path22"
         style="fill:#fef9d8;fill-opacity:1;fill-rule:nonzero;stroke:none"
         d="m 1340.53,2699.5 c -6.41,0.65 -25.71,3.33 -25.71,3.33 0,0 -10.76,19.42 -12,21.86 -0.7,1.39 -1.4,3.16 -2.58,3.12 -1.24,-0.03 -1.64,-1.44 -2.55,-3.07 -2.1,-3.74 -8.34,-15.69 -11.53,-21.91 0,0 -19.29,-2.68 -25.71,-3.33 -6.1,-0.61 -2.79,-4.02 -0.69,-5.94 2.09,-1.93 17.48,-16.79 17.48,-16.79 0,0 -3.32,-21.34 -4.19,-25.19 -0.88,-3.85 1.22,-4.55 3.84,-3.33 2.63,1.23 22.22,12.6 22.22,12.6 l 1.36,0.67 1.41,-0.67 c 0,0 19.59,-11.37 22.21,-12.6 2.62,-1.22 4.72,-0.52 3.85,3.33 -0.88,3.85 -4.2,25.19 -4.2,25.19 0,0 15.39,14.86 17.49,16.79 2.1,1.92 5.4,5.33 -0.7,5.94" /><path
         id="path24"
         style="fill:#fef9d8;fill-opacity:1;fill-rule:nonzero;stroke:none"
         d="m 2048.28,3083.18 c -5.05,0.5 -20.26,2.62 -20.26,2.62 0,0 -8.48,15.31 -9.46,17.23 -0.55,1.09 -1.1,2.49 -2.04,2.46 -0.97,-0.03 -1.29,-1.14 -2.01,-2.43 -1.65,-2.94 -6.57,-12.36 -9.08,-17.26 0,0 -15.21,-2.12 -20.26,-2.62 -4.81,-0.49 -2.21,-3.17 -0.55,-4.69 1.65,-1.52 13.78,-13.23 13.78,-13.23 0,0 -2.62,-16.82 -3.31,-19.85 -0.69,-3.04 0.97,-3.59 3.04,-2.62 2.06,0.96 17.5,9.92 17.5,9.92 l 1.07,0.53 1.12,-0.53 c 0,0 15.44,-8.96 17.5,-9.92 2.07,-0.97 3.73,-0.42 3.04,2.62 -0.69,3.03 -3.31,19.85 -3.31,19.85 0,0 12.13,11.71 13.78,13.23 1.66,1.52 4.26,4.2 -0.55,4.69" /><path
         id="path26"
         style="fill:#fef9d8;fill-opacity:1;fill-rule:nonzero;stroke:none"
         d="m 2971.3,2595.57 c -5.05,0.5 -20.26,2.61 -20.26,2.61 0,0 -8.48,15.32 -9.46,17.23 -0.55,1.1 -1.1,2.49 -2.04,2.47 -0.97,-0.03 -1.29,-1.15 -2.01,-2.43 -1.65,-2.94 -6.56,-12.36 -9.08,-17.27 0,0 -15.21,-2.11 -20.26,-2.61 -4.81,-0.49 -2.2,-3.18 -0.55,-4.69 1.65,-1.52 13.78,-13.24 13.78,-13.24 0,0 -2.62,-16.82 -3.3,-19.85 -0.69,-3.03 0.96,-3.58 3.03,-2.62 2.07,0.97 17.5,9.93 17.5,9.93 l 1.07,0.53 1.12,-0.53 c 0,0 15.44,-8.96 17.5,-9.93 2.07,-0.96 3.73,-0.41 3.04,2.62 -0.69,3.03 -3.31,19.85 -3.31,19.85 0,0 12.13,11.72 13.78,13.24 1.66,1.51 4.26,4.2 -0.55,4.69" /><path
         id="path28"
         style="fill:#fef9d8;fill-opacity:1;fill-rule:nonzero;stroke:none"
         d="m 4824.75,1850 c -5.05,0.51 -20.26,2.62 -20.26,2.62 0,0 -8.48,15.31 -9.46,17.23 -0.55,1.1 -1.1,2.49 -2.04,2.47 -0.97,-0.03 -1.29,-1.15 -2.01,-2.43 -1.65,-2.94 -6.57,-12.37 -9.08,-17.27 0,0 -15.21,-2.11 -20.26,-2.62 -4.81,-0.48 -2.21,-3.17 -0.55,-4.68 1.65,-1.52 13.78,-13.24 13.78,-13.24 0,0 -2.62,-16.81 -3.3,-19.85 -0.7,-3.03 0.96,-3.58 3.03,-2.62 2.06,0.97 17.5,9.93 17.5,9.93 l 1.07,0.53 1.12,-0.53 c 0,0 15.44,-8.96 17.5,-9.93 2.07,-0.96 3.73,-0.41 3.04,2.62 -0.69,3.04 -3.31,19.85 -3.31,19.85 0,0 12.13,11.72 13.78,13.24 1.66,1.51 4.26,4.2 -0.55,4.68" /><path
         id="path30"
         style="fill:#fef9d8;fill-opacity:1;fill-rule:nonzero;stroke:none"
         d="m 1515.22,2388.27 c -5.05,0.5 -20.26,2.62 -20.26,2.62 0,0 -8.48,15.31 -9.45,17.23 -0.56,1.09 -1.11,2.49 -2.04,2.46 -0.98,-0.03 -1.3,-1.14 -2.01,-2.42 -1.65,-2.95 -6.57,-12.37 -9.08,-17.27 0,0 -15.21,-2.12 -20.27,-2.62 -4.81,-0.48 -2.2,-3.17 -0.55,-4.69 1.66,-1.51 13.79,-13.23 13.79,-13.23 0,0 -2.62,-16.82 -3.31,-19.85 -0.69,-3.04 0.96,-3.59 3.03,-2.62 2.07,0.96 17.51,9.92 17.51,9.92 l 1.07,0.53 1.11,-0.53 c 0,0 15.44,-8.96 17.51,-9.92 2.06,-0.97 3.72,-0.42 3.03,2.62 -0.69,3.03 -3.31,19.85 -3.31,19.85 0,0 12.13,11.72 13.78,13.23 1.66,1.52 4.26,4.21 -0.55,4.69" /><path
         id="path32"
         style="fill:#fef9d8;fill-opacity:1;fill-rule:nonzero;stroke:none"
         d="m 3499.19,3051.61 c -5.05,0.51 -20.26,2.62 -20.26,2.62 0,0 -8.48,15.31 -9.46,17.23 -0.55,1.09 -1.1,2.49 -2.04,2.46 -0.97,-0.03 -1.28,-1.14 -2,-2.42 -1.65,-2.95 -6.57,-12.37 -9.09,-17.27 0,0 -15.2,-2.11 -20.26,-2.62 -4.8,-0.49 -2.2,-3.17 -0.55,-4.69 1.66,-1.51 13.78,-13.23 13.78,-13.23 0,0 -2.61,-16.82 -3.3,-19.85 -0.69,-3.04 0.96,-3.59 3.03,-2.62 2.07,0.96 17.51,9.92 17.51,9.92 l 1.07,0.54 1.11,-0.54 c 0,0 15.44,-8.96 17.51,-9.92 2.06,-0.97 3.72,-0.42 3.03,2.62 -0.69,3.03 -3.31,19.85 -3.31,19.85 0,0 12.13,11.72 13.78,13.23 1.66,1.52 4.26,4.2 -0.55,4.69" /><path
         id="path34"
         style="fill:#acd3f1;fill-opacity:1;fill-rule:nonzero;stroke:none"
         d="m 2939.75,2779.39 c -44.07,0 -87.14,0 -108.21,0 -44.85,0 -93.06,32.53 -93.06,74.02 0,41.5 21.37,56 44.85,65.05 0,0 7.85,100.93 116.61,100.93 56.47,0 77.85,-28.62 81.33,-33.92 -2.5,3.8 -14.25,19.6 -41.52,28.23 v -234.31 m 107.95,195.3 c -0.25,0.15 -0.49,0.29 -0.73,0.44 0.24,-0.15 0.48,-0.29 0.73,-0.44 m -0.91,0.54 c -0.1,0.06 -0.2,0.12 -0.3,0.18 0.1,-0.06 0.2,-0.12 0.3,-0.18 m -0.33,0.19 c -0.06,0.04 -0.13,0.08 -0.19,0.12 0.06,-0.04 0.13,-0.08 0.19,-0.12" /><path
         id="path36"
         style="fill:#b6e7fa;fill-opacity:1;fill-rule:nonzero;stroke:none"
         d="m 3062.52,2779.39 c -21.99,0 -73.01,0 -122.77,0 v 234.31 c 27.27,-8.63 39.02,-24.43 41.52,-28.23 0.36,-0.54 0.53,-0.84 0.53,-0.84 0,0 8.05,1.71 19.61,1.71 12.73,0 29.72,-2.08 44.86,-10.8 0.06,-0.04 0.13,-0.08 0.19,-0.12 0.01,0 0.02,-0.01 0.03,-0.01 0.1,-0.06 0.2,-0.12 0.3,-0.18 0.06,-0.03 0.12,-0.07 0.18,-0.1 0.24,-0.15 0.48,-0.29 0.73,-0.44 0.08,-0.05 0.17,-0.1 0.25,-0.15 29.15,-17.95 35.88,-53.84 35.88,-53.84 0,0 57.19,-14.58 57.19,-65.05 0,-50.46 -37.01,-76.26 -78.5,-76.26" /><path
         id="path38"
         style="fill:#acd3f1;fill-opacity:1;fill-rule:nonzero;stroke:none"
         d="m 801.777,2248.86 c -71.48,0.94 -179.121,2.35 -179.121,2.35 0,0 -43.379,5.14 -42.726,54.67 0.648,49.54 47.246,57.31 47.246,57.31 0,0 -6.27,24.32 25.797,49.2 11.16,8.66 23.273,11.02 33.14,11.02 11.746,0 20.313,-3.34 20.313,-3.34 0,0 17.015,41.72 72.984,41.72 0.492,0 0.992,0 1.492,-0.01 1.114,-0.02 2.211,-0.05 3.297,-0.12 -1.086,0.07 -2.183,0.1 -3.297,0.12 -0.468,0.01 -0.933,0.01 -1.394,0.01 -8.598,0 -16.188,-1.06 -23.035,-2.72 v -209.62 c 15.769,-0.2 31.238,-0.41 45.304,-0.59 m 91.688,4.69 c 0.015,0.01 0.039,0.02 0.055,0.02 -0.02,0 -0.036,-0.01 -0.055,-0.02 m 0.18,0.07 c 0.039,0.02 0.078,0.04 0.117,0.05 -0.039,-0.01 -0.078,-0.03 -0.117,-0.05 m 0.175,0.08 c 17.68,7.19 35.594,23.19 38.727,58.03 -3.133,-34.84 -21.047,-50.84 -38.727,-58.03 m 38.735,58.13 c 0.015,0.2 0.035,0.41 0.05,0.61 -0.015,-0.2 -0.035,-0.41 -0.05,-0.61 m 0.058,0.67 c 0,0.04 0.004,0.07 0.008,0.11 -0.004,-0.04 -0.008,-0.07 -0.008,-0.11 m 0.043,0.54 c 0.012,0.14 0.02,0.26 0.032,0.4 -0.012,-0.14 -0.02,-0.26 -0.032,-0.4 m 0.039,0.54 c 0,0 0,0.01 0,0.01 0,0 0,-0.01 0,-0.01 m 0.051,0.72 c 0.016,0.2 0.027,0.41 0.039,0.61 -0.012,-0.2 -0.023,-0.41 -0.039,-0.61 m 0.109,1.82 c 0,0.03 0.004,0.07 0.004,0.1 0,-0.03 -0.004,-0.07 -0.004,-0.1 m 0.047,0.99 c 0.004,0.07 0.008,0.14 0.012,0.23 -0.004,-0.09 -0.008,-0.16 -0.012,-0.23 m 0.051,1.27 c 0.02,0.61 0.035,1.22 0.047,1.83 -0.012,-0.61 -0.027,-1.22 -0.047,-1.83 m 0.07,4.19 c -0.003,72.47 -69.871,76.39 -69.871,76.39 0,0 -21.554,53.31 -70.207,61.72 48.653,-8.41 70.211,-61.72 70.211,-61.72 0,0 69.864,-3.92 69.867,-76.39 m -140.082,138.11 c -0.101,0.01 -0.203,0.03 -0.3,0.05 0.097,-0.02 0.199,-0.04 0.3,-0.05 m -1.539,0.25 v 0 m -3.894,0.48 c -0.02,0 -0.039,0 -0.055,0.01 0.016,-0.01 0.035,-0.01 0.055,-0.01 m -0.336,0.03 c -0.012,0.01 -0.027,0.01 -0.039,0.01 0.012,0 0.027,0 0.039,-0.01 m -0.336,0.03 c -0.008,0.01 -0.02,0.01 -0.024,0.01 0.004,0 0.016,0 0.024,-0.01 m -0.336,0.03 c -0.004,0 -0.008,0 -0.012,0 0.004,0 0.008,0 0.012,0 m -1.246,0.1 c -0.078,0.01 -0.149,0.01 -0.223,0.02 0.074,-0.01 0.145,-0.01 0.223,-0.02 m -0.875,0.06 v 0 m -0.09,0 c -0.023,0 -0.051,0 -0.074,0 0.023,0 0.051,0 0.074,0" /><path
         id="path40"
         style="fill:#b6e7fa;fill-opacity:1;fill-rule:nonzero;stroke:none"
         d="m 863.734,2248.05 c -0.355,0 -0.703,0 -1.035,0.01 -5.547,0.07 -29.808,0.39 -60.922,0.8 -14.066,0.18 -29.535,0.39 -45.304,0.59 v 209.62 c 6.847,1.66 14.437,2.72 23.035,2.72 0.461,0 0.926,0 1.394,-0.01 1.114,-0.02 2.211,-0.05 3.297,-0.12 0.004,0 0.012,0 0.016,0 0.023,0 0.051,0 0.074,0 0.031,0 0.059,0 0.09,0 v 0 c 0.219,-0.02 0.433,-0.03 0.652,-0.04 0.074,-0.01 0.145,-0.01 0.223,-0.02 0.41,-0.03 0.824,-0.06 1.234,-0.1 0.004,0 0.008,0 0.012,0 0.105,0 0.207,-0.01 0.312,-0.02 0.004,0 0.016,0 0.024,-0.01 0.102,-0.01 0.195,-0.01 0.297,-0.02 0.012,0 0.027,0 0.039,-0.01 0.094,-0.01 0.187,-0.01 0.281,-0.02 0.016,-0.01 0.035,-0.01 0.055,-0.01 1.316,-0.13 2.613,-0.29 3.894,-0.48 v 0 c 0.414,-0.07 0.825,-0.13 1.239,-0.2 0.097,-0.02 0.199,-0.04 0.3,-0.05 0,0 0,0 0.004,0 48.653,-8.41 70.207,-61.72 70.207,-61.72 0,0 69.868,-3.92 69.871,-76.39 0,-0.5 0,-1 -0.007,-1.5 -0.004,-0.29 -0.008,-0.57 -0.016,-0.86 -0.012,-0.61 -0.027,-1.22 -0.047,-1.83 -0.012,-0.34 -0.027,-0.7 -0.039,-1.04 -0.004,-0.09 -0.008,-0.16 -0.012,-0.23 -0.011,-0.3 -0.027,-0.6 -0.043,-0.89 0,-0.03 -0.004,-0.07 -0.004,-0.1 -0.019,-0.41 -0.043,-0.81 -0.07,-1.21 -0.012,-0.2 -0.023,-0.41 -0.039,-0.61 -0.016,-0.24 -0.031,-0.47 -0.051,-0.71 0,0 0,-0.01 0,-0.01 -0.004,-0.05 -0.007,-0.1 -0.007,-0.14 -0.012,-0.14 -0.02,-0.26 -0.032,-0.4 -0.011,-0.15 -0.023,-0.29 -0.035,-0.43 -0.004,-0.04 -0.008,-0.07 -0.008,-0.11 -0.004,-0.02 -0.004,-0.04 -0.008,-0.06 -0.015,-0.2 -0.035,-0.41 -0.05,-0.61 -0.004,-0.03 -0.004,-0.06 -0.008,-0.1 -3.133,-34.84 -21.047,-50.84 -38.727,-58.03 -0.015,-0.01 -0.039,-0.02 -0.058,-0.03 -0.039,-0.01 -0.078,-0.03 -0.117,-0.05 -0.043,-0.01 -0.083,-0.03 -0.125,-0.05 -0.016,0 -0.04,-0.01 -0.055,-0.02 -11.391,-4.56 -22.641,-5.5 -29.731,-5.5" /><path
         id="path42"
         style="fill:#b6e7fa;fill-opacity:1;fill-rule:nonzero;stroke:none"
         d="m 4623.25,2143.83 c -72.26,0.95 -150.2,1.97 -150.2,1.97 0,0 -48.69,5.77 -47.96,61.37 0.73,55.6 53.03,64.32 53.03,64.32 0,0 -7.03,27.3 28.96,55.22 12.53,9.73 26.12,12.37 37.2,12.37 13.18,0 22.79,-3.74 22.79,-3.74 0,0 19.1,46.82 81.92,46.82 0.56,0 1.12,0 1.68,-0.02 64.15,-0.84 92.32,-70.5 92.32,-70.5 0,0 78.42,-4.41 78.42,-85.74 0,81.33 -78.42,85.74 -78.42,85.74 0,0 -28.17,69.66 -92.32,70.5 -0.52,0.01 -1.04,0.02 -1.56,0.02 -9.65,0 -18.17,-1.19 -25.86,-3.05 v -235.28 m 167.92,12.2 c 0.06,0.04 0.11,0.08 0.17,0.12 -0.06,-0.04 -0.11,-0.08 -0.17,-0.12 m 0.19,0.14 c 0.02,0.01 0.04,0.03 0.06,0.04 -0.02,-0.01 -0.04,-0.03 -0.06,-0.04 m 0.1,0.06 c 14.69,10.4 27.13,28.31 29.54,58.95 -2.41,-30.64 -14.85,-48.55 -29.54,-58.95 m 29.54,58.97 c 0.12,1.53 0.21,3.11 0.28,4.71 -0.07,-1.6 -0.16,-3.18 -0.28,-4.71 m 0.28,4.76 c 0.01,0.24 0.02,0.47 0.03,0.71 -0.01,-0.24 -0.02,-0.47 -0.03,-0.71" /><path
         id="path44"
         style="fill:#acd3f1;fill-opacity:1;fill-rule:nonzero;stroke:none"
         d="m 4743.64,2142.26 c -0.4,0 -0.79,0 -1.16,0 -9.04,0.12 -62.38,0.82 -119.23,1.57 v 235.28 c 7.69,1.86 16.21,3.05 25.86,3.05 0.52,0 1.04,-0.01 1.56,-0.02 64.15,-0.84 92.32,-70.5 92.32,-70.5 0,0 78.42,-4.41 78.42,-85.74 0,-0.56 0,-1.12 -0.01,-1.69 -0.02,-1.2 -0.05,-2.38 -0.09,-3.54 -0.01,-0.24 -0.02,-0.47 -0.03,-0.71 0,-0.01 0,-0.03 0,-0.05 -0.07,-1.6 -0.16,-3.18 -0.28,-4.71 0,-0.01 0,-0.01 0,-0.02 -2.41,-30.64 -14.85,-48.55 -29.54,-58.95 -0.02,0 -0.03,-0.01 -0.04,-0.02 -0.02,-0.01 -0.04,-0.03 -0.06,-0.04 -0.01,-0.01 -0.01,-0.01 -0.02,-0.02 -0.06,-0.04 -0.11,-0.08 -0.17,-0.12 -16.86,-11.79 -36.6,-13.77 -47.53,-13.77" /><path
         id="path46"
         style="fill:#beb6b2;fill-opacity:1;fill-rule:nonzero;stroke:none"
         d="m 1170.08,2026.53 h 24.1875 v 196.32 H 1170.08 Z" /><path
         id="path48"
         style="fill:#f9b1ac;fill-opacity:1;fill-rule:nonzero;stroke:none"
         d="m 1194.27,2133.43 h 132.742 v 89.9102 H 1194.27 Z" /><path
         id="path50"
         style="fill:#fbf1dd;fill-opacity:1;fill-rule:nonzero;stroke:none"
         d="m 1085.61,781.082 h -90.965 90.965 v 0 m -90.965,269.188 v 9.95 H 831.398 v 619.47 h 699.622 l -124.57,-70.45 h -54.98 v -31.09 l -48.37,-27.36 v 58.45 h -96.74 v -113.16 l -82.17,-46.47 h 269.79 -269.79 v -50.24 h -62.94 v -128.09 h 96.74 v 127.46 h 24.18 V 1237.8 l -48.3,-48.3 h -72.62 v -72.63 l -48.37,-48.37 v 121 h -96.743 v -128.1 h 89.643 l -11.135,-11.13 m -78.508,349.1 v -128.09 h 96.743 v 128.09 h -96.743 m 145.113,209.87 v -128.09 h 96.74 v 128.09 h -96.74 m -145.113,0 v -128.09 h 96.743 v 128.09 h -96.743" /><path
         id="path52"
         style="fill:#eee2cc;fill-opacity:1;fill-rule:nonzero;stroke:none"
         d="m 1085.61,781.082 h -90.965 v 70.449 h 18.235 v 128.09 h -18.235 v 70.649 l 11.135,11.13 h 7.1 v 7.1 l 48.37,48.37 v -55.47 h 96.74 v 2.45 h 48.37 -24.19 v -84.229 h -96.56 V 781.082 m 96.56,333.638 h -24.18 v 74.78 h -24.12 l 48.3,48.3 v -123.08" /><path
         id="path54"
         style="fill:#fbf1dd;fill-opacity:1;fill-rule:nonzero;stroke:none"
         d="m 732.492,1189.5 h -36.543 c -1.16,23.96 -3.969,51.7 -8.261,81.78 h 95.699 v 128.09 h -96.739 v -120.93 c -9.269,62.36 -24.707,134.06 -44.867,202.71 H 831.398 V 1288.4 l -98.906,-98.9" /><path
         id="path56"
         style="fill:#eee2cc;fill-opacity:1;fill-rule:nonzero;stroke:none"
         d="M 831.398,1060.22 H 671.352 c 6.164,12.16 11.3,24.93 15.296,38.2 v -37.02 h 96.739 v 128.1 h -50.895 l 98.906,98.9 v -228.18" /><path
         id="path58"
         style="fill:#beb6b2;fill-opacity:1;fill-rule:nonzero;stroke:none"
         d="M 1531.02,1679.69 H 791.984 v 49.27 h 780.376 v -25.89 l -41.34,-23.38" /><path
         id="path60"
         style="fill:#fbf1dd;fill-opacity:1;fill-rule:nonzero;stroke:none"
         d="m 1060.34,1728.96 h -47.46 v 248.3 h 338.59 -42.82 l -68.58,-68.57 c -14.6,15.21 -35.14,24.68 -57.9,24.68 -44.32,0 -80.26,-35.93 -80.26,-80.26 0,-22.75 9.47,-43.3 24.68,-57.9 l -66.25,-66.25" /><path
         id="path62"
         style="fill:#beb6b2;fill-opacity:1;fill-rule:nonzero;stroke:none"
         d="M 1391.29,1977.26 H 973.062 v 49.27 h 418.228 v -49.27" /><path
         id="path64"
         style="fill:#beb6b2;fill-opacity:1;fill-rule:nonzero;stroke:none"
         d="M 831.398,1481.15 H 641.781 c -4.894,16.67 -10.058,33.14 -15.488,49.27 h 205.105 v -49.27" /><path
         id="path66"
         style="fill:#b2cacd;fill-opacity:1;fill-rule:nonzero;stroke:none"
         d="m 994.645,851.531 h 18.2344 v 0 z" /><path
         id="path68"
         style="fill:#b2cacd;fill-opacity:1;fill-rule:nonzero;stroke:none"
         d="m 1012.88,1061.4 h -96.743 v 128.1 h 96.743 v -128.1" /><path
         id="path70"
         style="fill:#b2cacd;fill-opacity:1;fill-rule:nonzero;stroke:none"
         d="m 1157.99,1061.4 h -96.74 v 128.1 h 96.74 l -24.12,-0.01 -72.62,-72.62 v -55.46 h 96.74 v -0.01" /><path
         id="path72"
         style="fill:#b2cacd;fill-opacity:1;fill-rule:nonzero;stroke:none"
         d="m 916.137,1271.28 h 96.7422 v 128.09 H 916.137 Z" /><path
         id="path74"
         style="fill:#b2cacd;fill-opacity:1;fill-rule:nonzero;stroke:none"
         d="m 1157.99,1271.28 h -96.74 v 128.09 h 62.94 v -0.63 h 33.8 v -127.46" /><path
         id="path76"
         style="fill:#b2cacd;fill-opacity:1;fill-rule:nonzero;stroke:none"
         d="m 916.137,1481.15 h 96.7422 v 128.094 H 916.137 Z" /><path
         id="path78"
         style="fill:#b2cacd;fill-opacity:1;fill-rule:nonzero;stroke:none"
         d="m 1061.25,1481.15 h 96.7383 v 128.094 H 1061.25 Z" /><path
         id="path80"
         style="fill:#b2cacd;fill-opacity:1;fill-rule:nonzero;stroke:none"
         d="m 1206.36,1496.08 v 113.16 h 96.74 v -58.45 l -96.74,-54.71" /><path
         id="path82"
         style="fill:#b2cacd;fill-opacity:1;fill-rule:nonzero;stroke:none"
         d="m 1351.47,1578.15 v 31.09 h 54.98 l -54.98,-31.09" /><path
         id="path84"
         style="fill:#b2cacd;fill-opacity:1;fill-rule:nonzero;stroke:none"
         d="m 783.387,1061.4 h -96.739 v 37.02 -37.01 h 96.739 v -0.01 m -87.18,91.81 c 0.231,4.26 0.348,8.55 0.348,12.87 v 0 c 0,7.32 -0.203,15.13 -0.606,23.42 h 87.438 l -50.895,-0.01 -36.285,-36.28" /><path
         id="path86"
         style="fill:#b2cacd;fill-opacity:1;fill-rule:nonzero;stroke:none"
         d="m 783.387,1271.28 h -95.699 c -0.336,2.37 -0.684,4.76 -1.04,7.16 v 120.93 h 96.739 v -128.09" /><path
         id="path88"
         style="fill:#beb6b2;fill-opacity:1;fill-rule:nonzero;stroke:none"
         d="m 1085.61,781.082 h 96.5625 V 979.621 H 1085.61 Z" /><path
         id="path90"
         style="fill:#b2cacd;fill-opacity:1;fill-rule:nonzero;stroke:none"
         d="m 1126.59,1795.21 c -15.21,14.6 -24.68,35.15 -24.68,57.9 0,44.33 35.94,80.26 80.26,80.26 22.76,0 43.3,-9.47 57.9,-24.68 l -0.04,-0.04 -113.39,-113.4 v 0 l -0.05,-0.04" /><path
         id="path92"
         style="fill:#eee2cc;fill-opacity:1;fill-rule:nonzero;stroke:none"
         d="m 1351.47,1728.96 h -291.13 l 66.25,66.25 0.05,0.04 c 14.42,-13.84 33.96,-22.4 55.54,-22.4 44.32,0 80.25,35.93 80.25,80.26 0,21.57 -8.55,41.11 -22.4,55.54 v 0 l 0.04,0.04 68.58,68.57 h 42.82 v -248.3" /><path
         id="path94"
         style="fill:#a7b8c0;fill-opacity:1;fill-rule:nonzero;stroke:none"
         d="m 1182.18,1772.85 c -21.58,0 -41.12,8.56 -55.54,22.4 v 0 l 113.39,113.4 c 13.85,-14.43 22.4,-33.97 22.4,-55.54 0,-44.33 -35.93,-80.26 -80.25,-80.26" /><path
         id="path96"
         style="fill:#a7b8c0;fill-opacity:1;fill-rule:nonzero;stroke:none"
         d="m 783.387,1061.41 h -96.739 v 37.01 c 5.258,17.49 8.532,35.84 9.559,54.79 l 36.285,36.28 h 50.895 v -128.08" /><path
         id="path98"
         style="fill:#a7b8c0;fill-opacity:1;fill-rule:nonzero;stroke:none"
         d="m 1012.88,851.531 h -18.235 v 128.09 h 18.235 v -128.09" /><path
         id="path100"
         style="fill:#a7b8c0;fill-opacity:1;fill-rule:nonzero;stroke:none"
         d="m 1157.99,1061.41 h -96.74 v 55.46 l 72.62,72.62 h 24.12 v -74.77 h -33.8 v -50.87 h 33.8 v -2.44" /><path
         id="path102"
         style="fill:#fddc8d;fill-opacity:1;fill-rule:nonzero;stroke:none"
         d="m 1888.29,1616.95 -39.74,22.48 v 6.19 h -10.95 l -87.49,49.48 h 98.44 v 106.64 h -113.76 v -97.98 l -55.22,31.23 v 897.48 h 949.68 v -274.56 l -55.22,-55.23 v 26.85 h -265.82 v -106.64 h 186.02 l -49.48,-49.48 h -136.54 v -106.64 h 29.9 l -71.38,-71.39 v 21.91 h -265.82 v -106.64 h 181.08 l -108.91,-108.91 h -72.17 v -72.17 l -112.62,-112.62 m -153.5,400.34 v -106.64 h 113.76 v 106.64 h -113.76 m 266.12,156.12 v -106.64 h 265.82 v 106.64 h -265.82 m -266.12,0 v -106.64 h 113.76 v 106.64 h -113.76 m 266.12,156.12 v -106.64 h 265.82 v 106.64 h -265.82 m -266.12,0 v -106.64 h 113.76 v 106.64 h -113.76 m 573.42,156.12 v -106.64 h 265.82 v 106.64 h -265.82 m -307.3,0 v -106.64 h 265.82 v 106.64 h -265.82 m -266.12,0 v -106.64 h 113.76 v 106.64 h -113.76" /><path
         id="path104"
         style="fill:#e3b979;fill-opacity:1;fill-rule:nonzero;stroke:none"
         d="m 2629.25,1253.53 h -55.22 v 79.84 h -265.82 v -32.23 c -30.91,35.95 -71.31,57.72 -115.51,57.72 -23.53,0 -45.99,-6.17 -66.5,-17.36 v 41.36 h 140.53 v 106.64 h -153.08 l -87.49,49.48 h 240.57 v 106.64 h -265.82 v -92.36 l -112.62,63.69 112.62,112.62 v -34.47 h 265.82 v 106.64 h -193.65 l 108.91,108.91 h 84.74 v 84.74 l 71.38,71.38 h 235.92 v 106.64 h -129.28 l 49.48,49.48 h 79.8 v 79.79 l 55.22,55.23 V 1253.53 m -321.04,235.97 v -106.64 h 265.82 v 106.64 h -265.82 m 0,156.12 v -106.64 h 265.82 v 106.64 h -265.82 m 0,156.12 V 1695.1 h 265.82 v 106.64 h -265.82 m 0,215.55 v -106.64 h 265.82 v 106.64 h -265.82" /><path
         id="path106"
         style="fill:#f25055;fill-opacity:1;fill-rule:nonzero;stroke:none"
         d="m 2541.91,2699.16 h -176.9 c -35.49,78.13 -116.42,132.72 -210.6,132.72 173.28,0 322.2,-54.59 387.5,-132.72 m -775,0 v 0 c 65.3,78.13 214.22,132.72 387.5,132.72 v 0 c -173.28,0 -322.2,-54.59 -387.5,-132.72" /><path
         id="path108"
         style="fill:#f4686d;fill-opacity:1;fill-rule:nonzero;stroke:none"
         d="m 2365.01,2699.16 h -598.1 c 65.3,78.13 214.22,132.72 387.5,132.72 v 0 c 94.18,0 175.11,-54.59 210.6,-132.72" /><path
         id="path110"
         style="fill:#89807b;fill-opacity:1;fill-rule:nonzero;stroke:none"
         d="M 2682.6,2632.47 H 1626.22 v 66.69 h 140.69 915.69 v -66.69" /><path
         id="path112"
         style="fill:#6c9fa8;fill-opacity:1;fill-rule:nonzero;stroke:none"
         d="m 2308.21,2379.01 h 265.82 v 106.641 h -265.82 z" /><path
         id="path114"
         style="fill:#6c9fa8;fill-opacity:1;fill-rule:nonzero;stroke:none"
         d="m 2494.24,2222.89 h -186.03 v 106.64 h 265.82 v -26.85 l -79.79,-79.79" /><path
         id="path116"
         style="fill:#6c9fa8;fill-opacity:1;fill-rule:nonzero;stroke:none"
         d="m 2574.03,2066.77 h -265.82 v 106.64 h 136.54 l -106.64,-106.64 h 235.92 v 0" /><path
         id="path118"
         style="fill:#5c8594;fill-opacity:1;fill-rule:nonzero;stroke:none"
         d="m 2308.21,1910.65 h 265.82 v 106.641 h -265.82 z" /><path
         id="path120"
         style="fill:#6c9fa8;fill-opacity:1;fill-rule:nonzero;stroke:none"
         d="m 2000.91,2379.01 h 265.82 v 106.641 h -265.82 z" /><path
         id="path122"
         style="fill:#6c9fa8;fill-opacity:1;fill-rule:nonzero;stroke:none"
         d="m 2000.91,2222.89 h 265.82 v 106.641 h -265.82 z" /><path
         id="path124"
         style="fill:#6c9fa8;fill-opacity:1;fill-rule:nonzero;stroke:none"
         d="m 2000.91,2066.77 h 265.82 v 106.641 h -265.82 z" /><path
         id="path126"
         style="fill:#6c9fa8;fill-opacity:1;fill-rule:nonzero;stroke:none"
         d="m 2266.73,1910.65 h -265.82 v 106.64 h 265.82 v -21.9 l -84.74,-84.74 h 84.74 v 0" /><path
         id="path128"
         style="fill:#5c8594;fill-opacity:1;fill-rule:nonzero;stroke:none"
         d="m 2308.21,1695.1 h 265.82 v 106.641 h -265.82 z" /><path
         id="path130"
         style="fill:#5c8594;fill-opacity:1;fill-rule:nonzero;stroke:none"
         d="m 2308.21,1538.98 h 265.82 v 106.641 h -265.82 z" /><path
         id="path132"
         style="fill:#5c8594;fill-opacity:1;fill-rule:nonzero;stroke:none"
         d="m 2308.21,1382.86 h 265.82 v 106.641 h -265.82 z" /><path
         id="path134"
         style="fill:#5c8594;fill-opacity:1;fill-rule:nonzero;stroke:none"
         d="m 2574.03,1253.53 h -234.55 c -8.79,17.7 -19.31,33.71 -31.27,47.61 v 32.23 h 265.82 v -79.84" /><path
         id="path136"
         style="fill:#6c9fa8;fill-opacity:1;fill-rule:nonzero;stroke:none"
         d="m 2000.91,1695.1 v 106.64 h 265.82 -193.65 l -72.16,-72.17 v -34.47" /><path
         id="path138"
         style="fill:#5c8594;fill-opacity:1;fill-rule:nonzero;stroke:none"
         d="m 2266.73,1538.98 h -240.57 l -25.25,14.28 v 92.36 h 265.82 v -106.64" /><path
         id="path140"
         style="fill:#5c8594;fill-opacity:1;fill-rule:nonzero;stroke:none"
         d="M 2266.73,1382.86 H 2126.2 v 15.88 h 57.98 v 50.87 l -70.53,39.89 h 153.08 v -106.64" /><path
         id="path142"
         style="fill:#6c9fa8;fill-opacity:1;fill-rule:nonzero;stroke:none"
         d="m 1734.79,2379.01 h 113.762 v 106.641 H 1734.79 Z" /><path
         id="path144"
         style="fill:#6c9fa8;fill-opacity:1;fill-rule:nonzero;stroke:none"
         d="m 1734.79,2222.89 h 113.762 v 106.641 H 1734.79 Z" /><path
         id="path146"
         style="fill:#6c9fa8;fill-opacity:1;fill-rule:nonzero;stroke:none"
         d="m 1734.79,2066.77 h 113.762 v 106.641 H 1734.79 Z" /><path
         id="path148"
         style="fill:#6c9fa8;fill-opacity:1;fill-rule:nonzero;stroke:none"
         d="m 1734.79,1910.65 h 113.762 v 106.641 H 1734.79 Z" /><path
         id="path150"
         style="fill:#6c9fa8;fill-opacity:1;fill-rule:nonzero;stroke:none"
         d="m 1848.55,1695.1 h -98.44 l -15.32,8.66 v 97.98 h 113.76 V 1695.1" /><path
         id="path152"
         style="fill:#6c9fa8;fill-opacity:1;fill-rule:nonzero;stroke:none"
         d="m 1848.55,1639.43 -10.95,6.19 h 10.95 v -6.19" /><path
         id="path154"
         style="fill:#5c8594;fill-opacity:1;fill-rule:nonzero;stroke:none"
         d="m 2574.03,2066.77 h -235.92 l 106.64,106.64 h 129.28 v -106.64" /><path
         id="path156"
         style="fill:#5c8594;fill-opacity:1;fill-rule:nonzero;stroke:none"
         d="m 2266.73,1910.65 h -84.74 l 84.74,84.74 v -84.74" /><path
         id="path158"
         style="fill:#5c8594;fill-opacity:1;fill-rule:nonzero;stroke:none"
         d="m 2574.03,2222.89 h -79.79 l 79.79,79.79 v -79.79" /><path
         id="path160"
         style="fill:#5c8594;fill-opacity:1;fill-rule:nonzero;stroke:none"
         d="m 2266.73,1695.1 h -265.81 v 34.47 l 72.16,72.17 h 193.65 V 1695.1" /><path
         id="path162"
         style="fill:#9dce1f;fill-opacity:1;fill-rule:nonzero;stroke:none"
         d="m 696.555,1166.08 c 0,-129.17 -104.418,-233.881 -233.231,-233.881 -128.808,0 -233.23,104.711 -233.23,233.881 0,179.44 104.422,592.76 233.23,592.76 128.813,0 233.231,-463.6 233.231,-592.76" /><path
         id="path164"
         style="fill:#77a62b;fill-opacity:1;fill-rule:nonzero;stroke:none"
         d="m 696.555,1166.08 c 0,165.63 -104.418,592.76 -233.231,592.76 V 932.199 c 128.813,0 233.231,104.711 233.231,233.881" /><path
         id="path166"
         style="fill:#855a2f;fill-opacity:1;fill-rule:nonzero;stroke:none"
         d="m 444.418,1165.43 -14.09,-378.629 h 65.988 L 482.23,1165.43 h -37.812" /><path
         id="path168"
         style="fill:#704323;fill-opacity:1;fill-rule:nonzero;stroke:none"
         d="M 463.324,1165.43 V 786.801 h 32.992 L 482.23,1165.43 h -18.906" /><path
         id="path170"
         style="fill:#855a2f;fill-opacity:1;fill-rule:nonzero;stroke:none"
         d="m 5022,963.34 -14.71,-188.801 h 68.88 l -14.7,188.801 H 5022" /><path
         id="path172"
         style="fill:#704323;fill-opacity:1;fill-rule:nonzero;stroke:none"
         d="M 5041.73,963.34 V 774.539 h 34.44 l -14.7,188.801 h -19.74" /><path
         id="path174"
         style="fill:#9dce1f;fill-opacity:1;fill-rule:nonzero;stroke:none"
         d="m 4849.89,903.211 191.84,822.829 191.85,-822.829 h -383.69" /><path
         id="path176"
         style="fill:#628c2c;fill-opacity:1;fill-rule:nonzero;stroke:none"
         d="M 5233.58,903.211 5041.73,1726.04 V 903.211 h 191.85" /><path
         id="path178"
         style="fill:#cbecd1;fill-opacity:1;fill-rule:nonzero;stroke:none"
         d="m 4188.22,1149.41 h -0.08 v 24.57 h -134.72 v -24.57 h -108.95 v 645.01 l 442.21,-227.51 c -9.62,-27.6 -18.49,-56.4 -26.5,-85.57 h -122.94 v -104.97 h 98.03 c -3.32,-16.5 -6.32,-32.78 -8.98,-48.71 h -89.05 v -104.98 h 24.26 l -73.28,-73.27 m -134.8,178.25 v -104.98 h 134.72 v 104.98 h -134.72 m 0,153.68 v -104.97 h 134.72 v 104.97 h -134.72" /><path
         id="path180"
         style="fill:#aadeba;fill-opacity:1;fill-rule:nonzero;stroke:none"
         d="m 4237.24,1149.41 h -49.02 l 73.28,73.27 h 51.87 c -1.13,-15.91 -1.71,-30.77 -1.71,-44.35 0,-1.46 0.02,-2.9 0.04,-4.35 h -74.46 v -24.57" /><path
         id="path182"
         style="fill:#cbecd1;fill-opacity:1;fill-rule:nonzero;stroke:none"
         d="m 3853.51,779.469 h -472.91 472.91 v 0 m -630.54,548.191 h -12.99 c -2.55,15.81 -5.46,32.1 -8.69,48.71 h 70.39 l -48.71,-48.71 m 76.35,76.34 v 77.34 h -121.98 c -26.67,101.78 -63.48,202.49 -106.44,267.66 v 540.27 h 873.57 v -240.12 l -93.7,-93.7 v 45.44 h -134.72 v -104.97 h 75.18 l -48.71,-48.71 h -26.47 v -26.48 l -49.1,-49.09 v 75.57 h -134.71 v -104.98 h 105.31 l -48.71,-48.71 h -56.6 v -56.6 l -155.58,-155.58 h -28.24 v -28.24 l -49.1,-49.1 m 49.1,289.52 v -104.97 h 134.72 v 104.97 h -134.72 m -183.82,0 v -104.97 h 134.72 v 104.97 H 3164.6 m 183.82,153.69 v -104.98 h 134.72 v 104.98 h -134.72 m -183.82,0 v -104.98 h 134.72 v 104.98 H 3164.6 m 367.64,153.68 v -104.97 h 134.71 v 104.97 h -134.71 m -183.82,0 v -104.97 h 134.72 v 104.97 h -134.72 m -183.82,0 v -104.97 h 134.72 v 104.97 H 3164.6 m 551.45,153.68 V 2049.6 h 134.72 v 104.97 h -134.72 m -183.81,0 V 2049.6 h 134.71 v 104.97 h -134.71 m -183.82,0 V 2049.6 h 134.72 v 104.97 h -134.72 m -183.82,0 V 2049.6 h 134.72 v 104.97 H 3164.6" /><path
         id="path184"
         style="fill:#aadeba;fill-opacity:1;fill-rule:nonzero;stroke:none"
         d="M 3853.51,779.469 H 3380.6 V 915.32 h 54.44 c -0.04,-0.82 -0.07,-1.64 -0.1,-2.449 0,-0.012 0,-0.019 0,-0.031 -0.01,-0.192 -0.01,-0.379 -0.02,-0.57 0,-0.008 0,-0.028 0,-0.028 -0.01,-0.203 -0.01,-0.39 -0.02,-0.582 0,-0.012 0,-0.019 0,-0.031 0,-0.09 0,-0.188 -0.01,-0.289 v 0 c 0,-0.09 0,-0.18 0,-0.27 0,-0.019 0,-0.039 0,-0.058 -0.01,-0.09 -0.01,-0.18 -0.01,-0.27 0,-0.012 0,-0.023 0,-0.043 0,-0.078 0,-0.148 0,-0.219 0,-0.031 0,-0.058 -0.01,-0.082 0,-0.089 0,-0.179 0,-0.257 0,-0.02 0,-0.02 0,-0.039 0,-0.071 0,-0.153 0,-0.231 0,-0.031 -0.01,-0.062 -0.01,-0.09 0,-0.082 0,-0.172 0,-0.25 0,-0.011 0,-0.031 0,-0.039 0,-0.07 0,-0.152 0,-0.222 0,-0.028 0,-0.059 0,-0.09 0,-0.078 -0.01,-0.168 -0.01,-0.258 0,-0.012 0,-0.024 0,-0.031 0,-0.082 0,-0.161 0,-0.231 0,-0.031 0,-0.058 0,-0.09 0,-0.078 0,-0.172 0,-0.25 0,-0.019 0,-0.031 0,-0.039 0,-0.082 0,-0.152 0,-0.222 0,-0.028 0,-0.067 0,-0.098 0,-0.082 -0.01,-0.16 -0.01,-0.242 0,-0.02 0,-0.039 0,-0.047 0,-0.07 0,-0.152 0,-0.231 0,-0.031 0,-0.05 0,-0.082 0,-0.089 0,-0.179 0,-0.257 0,-0.012 0,-0.012 0,-0.012 0,-0.09 0,-0.18 0,-0.27 0,-0.019 0,-0.039 0,-0.058 0,-0.09 0,-0.18 0,-0.274 v 0 c 0.24,-69.468 62.95,-72.648 62.95,-72.648 l 209.71,0.719 49.53,0.171 c 49.48,0.168 50.14,45.168 37.08,80.59 h 56.66 v 104.97 h -134.72 v -20.868 c -34.41,22.198 -80.6,41.418 -136.8,41.418 -0.27,0 -0.56,0 -0.84,0 -41.35,-0.14 -72.64,-10.56 -95.27,-27.45 v 6.9 h -89.15 l -29.82,48.71 h 118.97 v 104.98 h -134.72 v -95.66 h -49.1 v 95.66 h -76.64 c 0.36,5.51 0.55,11.07 0.55,16.68 v 0 c 0,9.85 -0.35,20.56 -1.03,32.02 h 77.12 v 104.98 h -76.35 l 48.71,48.71 h 27.64 V 1404 l 49.1,49.1 v -76.73 h 134.72 v 104.97 h -106.48 l 155.58,155.58 v -48.37 h 134.71 v 104.97 h -78.11 l 48.71,48.71 h 29.4 v 29.41 l 49.1,49.09 v -78.5 h 134.72 v 104.98 h -108.25 l 48.71,48.71 h 59.54 v 59.54 l 93.7,93.69 v -202.24 l -0.57,0.3 v -52.49 l 0.57,-0.3 v -645.01 h -93.7 v 24.57 H 3716.05 V 1069 h 134.72 v 29.71 h 93.7 -90.96 V 779.469 M 3532.24,1173.98 V 1069 h 134.71 v 104.98 h -134.71 m 183.81,153.68 v -104.98 h 134.72 v 104.98 h -134.72 m -183.81,0 v -104.98 h 134.71 v 104.98 h -134.71 m -183.82,0 v -104.98 h 134.72 v 104.98 h -134.72 m 367.63,153.68 v -104.97 h 134.72 v 104.97 h -134.72 m -183.81,0 v -104.97 h 134.71 v 104.97 h -134.71 m 183.81,212.18 v -104.97 h 134.72 v 104.97 H 3716.05 M 3348.42,973.699 h -49.1 v 0.18 h 49.1 v -0.18 m -183.82,0 h -67.7 c 0.09,0.063 0.2,0.121 0.3,0.18 h 67.4 v -0.18" /><path
         id="path186"
         style="fill:#958c87;fill-opacity:1;fill-rule:nonzero;stroke:none"
         d="m 3996.65,2289.27 h -977.93 v 65.65 h 74.81 828.31 74.81 v -65.65" /><path
         id="path188"
         style="fill:#7ea9b1;fill-opacity:1;fill-rule:nonzero;stroke:none"
         d="m 3716.05,2049.6 h 134.719 v 104.969 H 3716.05 Z" /><path
         id="path190"
         style="fill:#7ea9b1;fill-opacity:1;fill-rule:nonzero;stroke:none"
         d="m 3791.23,1895.92 h -75.18 v 104.97 h 134.72 v -45.44 l -59.54,-59.53" /><path
         id="path192"
         style="fill:#6d909d;fill-opacity:1;fill-rule:nonzero;stroke:none"
         d="m 3850.77,1742.23 h -134.72 v 104.98 h 134.72 v -104.98" /><path
         id="path194"
         style="fill:#6d909d;fill-opacity:1;fill-rule:nonzero;stroke:none"
         d="m 3716.05,1588.55 h 134.719 v 104.969 H 3716.05 Z" /><path
         id="path196"
         style="fill:#6d909d;fill-opacity:1;fill-rule:nonzero;stroke:none"
         d="m 3716.05,1376.37 h 134.719 v 104.969 H 3716.05 Z" /><path
         id="path198"
         style="fill:#6d909d;fill-opacity:1;fill-rule:nonzero;stroke:none"
         d="m 3716.05,1222.68 h 134.719 v 104.98 H 3716.05 Z" /><path
         id="path200"
         style="fill:#6d909d;fill-opacity:1;fill-rule:nonzero;stroke:none"
         d="m 3850.77,1069 h -134.72 v 104.98 h 134.72 v -24.57 h -63.82 v -50.7 h 63.82 V 1069" /><path
         id="path202"
         style="fill:#6d909d;fill-opacity:1;fill-rule:nonzero;stroke:none"
         d="m 3850.77,915.32 h -56.66 c -4.68,12.692 -11.11,24.149 -17.7,31.871 -11.29,13.258 -31.75,33.778 -60.36,52.231 v 20.868 h 134.72 V 915.32" /><path
         id="path204"
         style="fill:#7ea9b1;fill-opacity:1;fill-rule:nonzero;stroke:none"
         d="m 3532.24,2049.6 h 134.711 v 104.969 H 3532.24 Z" /><path
         id="path206"
         style="fill:#7ea9b1;fill-opacity:1;fill-rule:nonzero;stroke:none"
         d="m 3532.24,1895.92 h 134.711 v 104.969 H 3532.24 Z" /><path
         id="path208"
         style="fill:#7ea9b1;fill-opacity:1;fill-rule:nonzero;stroke:none"
         d="m 3637.55,1742.23 h -105.31 v 104.98 h 134.71 v -75.57 l -29.4,-29.41" /><path
         id="path210"
         style="fill:#7ea9b1;fill-opacity:1;fill-rule:nonzero;stroke:none"
         d="m 3532.24,1588.55 v 104.97 h 134.71 -78.11 l -56.6,-56.6 v -48.37" /><path
         id="path212"
         style="fill:#6d909d;fill-opacity:1;fill-rule:nonzero;stroke:none"
         d="m 3532.24,1376.37 h 134.711 v 104.969 H 3532.24 Z" /><path
         id="path214"
         style="fill:#6d909d;fill-opacity:1;fill-rule:nonzero;stroke:none"
         d="m 3532.24,1222.68 h 134.711 v 104.98 H 3532.24 Z" /><path
         id="path216"
         style="fill:#6d909d;fill-opacity:1;fill-rule:nonzero;stroke:none"
         d="m 3532.24,1069 h 134.711 v 104.98 H 3532.24 Z" /><path
         id="path218"
         style="fill:#7ea9b1;fill-opacity:1;fill-rule:nonzero;stroke:none"
         d="m 3348.42,2049.6 h 134.719 v 104.969 H 3348.42 Z" /><path
         id="path220"
         style="fill:#7ea9b1;fill-opacity:1;fill-rule:nonzero;stroke:none"
         d="m 3348.42,1895.92 h 134.719 v 104.969 H 3348.42 Z" /><path
         id="path222"
         style="fill:#7ea9b1;fill-opacity:1;fill-rule:nonzero;stroke:none"
         d="m 3348.42,1742.23 h 134.719 v 104.98 H 3348.42 Z" /><path
         id="path224"
         style="fill:#7ea9b1;fill-opacity:1;fill-rule:nonzero;stroke:none"
         d="m 3348.42,1588.55 h 134.719 v 104.969 H 3348.42 Z" /><path
         id="path226"
         style="fill:#7ea9b1;fill-opacity:1;fill-rule:nonzero;stroke:none"
         d="m 3483.14,1376.37 h -134.72 v 104.97 h 28.24 l -28.24,-28.24 v -76.73 h 134.72 v 0" /><path
         id="path228"
         style="fill:#6d909d;fill-opacity:1;fill-rule:nonzero;stroke:none"
         d="m 3348.42,1222.68 h 134.719 v 104.98 H 3348.42 Z" /><path
         id="path230"
         style="fill:#6d909d;fill-opacity:1;fill-rule:nonzero;stroke:none"
         d="m 3483.14,1069 h -118.97 l -5.71,9.32 h -10.04 v 95.66 h 134.72 V 1069" /><path
         id="path232"
         style="fill:#6d909d;fill-opacity:1;fill-rule:nonzero;stroke:none"
         d="m 3435.04,915.32 h -54.44 v 58.379 h -32.18 v 0.18 h 73.99 l -28.42,46.411 h 89.15 v -6.9 c -31.54,-23.538 -46.28,-59.64 -48.1,-98.07" /><path
         id="path234"
         style="fill:#7ea9b1;fill-opacity:1;fill-rule:nonzero;stroke:none"
         d="m 3164.6,2049.6 h 134.719 v 104.969 H 3164.6 Z" /><path
         id="path236"
         style="fill:#7ea9b1;fill-opacity:1;fill-rule:nonzero;stroke:none"
         d="m 3164.6,1895.92 h 134.719 v 104.969 H 3164.6 Z" /><path
         id="path238"
         style="fill:#7ea9b1;fill-opacity:1;fill-rule:nonzero;stroke:none"
         d="m 3164.6,1742.23 h 134.719 v 104.98 H 3164.6 Z" /><path
         id="path240"
         style="fill:#7ea9b1;fill-opacity:1;fill-rule:nonzero;stroke:none"
         d="m 3164.6,1588.55 h 134.719 v 104.969 H 3164.6 Z" /><path
         id="path242"
         style="fill:#7ea9b1;fill-opacity:1;fill-rule:nonzero;stroke:none"
         d="m 3299.32,1376.37 h -98.03 c -6.65,34.16 -14.68,69.62 -23.95,104.97 h 121.98 V 1404 l -27.64,-27.63 h 27.64 v 0" /><path
         id="path244"
         style="fill:#7ea9b1;fill-opacity:1;fill-rule:nonzero;stroke:none"
         d="m 3211.75,1316.43 c -0.57,3.72 -1.16,7.46 -1.77,11.23 h 89.34 -76.34 l -11.23,-11.23" /><path
         id="path246"
         style="fill:#6d909d;fill-opacity:1;fill-rule:nonzero;stroke:none"
         d="m 3299.32,1078.32 h -102.74 c 14.68,29.07 23.84,61.42 26.1,95.66 h 76.64 v -95.66" /><path
         id="path248"
         style="fill:#6d909d;fill-opacity:1;fill-rule:nonzero;stroke:none"
         d="M 3299.32,973.699 H 3164.6 v 0.18 h 134.72 v -0.18" /><path
         id="path250"
         style="fill:#7ea9b1;fill-opacity:1;fill-rule:nonzero;stroke:none"
         d="m 4335.27,1376.37 h -98.03 v 104.97 h 122.94 c -9.59,-34.93 -17.96,-70.41 -24.91,-104.97" /><path
         id="path252"
         style="fill:#7ea9b1;fill-opacity:1;fill-rule:nonzero;stroke:none"
         d="m 4261.5,1222.68 h -24.26 v 104.98 h 89.05 c -2.7,-16.17 -5.05,-31.95 -7.03,-47.21 l -57.76,-57.77" /><path
         id="path254"
         style="fill:#6d909d;fill-opacity:1;fill-rule:nonzero;stroke:none"
         d="m 4313.37,1149.41 h -76.13 v 24.57 h 74.46 c 0.15,-8.3 0.71,-16.5 1.67,-24.57" /><path
         id="path256"
         style="fill:#7ea9b1;fill-opacity:1;fill-rule:nonzero;stroke:none"
         d="m 4053.42,1376.37 h 134.719 v 104.969 H 4053.42 Z" /><path
         id="path258"
         style="fill:#7ea9b1;fill-opacity:1;fill-rule:nonzero;stroke:none"
         d="m 4053.42,1222.68 h 134.719 v 104.98 H 4053.42 Z" /><path
         id="path260"
         style="fill:#7ea9b1;fill-opacity:1;fill-rule:nonzero;stroke:none"
         d="m 4053.42,1149.41 h 134.719 v 24.5703 H 4053.42 Z" /><path
         id="path262"
         style="fill:#958c87;fill-opacity:1;fill-rule:nonzero;stroke:none"
         d="m 3491.57,2551.05 v 256.52 h 32.23 v -256.52 c -5.34,0.11 -10.72,0.16 -16.11,0.16 -5.39,0 -10.78,-0.05 -16.12,-0.16" /><path
         id="path264"
         style="fill:#f36464;fill-opacity:1;fill-rule:nonzero;stroke:none"
         d="m 3921.84,2354.92 h -828.31 v 0 h 159.13 450.18 c -10.95,106.88 -102.02,191.09 -214.55,196.06 1.1,0.02 2.19,0.05 3.28,0.07 5.34,0.11 10.73,0.16 16.12,0.16 5.39,0 10.77,-0.05 16.11,-0.16 208.57,-4.15 377.79,-88.68 398.04,-196.13 v 0" /><path
         id="path266"
         style="fill:#f57a7b;fill-opacity:1;fill-rule:nonzero;stroke:none"
         d="m 3523.8,2687.76 h 176.891 v 119.812 H 3523.8 Z" /><path
         id="path268"
         style="fill:#f57a7b;fill-opacity:1;fill-rule:nonzero;stroke:none"
         d="m 3702.84,2354.92 h -639.25 c 20.77,110.2 198.25,196.29 414.16,196.29 3.53,0 7.05,-0.08 10.54,-0.23 112.53,-4.97 203.6,-89.18 214.55,-196.06" /><path
         id="path270"
         style="fill:#6d909d;fill-opacity:1;fill-rule:nonzero;stroke:none"
         d="m 3850.77,1895.92 h -59.54 l 59.54,59.54 v -59.54" /><path
         id="path272"
         style="fill:#6d909d;fill-opacity:1;fill-rule:nonzero;stroke:none"
         d="m 3666.95,1742.23 h -29.4 l 29.4,29.41 v -29.41" /><path
         id="path274"
         style="fill:#6d909d;fill-opacity:1;fill-rule:nonzero;stroke:none"
         d="m 3666.95,1588.55 h -134.71 v 48.37 l 56.6,56.6 h 78.11 v -104.97" /><path
         id="path276"
         style="fill:#6d909d;fill-opacity:1;fill-rule:nonzero;stroke:none"
         d="m 3483.14,1376.37 h -134.72 v 76.73 l 28.24,28.24 h 106.48 v -104.97" /><path
         id="path278"
         style="fill:#6d909d;fill-opacity:1;fill-rule:nonzero;stroke:none"
         d="m 3299.32,1376.37 h -27.64 l 27.64,27.63 v -27.63" /><path
         id="path280"
         style="fill:#6d909d;fill-opacity:1;fill-rule:nonzero;stroke:none"
         d="m 3299.32,1222.68 h -77.12 c -1.63,27.55 -5.19,59.41 -10.45,93.75 l 11.23,11.23 h 76.34 v -104.98" /><path
         id="path282"
         style="fill:#6d909d;fill-opacity:1;fill-rule:nonzero;stroke:none"
         d="m 4313.37,1222.68 h -51.87 l 57.76,57.77 c -2.63,-20.32 -4.62,-39.72 -5.89,-57.77" /><path
         id="path284"
         style="fill:#958c87;fill-opacity:1;fill-rule:nonzero;stroke:none"
         d="m 4386.68,1566.91 -442.21,227.51 -0.57,0.3 v 52.49 l 0.57,-0.3 458.65,-235.97 c -5.69,-14.22 -11.18,-28.95 -16.44,-44.03" /><path
         id="path286"
         style="fill:#9dce1f;fill-opacity:1;fill-rule:nonzero;stroke:none"
         d="m 3223.23,1190.66 c 0,-137.54 -111.19,-249.039 -248.35,-249.039 -137.16,0 -248.35,111.499 -248.35,249.039 0,191.07 111.19,631.18 248.35,631.18 137.16,0 248.35,-493.65 248.35,-631.18" /><path
         id="path288"
         style="fill:#77a62b;fill-opacity:1;fill-rule:nonzero;stroke:none"
         d="m 3223.23,1190.66 c 0,176.37 -111.19,631.18 -248.35,631.18 V 941.621 c 137.16,0 248.35,111.499 248.35,249.039" /><path
         id="path290"
         style="fill:#855a2f;fill-opacity:1;fill-rule:nonzero;stroke:none"
         d="m 2954.75,1189.97 -15,-403.169 h 70.26 l -15,403.169 h -40.26" /><path
         id="path292"
         style="fill:#704323;fill-opacity:1;fill-rule:nonzero;stroke:none"
         d="M 2974.88,1189.97 V 786.801 h 35.13 l -15,403.169 h -20.13" /><path
         id="path294"
         style="fill:#9dce1f;fill-opacity:1;fill-rule:nonzero;stroke:none"
         d="m 4793.2,1178.33 c 0,-133.34 -107.8,-241.432 -240.77,-241.432 -132.97,0 -240.77,108.092 -240.77,241.432 0,185.24 107.8,611.92 240.77,611.92 132.97,0 240.77,-478.58 240.77,-611.92" /><path
         id="path296"
         style="fill:#77a62b;fill-opacity:1;fill-rule:nonzero;stroke:none"
         d="m 4793.2,1178.33 c 0,170.99 -107.8,611.92 -240.77,611.92 V 936.898 c 132.97,0 240.77,108.092 240.77,241.432" /><path
         id="path298"
         style="fill:#855a2f;fill-opacity:1;fill-rule:nonzero;stroke:none"
         d="m 4532.91,1177.66 -14.54,-390.859 h 68.12 l -14.54,390.859 h -39.04" /><path
         id="path300"
         style="fill:#704323;fill-opacity:1;fill-rule:nonzero;stroke:none"
         d="M 4552.43,1177.66 V 786.801 h 34.06 l -14.54,390.859 h -19.52" /><path
         id="path302"
         style="fill:#716b66;fill-opacity:1;fill-rule:nonzero;stroke:none"
         d="m 2280.26,1203.79 h 824.68 v 49.7422 h -824.68 z" /><path
         id="path304"
         style="fill:#f8f9f9;fill-opacity:1;fill-rule:nonzero;stroke:none"
         d="m 2325.37,779.18 h 734.461 v 424.609 H 2325.37 Z" /><path
         id="path306"
         style="fill:#f14556;fill-opacity:1;fill-rule:nonzero;stroke:none"
         d="m 2692.6,1546.67 -412.34,-293.14 h 824.68 l -412.34,293.14" /><path
         id="path308"
         style="fill:#f8f9f9;fill-opacity:1;fill-rule:nonzero;stroke:none"
         d="m 2004.61,779.18 h 320.762 V 973.7 H 2004.61 Z" /><path
         id="path310"
         style="fill:#4b8e9a;fill-opacity:1;fill-rule:nonzero;stroke:none"
         d="m 2436.34,1007.32 h 122.191 v 112.641 H 2436.34 Z" /><path
         id="path312"
         style="fill:#4b8e9a;fill-opacity:1;fill-rule:nonzero;stroke:none"
         d="m 2637.11,1007.32 h 122.191 v 112.641 H 2637.11 Z" /><path
         id="path314"
         style="fill:#4b8e9a;fill-opacity:1;fill-rule:nonzero;stroke:none"
         d="m 2436.34,852.41 h 122.191 V 965.039 H 2436.34 Z" /><path
         id="path316"
         style="fill:#4b8e9a;fill-opacity:1;fill-rule:nonzero;stroke:none"
         d="m 2103.89,852.41 h 122.191 v 77.0703 H 2103.89 Z" /><path
         id="path318"
         style="fill:#4b8e9a;fill-opacity:1;fill-rule:nonzero;stroke:none"
         d="m 2837.88,1007.32 h 122.191 v 112.641 H 2837.88 Z" /><path
         id="path320"
         style="fill:#4b8e9a;fill-opacity:1;fill-rule:nonzero;stroke:none"
         d="m 2837.88,852.41 h 122.191 V 965.039 H 2837.88 Z" /><path
         id="path322"
         style="fill:#f14556;fill-opacity:1;fill-rule:nonzero;stroke:none"
         d="m 2026.74,1078.32 -63.95,-104.441 h 362.58 v 104.441 h -298.63" /><path
         id="path324"
         style="fill:#f8f9f9;fill-opacity:1;fill-rule:nonzero;stroke:none"
         d="M 3059.83,779.18 H 3380.6 V 973.7 h -320.77 z" /><path
         id="path326"
         style="fill:#ee2a3f;fill-opacity:1;fill-rule:nonzero;stroke:none"
         d="m 3358.46,1078.32 63.95,-104.441 h -362.58 v 104.441 h 298.63" /><path
         id="path328"
         style="fill:#716b66;fill-opacity:1;fill-rule:nonzero;stroke:none"
         d="m 2637.11,779.18 h 122.191 V 965.039 H 2637.11 Z" /><path
         id="path330"
         style="fill:#ee2a3f;fill-opacity:1;fill-rule:nonzero;stroke:none"
         d="m 3104.94,1253.53 -412.34,293.15 v -293.15 h 412.34" /><path
         id="path332"
         style="fill:#c7c3c1;fill-opacity:1;fill-rule:nonzero;stroke:none"
         d="m 3059.83,779.18 h -587.38 587.38 V 956.57 779.18" /><path
         id="path334"
         style="fill:#7fa529;fill-opacity:1;fill-rule:nonzero;stroke:none"
         d="m 3059.83,956.57 v 0 0 z" /><path
         id="path336"
         style="fill:#64872f;fill-opacity:1;fill-rule:nonzero;stroke:none"
         d="M 3059.83,956.57 V 1203.79 956.57" /><path
         id="path338"
         style="fill:#c3bfbd;fill-opacity:1;fill-rule:nonzero;stroke:none"
         d="M 3059.83,779.18 H 2759.3 v 185.859 h -100.99 l 42.28,42.281 h 58.71 v 58.71 l 137.76,137.76 h 162.77 V 779.18 M 2837.88,965.039 V 852.41 h 122.19 v 112.629 h -122.19 m 0,154.921 v -112.64 h 122.19 v 112.64 H 2837.88 M 2637.11,779.18 h -164.66 l 73.23,73.23 h 12.85 v 12.86 l 78.58,78.57 V 779.18" /><path
         id="path340"
         style="fill:#44767e;fill-opacity:1;fill-rule:nonzero;stroke:none"
         d="m 2759.3,1007.32 h -58.71 l 58.71,58.71 v -58.71" /><path
         id="path342"
         style="fill:#44767e;fill-opacity:1;fill-rule:nonzero;stroke:none"
         d="m 2558.53,852.41 h -12.85 l 12.85,12.86 v -12.86" /><path
         id="path344"
         style="fill:#44767e;fill-opacity:1;fill-rule:nonzero;stroke:none"
         d="m 2837.88,1007.32 h 122.191 v 112.641 H 2837.88 Z" /><path
         id="path346"
         style="fill:#44767e;fill-opacity:1;fill-rule:nonzero;stroke:none"
         d="m 2837.88,852.41 h 122.191 V 965.039 H 2837.88 Z" /><path
         id="path348"
         style="fill:#c3bfbd;fill-opacity:1;fill-rule:nonzero;stroke:none"
         d="M 3059.83,779.18 V 973.699 779.18" /><path
         id="path350"
         style="fill:#605a57;fill-opacity:1;fill-rule:nonzero;stroke:none"
         d="m 2759.3,779.18 h -122.19 v 164.66 l 21.2,21.199 H 2759.3 V 779.18" /><path
         id="path352"
         style="fill:#c3bfbd;fill-opacity:1;fill-rule:nonzero;stroke:none"
         d="m 2325.37,779.18 v 0 190.289 0 z" /><path
         id="path354"
         style="fill:#c3bfbd;fill-opacity:1;fill-rule:nonzero;stroke:none"
         d="M 2325.37,779.18 H 2126.2 v 66.172 l 7.06,7.058 h 92.82 v 40.672 c 39.32,10.078 73.99,37.637 99.29,76.387 V 779.18" /><path
         id="path356"
         style="fill:#44767e;fill-opacity:1;fill-rule:nonzero;stroke:none"
         d="m 2226.08,852.41 h -92.82 l 38.14,38.149 c 6.98,-1.129 14.09,-1.707 21.3,-1.707 11.41,0 22.58,1.457 33.38,4.23 V 852.41" /><path
         id="path358"
         style="fill:#c3bfbd;fill-opacity:1;fill-rule:nonzero;stroke:none"
         d="m 3380.6,779.18 h -38.18 v 136.289 h -90.88 l 58.24,58.23 h 70.82 V 779.18" /><path
         id="path360"
         style="fill:#716b66;fill-opacity:1;fill-rule:nonzero;stroke:none"
         d="m 3098.01,779.18 h 244.41 v 136.289 h -244.41 z" /><path
         id="path362"
         style="fill:#605a57;fill-opacity:1;fill-rule:nonzero;stroke:none"
         d="m 3220.21,779.18 h 122.211 V 915.469 H 3220.21 Z" /><path
         id="path364"
         style="fill:#f9b2a9;fill-opacity:1;fill-rule:nonzero;stroke:none"
         d="m 382.207,779.18 h 612.438 v 281.039 H 382.207 Z" /><path
         id="path366"
         style="fill:#4b8e9a;fill-opacity:1;fill-rule:nonzero;stroke:none"
         d="M 456.301,858.281 H 740.926 V 1043.89 H 456.301 Z" /><path
         id="path368"
         style="fill:#716b66;fill-opacity:1;fill-rule:nonzero;stroke:none"
         d="m 790.328,779.18 h 130.227 v 260.391 H 790.328 Z" /><path
         id="path370"
         style="fill:#c58d87;fill-opacity:1;fill-rule:nonzero;stroke:none"
         d="m 994.645,779.18 h -74.09 v 260.39 H 790.328 V 779.18 H 514.746 l 79.102,79.101 H 740.926 V 1043.89 H 456.301 v -58.808 c -1.961,-0.352 -3.985,-0.531 -6.047,-0.531 -18.789,0 -34.024,15.23 -34.024,34.019 0,-18.789 -15.23,-34.019 -34.023,-34.019 v 75.669 H 994.645 V 779.18" /><path
         id="path372"
         style="fill:#44767e;fill-opacity:1;fill-rule:nonzero;stroke:none"
         d="M 740.926,858.281 H 593.848 L 720.234,984.66 c -17.754,1.149 -31.808,15.87 -31.808,33.91 0,-18.789 -15.231,-34.019 -34.024,-34.019 -18.789,0 -34.023,15.23 -34.023,34.019 0,-18.789 -15.234,-34.019 -34.024,-34.019 -18.793,0 -34.027,15.23 -34.027,34.019 0,-18.789 -15.23,-34.019 -34.023,-34.019 -18.793,0 -34.024,15.23 -34.024,34.019 0,-16.72 -12.074,-30.629 -27.98,-33.488 v 58.808 H 740.926 V 858.281" /><path
         id="path374"
         style="fill:#605a57;fill-opacity:1;fill-rule:nonzero;stroke:none"
         d="m 790.328,779.18 h 130.227 v 260.391 H 790.328 Z" /><path
         id="path376"
         style="fill:#ee2a3f;fill-opacity:1;fill-rule:nonzero;stroke:none"
         d="m 450.254,1254.28 h 476.34 v 44.5508 h -476.34 z" /><path
         id="path378"
         style="fill:#f8f9f9;fill-opacity:1;fill-rule:nonzero;stroke:none"
         d="M 688.426,1254.28 H 450.254 l -102.07,-147.44 h 340.242 v 147.44" /><path
         id="path380"
         style="fill:#ee2a3f;fill-opacity:1;fill-rule:nonzero;stroke:none"
         d="m 348.184,1106.84 v -59.23 c 0,-18.79 15.234,-34.02 34.023,-34.02 18.793,0 34.023,15.23 34.023,34.02 v 59.23 h -68.046" /><path
         id="path382"
         style="fill:#cdbcbf;fill-opacity:1;fill-rule:nonzero;stroke:none"
         d="m 416.23,1106.84 v -59.23 c 0,-18.79 15.235,-34.02 34.024,-34.02 18.793,0 34.027,15.23 34.027,34.02 v 59.23 H 416.23" /><path
         id="path384"
         style="fill:#ee2a3f;fill-opacity:1;fill-rule:nonzero;stroke:none"
         d="m 484.281,1106.84 v -59.23 c 0,-18.79 15.235,-34.02 34.024,-34.02 18.793,0 34.023,15.23 34.023,34.02 v 59.23 h -68.047" /><path
         id="path386"
         style="fill:#cdbcbf;fill-opacity:1;fill-rule:nonzero;stroke:none"
         d="m 552.328,1106.84 v -59.23 c 0,-18.79 15.234,-34.02 34.024,-34.02 18.793,0 34.027,15.23 34.027,34.02 v 59.23 h -68.051" /><path
         id="path388"
         style="fill:#ee2a3f;fill-opacity:1;fill-rule:nonzero;stroke:none"
         d="m 620.379,1106.84 v -59.23 c 0,-18.79 15.234,-34.02 34.023,-34.02 18.793,0 34.024,15.23 34.024,34.02 v 59.23 h -68.047" /><path
         id="path390"
         style="fill:#f14556;fill-opacity:1;fill-rule:nonzero;stroke:none"
         d="m 416.23,1106.84 81.657,147.44 H 450.254 L 348.18,1106.84 h 68.05" /><path
         id="path392"
         style="fill:#f14556;fill-opacity:1;fill-rule:nonzero;stroke:none"
         d="m 484.281,1106.84 61.242,147.44 h 47.633 l -40.828,-147.44 h -68.047" /><path
         id="path394"
         style="fill:#f14556;fill-opacity:1;fill-rule:nonzero;stroke:none"
         d="m 620.375,1106.84 h 68.051 v 147.44 h -47.637 l -20.414,-147.44" /><path
         id="path396"
         style="fill:#f14556;fill-opacity:1;fill-rule:nonzero;stroke:none"
         d="M 688.426,1254.28 H 926.594 L 1028.67,1106.84 H 688.426 v 147.44" /><path
         id="path398"
         style="fill:#cdbcbf;fill-opacity:1;fill-rule:nonzero;stroke:none"
         d="m 1028.67,1106.84 v -59.23 c 0,-18.79 -15.24,-34.02 -34.025,-34.02 -18.79,0 -34.024,15.23 -34.024,34.02 v 59.23 h 68.049" /><path
         id="path400"
         style="fill:#ee2a3f;fill-opacity:1;fill-rule:nonzero;stroke:none"
         d="m 960.621,1106.84 v -59.23 c 0,-18.79 -15.234,-34.02 -34.023,-34.02 -18.793,0 -34.024,15.23 -34.024,34.02 v 59.23 h 68.047" /><path
         id="path402"
         style="fill:#cdbcbf;fill-opacity:1;fill-rule:nonzero;stroke:none"
         d="m 892.574,1106.84 v -59.23 c 0,-18.79 -15.234,-34.02 -34.027,-34.02 -18.789,0 -34.024,15.23 -34.024,34.02 v 59.23 h 68.051" /><path
         id="path404"
         style="fill:#ee2a3f;fill-opacity:1;fill-rule:nonzero;stroke:none"
         d="m 824.523,1106.84 v -59.23 c 0,-18.79 -15.234,-34.02 -34.023,-34.02 -18.793,0 -34.023,15.23 -34.023,34.02 v 59.23 h 68.046" /><path
         id="path406"
         style="fill:#cdbcbf;fill-opacity:1;fill-rule:nonzero;stroke:none"
         d="m 756.477,1106.84 v -59.23 c 0,-18.79 -15.239,-34.02 -34.028,-34.02 -18.789,0 -34.023,15.23 -34.023,34.02 v 59.23 h 68.051" /><path
         id="path408"
         style="fill:#f8f9f9;fill-opacity:1;fill-rule:nonzero;stroke:none"
         d="m 960.621,1106.84 -81.66,147.44 h 47.633 l 102.076,-147.44 h -68.049" /><path
         id="path410"
         style="fill:#f8f9f9;fill-opacity:1;fill-rule:nonzero;stroke:none"
         d="m 892.57,1106.84 -61.242,147.44 h -47.637 l 40.832,-147.44 h 68.047" /><path
         id="path412"
         style="fill:#f8f9f9;fill-opacity:1;fill-rule:nonzero;stroke:none"
         d="m 756.473,1106.84 h -68.047 v 147.44 h 47.633 l 20.414,-147.44" /><path
         id="path414"
         style="fill:#716b66;fill-opacity:1;fill-rule:nonzero;stroke:none"
         d="m 4833.23,1428.28 h 80.1016 v 167.301 H 4833.23 Z" /><path
         id="path416"
         style="fill:#f14556;fill-opacity:1;fill-rule:nonzero;stroke:none"
         d="m 3786.95,1149.41 h 1261.67 v 340.84 H 3786.95 Z" /><path
         id="path418"
         style="fill:#ee2a3f;fill-opacity:1;fill-rule:nonzero;stroke:none"
         d="m 3786.95,1149.41 h 1261.67 v 154.691 H 3786.95 Z" /><path
         id="path420"
         style="fill:#716b66;fill-opacity:1;fill-rule:nonzero;stroke:none"
         d="m 3786.95,1098.71 h 1261.67 v 50.6992 H 3786.95 Z" /><path
         id="path422"
         style="fill:#b5e4bf;fill-opacity:1;fill-rule:nonzero;stroke:none"
         d="m 3853.51,779.18 h 1128.56 v 319.531 H 3853.51 Z" /><path
         id="path424"
         style="fill:#4b8e9a;fill-opacity:1;fill-rule:nonzero;stroke:none"
         d="m 3946.84,865.199 h 106.648 v 98.3008 H 3946.84 Z" /><path
         id="path426"
         style="fill:#4b8e9a;fill-opacity:1;fill-rule:nonzero;stroke:none"
         d="m 4110.8,865.199 h 106.648 v 98.3008 H 4110.8 Z" /><path
         id="path428"
         style="fill:#4b8e9a;fill-opacity:1;fill-rule:nonzero;stroke:none"
         d="m 4274.76,865.199 h 106.648 v 98.3008 H 4274.76 Z" /><path
         id="path430"
         style="fill:#4b8e9a;fill-opacity:1;fill-rule:nonzero;stroke:none"
         d="m 4438.72,865.199 h 106.641 v 98.3008 H 4438.72 Z" /><path
         id="path432"
         style="fill:#716b66;fill-opacity:1;fill-rule:nonzero;stroke:none"
         d="m 4602.67,779.18 h 106.648 V 963.5 H 4602.67 Z" /><path
         id="path434"
         style="fill:#4b8e9a;fill-opacity:1;fill-rule:nonzero;stroke:none"
         d="m 4766.63,865.199 h 106.652 v 98.3008 H 4766.63 Z" /><path
         id="path436"
         style="fill:#4b8e9a;fill-opacity:1;fill-rule:nonzero;stroke:none"
         d="m 4287.35,1334.19 h -141.13 l -35.42,-73.92 h 211.96 l -35.41,73.92" /><path
         id="path438"
         style="fill:#4b8e9a;fill-opacity:1;fill-rule:nonzero;stroke:none"
         d="m 4673.91,1334.19 h -141.14 l -35.41,-73.92 h 211.96 l -35.41,73.92" /><path
         id="path440"
         style="fill:#3a7183;fill-opacity:1;fill-rule:nonzero;stroke:none"
         d="m 4110.8,1260.27 h 211.96 l -21,43.83 H 4131.8 l -21,-43.83" /><path
         id="path442"
         style="fill:#3a7183;fill-opacity:1;fill-rule:nonzero;stroke:none"
         d="m 4497.36,1260.27 h 211.96 l -21,43.83 h -169.96 l -21,-43.83" /><path
         id="path444"
         style="fill:#91b297;fill-opacity:1;fill-rule:nonzero;stroke:none"
         d="M 4982.07,779.18 H 4709.32 V 963.5 H 4602.67 V 779.18 h -323.96 l 86.02,86.019 h 16.68 v 16.672 l 57.31,57.309 v -73.981 h 106.64 V 963.5 h -82.32 l 135.21,135.21 h 383.82 V 779.18 M 4766.63,963.5 v -98.301 h 106.65 V 963.5 h -106.65" /><path
         id="path446"
         style="fill:#44767e;fill-opacity:1;fill-rule:nonzero;stroke:none"
         d="m 4381.41,865.199 h -16.68 l 16.68,16.672 v -16.672" /><path
         id="path448"
         style="fill:#44767e;fill-opacity:1;fill-rule:nonzero;stroke:none"
         d="m 4545.36,865.199 h -106.64 v 73.981 l 24.32,24.32 h 82.32 v -98.301" /><path
         id="path450"
         style="fill:#605a57;fill-opacity:1;fill-rule:nonzero;stroke:none"
         d="m 4602.67,779.18 h 106.648 V 963.5 H 4602.67 Z" /><path
         id="path452"
         style="fill:#44767e;fill-opacity:1;fill-rule:nonzero;stroke:none"
         d="m 4766.63,865.199 h 106.652 v 98.3008 H 4766.63 Z" /><path
         id="path454"
         style="fill:#9dce1f;fill-opacity:1;fill-rule:nonzero;stroke:none"
         d="m 2368.67,1123.86 c 0,-129.79 -78.78,-235.008 -175.97,-235.008 -97.19,0 -175.97,105.218 -175.97,235.008 0,129.78 78.78,235 175.97,235 97.19,0 175.97,-105.22 175.97,-235" /><path
         id="path456"
         style="fill:#77a62b;fill-opacity:1;fill-rule:nonzero;stroke:none"
         d="m 2368.67,1123.86 c 0,129.78 -78.78,235 -175.97,235 V 888.852 c 97.19,0 175.97,105.218 175.97,235.008" /><path
         id="path458"
         style="fill:#855a2f;fill-opacity:1;fill-rule:nonzero;stroke:none"
         d="M 2178.43,1064.83 2167.8,779.148 h 49.79 l -10.63,285.682 h -28.53" /><path
         id="path460"
         style="fill:#704323;fill-opacity:1;fill-rule:nonzero;stroke:none"
         d="M 2192.7,1064.83 V 779.148 h 24.89 l -10.63,285.682 h -14.26" /><path
         id="path462"
         style="fill:#716b66;fill-opacity:1;fill-rule:nonzero;stroke:none"
         d="m 1124.19,1063.85 h 1059.99 v 50.8672 H 1124.19 Z" /><path
         id="path464"
         style="fill:#fcd473;fill-opacity:1;fill-rule:nonzero;stroke:none"
         d="m 1182.17,779.18 h 944.027 v 284.672 H 1182.17 Z" /><path
         id="path466"
         style="fill:#4b8e9a;fill-opacity:1;fill-rule:nonzero;stroke:none"
         d="m 1283.79,854.059 h 124.941 v 115.16 H 1283.79 Z" /><path
         id="path468"
         style="fill:#4b8e9a;fill-opacity:1;fill-rule:nonzero;stroke:none"
         d="m 1694.36,854.059 h 124.941 v 115.16 H 1694.36 Z" /><path
         id="path470"
         style="fill:#4b8e9a;fill-opacity:1;fill-rule:nonzero;stroke:none"
         d="m 1899.65,854.059 h 124.941 v 115.16 H 1899.65 Z" /><path
         id="path472"
         style="fill:#f14556;fill-opacity:1;fill-rule:nonzero;stroke:none"
         d="m 1654.19,1749.35 -530,-299.74 h 1059.99 l -529.99,299.74" /><path
         id="path474"
         style="fill:#716b66;fill-opacity:1;fill-rule:nonzero;stroke:none"
         d="m 1124.19,1398.74 h 1059.99 v 50.8711 H 1124.19 Z" /><path
         id="path476"
         style="fill:#fcd473;fill-opacity:1;fill-rule:nonzero;stroke:none"
         d="m 1182.17,1114.72 h 944.027 V 1399.4 H 1182.17 Z" /><path
         id="path478"
         style="fill:#4b8e9a;fill-opacity:1;fill-rule:nonzero;stroke:none"
         d="m 1283.79,1189.6 h 124.941 v 115.16 H 1283.79 Z" /><path
         id="path480"
         style="fill:#4b8e9a;fill-opacity:1;fill-rule:nonzero;stroke:none"
         d="m 1489.07,1189.6 h 124.941 v 115.168 H 1489.07 Z" /><path
         id="path482"
         style="fill:#4b8e9a;fill-opacity:1;fill-rule:nonzero;stroke:none"
         d="m 1899.65,1189.6 h 124.941 v 115.168 H 1899.65 Z" /><path
         id="path484"
         style="fill:#4b8e9a;fill-opacity:1;fill-rule:nonzero;stroke:none"
         d="m 1694.36,1189.6 h 124.941 v 115.168 H 1694.36 Z" /><path
         id="path486"
         style="fill:#ee2a3f;fill-opacity:1;fill-rule:nonzero;stroke:none"
         d="m 1654.19,1749.35 v -299.74 h 529.99 l -529.99,299.74" /><path
         id="path488"
         style="fill:#4b8e9a;fill-opacity:1;fill-rule:nonzero;stroke:none"
         d="m 1614.01,1491 h 80.3477 v 74.0586 H 1614.01 Z" /><path
         id="path490"
         style="fill:#44767e;fill-opacity:1;fill-rule:nonzero;stroke:none"
         d="m 1654.18,1491 h 40.1797 v 74.0586 H 1654.18 Z" /><path
         id="path492"
         style="fill:#c6a562;fill-opacity:1;fill-rule:nonzero;stroke:none"
         d="m 2126.2,779.18 h -512.19 v 117.39 l 167.29,167.28 h 344.9 V 779.18 m -226.55,190.039 v -115.16 h 124.94 v 115.16 h -124.94 m -205.29,0 v -115.16 h 124.94 v 115.16 h -124.94" /><path
         id="path494"
         style="fill:#44767e;fill-opacity:1;fill-rule:nonzero;stroke:none"
         d="m 1694.36,854.059 h 124.941 v 115.16 H 1694.36 Z" /><path
         id="path496"
         style="fill:#44767e;fill-opacity:1;fill-rule:nonzero;stroke:none"
         d="m 1899.65,854.059 h 124.941 v 115.16 H 1899.65 Z" /><path
         id="path498"
         style="fill:#c6a562;fill-opacity:1;fill-rule:nonzero;stroke:none"
         d="m 2126.2,1114.72 h -629.58 l 74.88,74.88 h 42.51 v 42.51 l 167.29,167.29 h 344.9 v -284.68 m -226.55,190.05 V 1189.6 h 124.94 v 115.17 h -124.94 m -205.29,0 V 1189.6 h 124.94 v 115.17 h -124.94" /><path
         id="path500"
         style="fill:#44767e;fill-opacity:1;fill-rule:nonzero;stroke:none"
         d="m 1614.01,1189.6 h -42.51 l 42.51,42.51 v -42.51" /><path
         id="path502"
         style="fill:#44767e;fill-opacity:1;fill-rule:nonzero;stroke:none"
         d="m 1899.65,1189.6 h 124.941 v 115.168 H 1899.65 Z" /><path
         id="path504"
         style="fill:#44767e;fill-opacity:1;fill-rule:nonzero;stroke:none"
         d="m 1694.36,1189.6 h 124.941 v 115.168 H 1694.36 Z" /><path
         id="path506"
         style="fill:#716b66;fill-opacity:1;fill-rule:nonzero;stroke:none"
         d="m 1489.07,779.18 h 124.941 V 969.219 H 1489.07 Z" /><path
         id="path508"
         style="fill:#605a57;fill-opacity:1;fill-rule:nonzero;stroke:none"
         d="m 1614.01,779.18 h -62.47 v 190.039 h 62.47 V 779.18" /><path
         id="path510"
         style="fill:#855a2f;fill-opacity:1;fill-rule:nonzero;stroke:none"
         d="m 1021.47,889.879 -8.62,-110.699 h 40.39 l -8.62,110.699 h -23.15" /><path
         id="path512"
         style="fill:#704323;fill-opacity:1;fill-rule:nonzero;stroke:none"
         d="M 1033.05,889.879 V 779.18 h 20.19 l -8.62,110.699 h -11.57" /><path
         id="path514"
         style="fill:#9dce1f;fill-opacity:1;fill-rule:nonzero;stroke:none"
         d="M 920.555,854.621 1033.05,1337.13 1145.54,854.621 H 920.555" /><path
         id="path516"
         style="fill:#628c2c;fill-opacity:1;fill-rule:nonzero;stroke:none"
         d="M 1145.54,854.621 1033.05,1337.13 V 854.621 h 112.49" /><path
         id="path518"
         style="fill:#724722;fill-opacity:1;fill-rule:nonzero;stroke:none"
         d="M 4997,454.379 H 2651.52 c 948.55,0 910.17,-348.09 1496.84,-348.09 403.78,0 511.49,164.883 848.64,267.691 v 80.399" /><path
         id="path520"
         style="fill:#865a30;fill-opacity:1;fill-rule:nonzero;stroke:none"
         d="m 4997,454.379 h -848.64 v -348.09 c 403.78,0 511.49,164.883 848.64,267.691 v 80.399" /><path
         id="path522"
         style="fill:#724722;fill-opacity:1;fill-rule:nonzero;stroke:none"
         d="M 1406.68,454.379 H 342.848 V 415.988 C 846.824,325.492 921.812,106.289 1406.68,106.289 c 610.97,0 571,348.09 1558.84,348.09 H 1406.68" /><path
         id="path524"
         style="fill:#865a30;fill-opacity:1;fill-rule:nonzero;stroke:none"
         d="m 2965.52,454.379 c -987.84,0 -947.87,-348.09 -1558.84,-348.09 v 348.09 h 1558.84" /><path
         id="path526"
         style="fill:#724722;fill-opacity:1;fill-rule:nonzero;stroke:none"
         d="M 2716.19,0 C 2100.14,0 2140.44,472.391 1144.39,472.391 H 4288 C 3291.95,472.391 3332.25,0 2716.19,0" /><path
         id="path528"
         style="fill:#865a30;fill-opacity:1;fill-rule:nonzero;stroke:none"
         d="M 4288,472.391 C 3291.95,472.391 3332.25,0 2716.19,0 V 472.391 H 4288" /><path
         id="path530"
         style="fill:#c7e32f;fill-opacity:1;fill-rule:nonzero;stroke:none"
         d="m 5432.39,668.66 c 0,-61.031 -57.05,-110.512 -127.42,-110.512 H 127.414 C 57.0469,558.148 0,607.629 0,668.66 0,729.699 57.0469,779.18 127.414,779.18 H 5304.97 c 70.37,0 127.42,-49.481 127.42,-110.52" /><path
         id="path532"
         style="fill:#8bc425;fill-opacity:1;fill-rule:nonzero;stroke:none"
         d="M 127.414,558.148 H 5304.97 c 70.37,0 127.42,49.481 127.42,110.512 L 0,668.66 C 0,607.629 57.043,558.148 127.414,558.148" /><path
         id="path534"
         style="fill:#5caee4;fill-opacity:1;fill-rule:nonzero;stroke:none"
         d="m 2716.2,234.969 c -204.49,0 -315.74,30.031 -433.53,61.832 -108.8,29.371 -221.29,59.73 -426.58,74.859 h -95.81 C 1624.65,359.711 1546.09,338.512 1470.11,318 c -89.6,-24.18 -174.24,-47.02 -330.02,-47.02 -155.781,0 -240.414,22.84 -330.016,47.02 -75.988,20.512 -154.551,41.719 -290.207,53.66 H 195.461 c -54.801,0 -99.379,41.828 -99.379,93.242 0,51.418 44.578,93.246 99.379,93.246 H 5236.93 c 54.79,0 99.37,-41.828 99.37,-93.246 0,-51.414 -44.58,-93.242 -99.37,-93.242 H 5013.6 C 4878.05,359.711 4799.53,338.52 4723.57,318.02 4633.96,293.84 4549.32,271 4393.53,271 c -155.78,0 -240.41,22.84 -330.01,47.02 -75.95,20.5 -154.46,41.691 -289.98,53.64 H 3576.3 C 3371.01,356.531 3258.52,326.172 3149.72,296.801 3031.94,265 2920.68,234.969 2716.2,234.969" /><path
         id="path536"
         style="fill:#fdf4b6;fill-opacity:1;fill-rule:nonzero;stroke:none"
         d="m 2716.19,381.359 c 448.5,0 419.16,146.043 1144.3,146.043 H 1571.9 c 725.14,0 695.8,-146.043 1144.29,-146.043" /><path
         id="path538"
         style="fill:#fdf4b6;fill-opacity:1;fill-rule:nonzero;stroke:none"
         d="m 5135.77,558.148 c 0,-22.148 -20.7,-40.097 -46.23,-40.097 H 342.848 c -25.536,0 -46.235,17.949 -46.235,40.097 0,22.141 20.699,40.102 46.235,40.102 H 5089.54 c 25.53,0 46.23,-17.961 46.23,-40.102" /><path
         id="path540"
         style="fill:#fdf4b6;fill-opacity:1;fill-rule:nonzero;stroke:none"
         d="M 5052.78,527.402 H 3531.53 c 546.25,0 524.15,-110.011 862.01,-110.011 289.36,0 314.72,80.691 659.24,103.859 v 6.152" /><path
         id="path542"
         style="fill:#fdf4b6;fill-opacity:1;fill-rule:nonzero;stroke:none"
         d="M 1140.09,527.391 H 399.672 v -2.051 c 423.39,-15 429.828,-107.969 740.418,-107.969 337.85,0 315.75,110.02 862,110.02 h -862" /><path
         id="path544"
         style="fill:#ffffff;fill-opacity:1;fill-rule:nonzero;stroke:none"
         d="M 5089.54,598.25 H 342.848 c -25.536,0 -46.235,-17.961 -46.235,-40.102 H 5135.77 c 0,22.141 -20.7,40.102 -46.23,40.102" /><path
         id="path546"
         style="fill:#c7e32f;fill-opacity:1;fill-rule:nonzero;stroke:none"
         d="m 3757.03,834.73 -259.24,-0.89 c 0,0 -62.71,3.18 -62.95,72.648 -0.23,69.473 40.21,133.992 143.57,134.352 103.36,0.35 173.05,-64.36 198,-93.649 24.96,-29.281 47.83,-112.23 -19.38,-112.461" /><path
         id="path548"
         style="fill:#2e616f;fill-opacity:1;fill-rule:nonzero;stroke:none"
         d="m 3682.31,926.551 -146.31,-0.5 c 0,0 -35.38,1.238 -35.48,29.199 -0.09,27.961 22.77,53.96 81.1,54.16 58.33,0.2 97.62,-25.808 111.69,-37.59 14.06,-11.769 26.93,-45.14 -11,-45.269" /><path
         id="path550"
         style="fill:#f6dead;fill-opacity:1;fill-rule:nonzero;stroke:none"
         d="m 3818.97,842.199 c 0.02,-6.238 -6.52,-11.32 -14.61,-11.347 l -25.02,-0.082 c -8.1,-0.028 -14.67,5 -14.69,11.242 l -0.06,17.429 c -0.02,6.231 6.52,11.309 14.61,11.34 l 25.02,0.09 c 8.09,0.02 14.67,-5.012 14.69,-11.25 l 0.06,-17.422" /><path
         id="path552"
         style="fill:#89ae94;fill-opacity:1;fill-rule:nonzero;stroke:none"
         d="m 3497.79,833.84 c 0,0 -62.71,3.18 -62.95,72.648 v 0 c 0.24,-69.468 62.95,-72.648 62.95,-72.648 l 209.71,0.719 v 0 l -209.71,-0.719 m -62.95,72.922 c 0,0.019 0,0.039 0,0.058 0,-0.011 0,-0.039 0,-0.058 m 0,0.328 c 0,0 0,0 0,0.012 0,-0.012 0,-0.012 0,-0.012 m 0,0.269 c 0,0.032 0,0.051 0,0.082 0,-0.031 0,-0.05 0,-0.082 m 0,0.313 c 0,0.008 0,0.027 0,0.047 0,-0.02 0,-0.028 0,-0.047 m 0.01,0.289 c 0,0.031 0,0.07 0,0.098 0,-0.028 0,-0.067 0,-0.098 m 0,0.32 c 0,0.008 0,0.02 0,0.039 0,-0.019 0,-0.031 0,-0.039 m 0,0.289 c 0,0.032 0,0.059 0,0.09 0,-0.031 0,-0.058 0,-0.09 m 0,0.321 c 0,0.007 0,0.019 0,0.031 0,-0.012 0,-0.024 0,-0.031 m 0.01,0.289 c 0,0.031 0,0.062 0,0.09 0,-0.028 0,-0.059 0,-0.09 m 0,0.312 c 0,0.008 0,0.028 0,0.039 0,-0.019 0,-0.019 0,-0.039 m 0,0.289 c 0,0.028 0.01,0.059 0.01,0.09 0,-0.031 -0.01,-0.051 -0.01,-0.09 m 0.01,0.321 c 0,0.019 0,0.019 0,0.039 0,-0.012 0,-0.032 0,-0.039 m 0,0.296 c 0.01,0.024 0.01,0.051 0.01,0.082 0,-0.031 0,-0.058 -0.01,-0.082 m 0.01,0.301 c 0,0.02 0,0.031 0,0.043 0,-0.012 0,-0.031 0,-0.043 m 0.01,0.313 c 0,0.019 0,0.039 0,0.058 0,-0.019 0,-0.039 0,-0.058 m 0,0.328 v 0 m 0.01,0.289 c 0,0.012 0,0.019 0,0.031 0,-0.012 0,-0.019 0,-0.031 m 0.02,0.613 c 0,0 0,0.02 0,0.028 0,-0.008 0,-0.028 0,-0.028 m 0.02,0.598 c 0,0.012 0,0.019 0,0.031 0,-0.012 0,-0.019 0,-0.031" /><path
         id="path554"
         style="fill:#9eb234;fill-opacity:1;fill-rule:nonzero;stroke:none"
         d="m 3497.79,833.84 c 0,0 -62.71,3.18 -62.95,72.648 v 0 c 0,0.094 0,0.184 0,0.274 0,0.019 0,0.047 0,0.058 0,0.09 0,0.18 0,0.27 0,0 0,0 0,0.012 0,0.078 0,0.168 0,0.257 0,0.032 0,0.051 0,0.082 0,0.079 0,0.161 0,0.231 0,0.019 0,0.027 0,0.047 0,0.082 0.01,0.16 0.01,0.242 0,0.031 0,0.07 0,0.098 0,0.07 0,0.14 0,0.222 0,0.008 0,0.02 0,0.039 0,0.078 0,0.172 0,0.25 0,0.032 0,0.059 0,0.09 0,0.07 0,0.149 0,0.231 0,0.007 0,0.019 0,0.031 0,0.09 0.01,0.18 0.01,0.258 0,0.031 0,0.062 0,0.09 0,0.07 0,0.14 0,0.222 0,0.02 0,0.02 0,0.039 0,0.078 0,0.168 0,0.25 0,0.039 0.01,0.059 0.01,0.09 0,0.078 0,0.16 0,0.231 0,0.007 0,0.027 0,0.039 0,0.078 0,0.168 0,0.257 0.01,0.024 0.01,0.051 0.01,0.082 0,0.071 0,0.149 0,0.219 0,0.012 0,0.031 0,0.043 0,0.09 0,0.18 0.01,0.27 0,0.019 0,0.039 0,0.058 0,0.09 0,0.18 0,0.27 v 0 c 0.01,0.101 0.01,0.191 0.01,0.289 0,0.012 0,0.019 0,0.031 0.01,0.192 0.01,0.379 0.02,0.582 0,0 0,0.02 0,0.028 0.01,0.191 0.01,0.378 0.02,0.57 0,0.012 0,0.019 0,0.031 1.63,49.469 24.47,95.449 76.64,116.269 l 26.52,-26.33 c -26.54,-9.501 -37.65,-28.048 -37.58,-47.56 0.1,-27.961 35.48,-29.199 35.48,-29.199 l 79.11,0.269 92.39,-91.761 -209.71,-0.719" /><path
         id="path556"
         style="fill:#2c535d;fill-opacity:1;fill-rule:nonzero;stroke:none"
         d="m 3536,926.051 c 0,0 -35.38,1.238 -35.48,29.199 -0.07,19.512 11.04,38.059 37.58,47.56 l 77.01,-76.49 -79.11,-0.269" /><path
         id="path558"
         style="fill:#4b8e9a;fill-opacity:1;fill-rule:nonzero;stroke:none"
         d="m 3657.24,831.102 c 0.1,-28.25 23.08,-51.082 51.33,-50.981 28.25,0.098 51.07,23.078 50.97,51.328 -0.09,28.25 -23.07,51.071 -51.32,50.973 -28.25,-0.102 -51.08,-23.07 -50.98,-51.32" /><path
         id="path560"
         style="fill:#bbe8eb;fill-opacity:1;fill-rule:nonzero;stroke:none"
         d="m 3708.5,800.449 c 16.99,0.063 30.77,13.93 30.71,30.93 -0.06,16.992 -13.93,30.769 -30.92,30.711 -17,-0.059 -30.78,-13.93 -30.72,-30.93 0.06,-16.988 13.93,-30.769 30.93,-30.711" /><path
         id="path562"
         style="fill:#4b8e9a;fill-opacity:1;fill-rule:nonzero;stroke:none"
         d="m 3467.64,830.449 c 0.09,-28.25 23.07,-51.078 51.32,-50.98 28.25,0.101 51.08,23.082 50.98,51.332 -0.09,28.25 -23.08,51.07 -51.32,50.969 -28.26,-0.09 -51.08,-23.071 -50.98,-51.321" /><path
         id="path564"
         style="fill:#bbe8eb;fill-opacity:1;fill-rule:nonzero;stroke:none"
         d="m 3518.9,799.801 c 16.99,0.058 30.77,13.929 30.71,30.929 -0.06,16.989 -13.93,30.77 -30.92,30.711 -17,-0.062 -30.78,-13.929 -30.72,-30.921 0.06,-17 13.93,-30.778 30.93,-30.719" /><path
         id="path566"
         style="fill:#f6dead;fill-opacity:1;fill-rule:nonzero;stroke:none"
         d="m 3462.23,840.98 c 0.02,-6.238 -4.54,-11.308 -10.19,-11.332 l -17.49,-0.058 c -5.65,-0.02 -10.25,5.019 -10.27,11.262 l -0.06,17.418 c -0.02,6.242 4.55,11.312 10.2,11.332 l 17.48,0.058 c 5.65,0.02 10.25,-5.019 10.27,-11.262 l 0.06,-17.418" /><path
         id="path568"
         style="fill:#ffffff;fill-opacity:1;fill-rule:nonzero;stroke:none"
         d="m 4072.81,823.172 c -24.29,0 -43.99,-19.703 -43.99,-43.992 h 87.99 c 0,24.289 -19.7,43.992 -44,43.992" /><path
         id="path570"
         style="fill:#ffffff;fill-opacity:1;fill-rule:nonzero;stroke:none"
         d="m 2062.3,823.172 c -24.3,0 -43.99,-19.703 -43.99,-43.992 h 87.99 c 0,24.289 -19.7,43.992 -44,43.992" /><path
         id="path572"
         style="fill:#ffffff;fill-opacity:1;fill-rule:nonzero;stroke:none"
         d="m 479.82,823.172 c -24.297,0 -43.996,-19.703 -43.996,-43.992 h 87.992 c 0,24.289 -19.699,43.992 -43.996,43.992" /><path
         id="path574"
         style="fill:#ffffff;fill-opacity:1;fill-rule:nonzero;stroke:none"
         d="m 1265.58,810.02 c -17.03,0 -30.84,-13.809 -30.84,-30.84 h 61.68 c 0,17.031 -13.81,30.84 -30.84,30.84" /><path
         id="path576"
         style="fill:#ffffff;fill-opacity:1;fill-rule:nonzero;stroke:none"
         d="m 4833.23,810.02 c -17.04,0 -30.85,-13.809 -30.85,-30.84 h 61.69 c 0,17.031 -13.81,30.84 -30.84,30.84" /><path
         id="path578"
         style="fill:#fbcb9f;fill-opacity:1;fill-rule:nonzero;stroke:none"
         d="m 4254.82,2810.34 c -9.01,-0.79 -15.51,-9.13 -15.51,-18.17 v -13.88 c 0,-9.04 6.5,-17.38 15.51,-18.17 10.09,-0.88 18.55,7.06 18.55,16.97 v 16.29 c 0,9.91 -8.46,17.84 -18.55,16.96" /><path
         id="path580"
         style="fill:#fbcb9f;fill-opacity:1;fill-rule:nonzero;stroke:none"
         d="m 4254.82,2475.63 c -9.01,-0.78 -15.51,-9.13 -15.51,-18.17 v -13.87 c 0,-9.05 6.5,-17.39 15.51,-18.18 10.09,-0.87 18.55,7.05 18.55,16.97 v 16.29 c 0,9.91 -8.46,17.84 -18.55,16.96" /><path
         id="path582"
         style="fill:#fbcb9f;fill-opacity:1;fill-rule:nonzero;stroke:none"
         d="m 4097.13,2634.91 h -15.08 c -9.05,0 -17.39,-6.5 -18.17,-15.51 -0.88,-10.09 7.05,-18.56 16.96,-18.56 h 15.09 c 9.04,0 17.39,6.5 18.17,15.51 0.88,10.09 -7.06,18.56 -16.97,18.56" /><path
         id="path584"
         style="fill:#fbcb9f;fill-opacity:1;fill-rule:nonzero;stroke:none"
         d="m 4431.84,2634.91 h -15.08 c -9.05,0 -17.39,-6.5 -18.17,-15.51 -0.88,-10.09 7.05,-18.56 16.96,-18.56 h 15.08 c 9.05,0 17.39,6.5 18.18,15.51 0.88,10.09 -7.06,18.56 -16.97,18.56" /><path
         id="path586"
         style="fill:#fbcb9f;fill-opacity:1;fill-rule:nonzero;stroke:none"
         d="m 4144.29,2754.02 c -7.01,7 -18.6,6.63 -25.12,-1.13 -5.82,-6.93 -4.51,-17.42 1.89,-23.82 l 9.81,-9.8 c 6.39,-6.4 16.89,-7.71 23.81,-1.89 7.76,6.51 8.14,18.11 1.13,25.12 l -11.52,11.52" /><path
         id="path588"
         style="fill:#fbcb9f;fill-opacity:1;fill-rule:nonzero;stroke:none"
         d="m 4380.96,2517.34 c -7,7.01 -18.6,6.63 -25.11,-1.13 -5.82,-6.92 -4.51,-17.41 1.88,-23.81 l 9.82,-9.81 c 6.39,-6.4 16.88,-7.7 23.81,-1.89 7.76,6.52 8.13,18.12 1.12,25.12 l -11.52,11.52" /><path
         id="path590"
         style="fill:#fbcb9f;fill-opacity:1;fill-rule:nonzero;stroke:none"
         d="m 4368.4,2754.02 -10.67,-10.67 c -6.39,-6.39 -7.7,-16.89 -1.88,-23.81 6.51,-7.76 18.11,-8.14 25.11,-1.13 l 10.67,10.67 c 6.4,6.39 7.7,16.88 1.89,23.81 -6.52,7.76 -18.12,8.13 -25.12,1.13" /><path
         id="path592"
         style="fill:#fbcb9f;fill-opacity:1;fill-rule:nonzero;stroke:none"
         d="m 4131.72,2517.34 -10.67,-10.66 c -6.39,-6.4 -7.7,-16.89 -1.88,-23.82 6.52,-7.75 18.11,-8.13 25.12,-1.13 l 10.67,10.67 c 6.39,6.4 7.7,16.89 1.88,23.82 -6.52,7.75 -18.11,8.13 -25.12,1.12" /><path
         id="path594"
         style="fill:#fab66f;fill-opacity:1;fill-rule:nonzero;stroke:none"
         d="m 4256.34,2742 v -248.24 l 0.29,-0.29 c 68.58,0.16 124.12,55.8 124.12,124.41 0,68.61 -55.54,124.24 -124.12,124.4 l -0.29,-0.28" /><path
         id="path596"
         style="fill:#fbcb9f;fill-opacity:1;fill-rule:nonzero;stroke:none"
         d="m 4131.94,2617.88 c 0,-68.61 55.54,-124.25 124.12,-124.41 l 0.28,0.29 V 2742 l -0.28,0.28 c -68.58,-0.16 -124.12,-55.79 -124.12,-124.4" /></g></g></svg>