<?xml version="1.0" encoding="UTF-8" standalone="no"?>
<svg
   xmlns:dc="http://purl.org/dc/elements/1.1/"
   xmlns:cc="http://creativecommons.org/ns#"
   xmlns:rdf="http://www.w3.org/1999/02/22-rdf-syntax-ns#"
   xmlns:svg="http://www.w3.org/2000/svg"
   xmlns="http://www.w3.org/2000/svg"
   viewBox="0 0 676.01331 676"
   height="676"
   width="676.01331"
   xml:space="preserve"
   id="svg2"
   version="1.1"><metadata
     id="metadata8"><rdf:RDF><cc:Work
         rdf:about=""><dc:format>image/svg+xml</dc:format><dc:type
           rdf:resource="http://purl.org/dc/dcmitype/StillImage" /></cc:Work></rdf:RDF></metadata><defs
     id="defs6" /><g
     transform="matrix(1.3333333,0,0,-1.3333333,0,676)"
     id="g10"><g
       transform="scale(0.1)"
       id="g12"><path
         id="path14"
         style="fill:#2d3c99;fill-opacity:1;fill-rule:nonzero;stroke:none"
         d="M 43.4531,5000.02 H 5070.13" /><path
         id="path16"
         style="fill:#e73833;fill-opacity:1;fill-rule:nonzero;stroke:none"
         d="M 0,0 H 5070 V 5070.02 H 0 Z" /><path
         id="path18"
         style="fill:#e73833;fill-opacity:1;fill-rule:nonzero;stroke:none"
         d="M 5070.13,0.0390625 H 5070 V 2469 l 0.13,-0.12 V 0.0390625" /><path
         id="path20"
         style="fill:#dd2127;fill-opacity:1;fill-rule:nonzero;stroke:none"
         d="M 5070,0.0390625 H 2593.12 L 1682.74,910.41 c -15.02,15.031 -28,32.039 -38.55,50.59 40.8,-71.398 117.75,-119.781 205.44,-119.781 h 1370.8 c 129.91,0 236.35,106.332 236.35,236.351 v 2914.88 c 0,46.74 -13.76,90.43 -37.42,127.21 L 5070,2469 V 0 M 3225.22,4228.75 c -0.05,0 -0.1,0 -0.15,0.01 0.05,0 0.1,-0.01 0.15,-0.01 m -0.3,0.01 c -1.36,0.03 -2.73,0.04 -4.1,0.04 1.37,0 2.74,-0.01 4.1,-0.04 m -4.12,0.04 c -0.12,0 -0.24,0 -0.37,0 H 1849.68 3220.45 c 0.12,0 0.24,0 0.35,0" /><path
         id="path22"
         style="fill:#26285e;fill-opacity:1;fill-rule:nonzero;stroke:none"
         d="m 1849.63,841.219 c -129.99,0 -236.39,106.332 -236.39,236.351 v 2914.88 c 0,130.02 106.4,236.35 236.39,236.35 h 1370.8 c 129.91,0 236.35,-106.33 236.35,-236.35 V 1077.57 c 0,-130.019 -106.44,-236.351 -236.35,-236.351 h -1370.8" /><path
         id="path24"
         style="fill:#2d3e98;fill-opacity:1;fill-rule:nonzero;stroke:none"
         d="m 2330.41,1029.06 h 409.23 v 136.363 h -409.23 z" /><path
         id="path26"
         style="fill:#fafafa;fill-opacity:1;fill-rule:nonzero;stroke:none"
         d="M 1747.18,1353.3 H 3322.85 V 3716.72 H 1747.18 Z" /><path
         id="path28"
         style="fill:#2d3e98;fill-opacity:1;fill-rule:nonzero;stroke:none"
         d="m 2603.21,3972.78 c 0,-37.64 -30.54,-68.18 -68.18,-68.18 -37.64,0 -68.18,30.54 -68.18,68.18 0,37.71 30.54,68.22 68.18,68.22 37.64,0 68.18,-30.51 68.18,-68.22" /><path
         id="path30"
         style="fill:#2d3c99;fill-opacity:1;fill-rule:nonzero;stroke:none"
         d="m 1986.28,1911.76 h 139.48 v 102.598 h -139.48 z" /><path
         id="path32"
         style="fill:#e73833;fill-opacity:1;fill-rule:nonzero;stroke:none"
         d="m 2225.75,1911.76 h 139.512 v 276.09 H 2225.75 Z" /><path
         id="path34"
         style="fill:#e73833;fill-opacity:1;fill-rule:nonzero;stroke:none"
         d="m 2465.21,1911.76 h 139.52 v 200.297 h -139.52 z" /><path
         id="path36"
         style="fill:#e73833;fill-opacity:1;fill-rule:nonzero;stroke:none"
         d="m 2704.76,1911.76 h 139.508 v 411.949 H 2704.76 Z" /><path
         id="path38"
         style="fill:#e73833;fill-opacity:1;fill-rule:nonzero;stroke:none"
         d="m 2944.26,1911.76 h 139.52 v 351.559 h -139.52 z" /><path
         id="path40"
         style="fill:#f35b5a;fill-opacity:1;fill-rule:nonzero;stroke:none"
         d="m 1986.28,1911.76 h 139.48 v 24.1992 h -139.48 z" /><path
         id="path42"
         style="fill:#f35b5a;fill-opacity:1;fill-rule:nonzero;stroke:none"
         d="m 2225.75,1911.76 h 139.512 v 65.0273 H 2225.75 Z" /><path
         id="path44"
         style="fill:#f35b5a;fill-opacity:1;fill-rule:nonzero;stroke:none"
         d="m 2465.21,1911.76 h 139.52 v 47.168 h -139.52 z" /><path
         id="path46"
         style="fill:#f35b5a;fill-opacity:1;fill-rule:nonzero;stroke:none"
         d="m 2704.76,1911.76 h 139.508 v 97.0469 H 2704.76 Z" /><path
         id="path48"
         style="fill:#f35b5a;fill-opacity:1;fill-rule:nonzero;stroke:none"
         d="m 2944.26,1911.76 h 139.52 v 82.8203 h -139.52 z" /><path
         id="path50"
         style="fill:#2d3c99;fill-opacity:1;fill-rule:nonzero;stroke:none"
         d="m 1986.28,2014.36 h 139.48 v 41.8008 h -139.48 z" /><path
         id="path52"
         style="fill:#2d3c99;fill-opacity:1;fill-rule:nonzero;stroke:none"
         d="m 2225.75,2187.85 h 139.512 v 129.988 H 2225.75 Z" /><path
         id="path54"
         style="fill:#2d3c99;fill-opacity:1;fill-rule:nonzero;stroke:none"
         d="m 2465.21,2112.06 h 139.52 v 26.6719 h -139.52 z" /><path
         id="path56"
         style="fill:#2d3c99;fill-opacity:1;fill-rule:nonzero;stroke:none"
         d="m 2704.76,2323.71 h 139.508 v 61.7695 H 2704.76 Z" /><path
         id="path58"
         style="fill:#2d3c99;fill-opacity:1;fill-rule:nonzero;stroke:none"
         d="m 2944.26,2263.32 h 139.52 v 159.578 h -139.52 z" /><path
         id="path60"
         style="fill:#2c2b2a;fill-opacity:1;fill-rule:nonzero;stroke:none"
         d="m 1986.28,1827.28 h 1097.5 v 38 h -1097.5 z" /><path
         id="path62"
         style="fill:#e73833;fill-opacity:1;fill-rule:nonzero;stroke:none"
         d="m 2534.99,2911.55 -236.82,-292.47 c -161.51,130.78 -186.47,367.71 -55.65,529.22 73.51,90.79 175.67,139.55 292.47,139.55 v -376.3" /><path
         id="path64"
         style="fill:#f35b5a;fill-opacity:1;fill-rule:nonzero;stroke:none"
         d="m 2534.99,2911.55 -32.78,-374.93 c -77.68,6.81 -143.47,33.37 -204.04,82.46 l 236.82,292.47" /><path
         id="path66"
         style="fill:#2d3c99;fill-opacity:1;fill-rule:nonzero;stroke:none"
         d="m 2534.99,2911.55 335.29,170.81 c 94.38,-185.2 20.73,-411.8 -164.47,-506.18 -65.5,-33.4 -130.32,-45.93 -203.6,-39.56 l 32.78,374.93" /><path
         id="path68"
         style="fill:#26285e;fill-opacity:1;fill-rule:nonzero;stroke:none"
         d="m 2534.99,2911.55 v 376.3 c 147.16,0 268.49,-74.41 335.29,-205.49 l -335.29,-170.81" /><path
         id="path70"
         style="fill:#26285e;fill-opacity:1;fill-rule:nonzero;stroke:none"
         d="m 1812.64,3446.09 h 1444.78 v 190.379 H 1812.64 Z" /><path
         id="path72"
         style="fill:#2d3e98;fill-opacity:1;fill-rule:nonzero;stroke:none"
         d="m 1813.25,1646.61 h 1173.44 v 73.6523 H 1813.25 Z" /><path
         id="path74"
         style="fill:#2d3e98;fill-opacity:1;fill-rule:nonzero;stroke:none"
         d="m 3041.06,1646.61 h 215.742 v 73.6523 H 3041.06 Z" /><path
         id="path76"
         style="fill:#2d3e98;fill-opacity:1;fill-rule:nonzero;stroke:none"
         d="m 1986.9,1508.36 h 716.371 v 73.6523 H 1986.9 Z" /><path
         id="path78"
         style="fill:#2d3e98;fill-opacity:1;fill-rule:nonzero;stroke:none"
         d="m 1813.25,1508.36 h 115.031 v 73.6523 H 1813.25 Z" /><path
         id="path80"
         style="fill:#2d3e98;fill-opacity:1;fill-rule:nonzero;stroke:none"
         d="m 2787.21,1508.36 h 469.59 v 73.6523 h -469.59 z" /><path
         id="path82"
         style="fill:#272c69;fill-opacity:1;fill-rule:nonzero;stroke:none"
         d="m 2535.03,841.219 h -685.4 c -129.99,0 -236.39,106.332 -236.39,236.351 v 2914.88 c 0,130.02 106.4,236.35 236.39,236.35 h 685.4 V 4041 c -37.64,0 -68.18,-30.51 -68.18,-68.22 0,-37.64 30.54,-68.18 68.18,-68.18 V 3716.72 H 1747.18 V 1353.3 h 787.85 v -187.88 h -204.62 v -136.36 h 204.62 V 841.219" /><path
         id="path84"
         style="fill:#2c419b;fill-opacity:1;fill-rule:nonzero;stroke:none"
         d="m 2330.41,1029.06 h 204.621 v 136.363 H 2330.41 Z" /><path
         id="path86"
         style="fill:#2c419b;fill-opacity:1;fill-rule:nonzero;stroke:none"
         d="m 2535.03,3904.6 c -37.64,0 -68.18,30.54 -68.18,68.18 0,37.71 30.54,68.22 68.18,68.22 v -136.4" /></g></g></svg>