<?xml version="1.0" encoding="UTF-8" standalone="no"?>
<svg
   xmlns:dc="http://purl.org/dc/elements/1.1/"
   xmlns:cc="http://creativecommons.org/ns#"
   xmlns:rdf="http://www.w3.org/1999/02/22-rdf-syntax-ns#"
   xmlns:svg="http://www.w3.org/2000/svg"
   xmlns="http://www.w3.org/2000/svg"
   viewBox="0 0 686.4267 665.54669"
   height="665.54669"
   width="686.4267"
   xml:space="preserve"
   id="svg2"
   version="1.1"><metadata
     id="metadata8"><rdf:RDF><cc:Work
         rdf:about=""><dc:format>image/svg+xml</dc:format><dc:type
           rdf:resource="http://purl.org/dc/dcmitype/StillImage" /></cc:Work></rdf:RDF></metadata><defs
     id="defs6"><clipPath
       id="clipPath20"
       clipPathUnits="userSpaceOnUse"><path
         id="path18"
         d="M 0,0 H 5148 V 4991.56 H 0 Z" /></clipPath></defs><g
     transform="matrix(1.3333333,0,0,-1.3333333,0,665.54667)"
     id="g10"><g
       transform="scale(0.1)"
       id="g12"><g
         id="g14"><g
           clip-path="url(#clipPath20)"
           id="g16"><path
             id="path22"
             style="fill:#2d3c99;fill-opacity:1;fill-rule:nonzero;stroke:none"
             d="M 0,0 26.1211,4991.56 H 5102.04 L 5112.04,0 H 0" /><path
             id="path24"
             style="fill:#2d3c99;fill-opacity:1;fill-rule:nonzero;stroke:none"
             d="M 5148.17,0 H 3778 5112.04 l -4.28,2138.45 c 1.43,-1.38 2.86,-2.76 4.28,-4.14 L 5148.17,0" /><path
             id="path26"
             style="fill:#2e328f;fill-opacity:1;fill-rule:nonzero;stroke:none"
             d="M 5112.04,0 H 3778 c -935.3,905.832 -2003.2,1940.09 -2003.54,1940.41 -10.51,10.17 -15.78,23.56 -15.78,36.97 v 40.38 c -0.75,0.72 -360.13,349.92 -361.06,350.94 -3.02,3.29 -4.35,7.38 -4.56,11.47 l -0.46,0.92 c -1.36,0.99 -29,27.26 -30.09,28.63 -3.65,4.67 -4.43,10.38 -3.14,15.69 -0.81,0.83 -27.52,26.08 -28.7,27.78 -3.92,5.84 -3.81,12.88 -0.79,18.69 -1.66,1.06 -26.32,24.63 -27.82,27.29 -3.87,6.72 -2.87,14.89 1.86,20.59 -1.08,0.93 -25.31,24.25 -26.8,27.42 -3.75,7.76 -1.08,16.63 5.49,21.92 -0.93,0.83 -25.47,24.53 -26.83,28.12 -3.37,8.93 1,18.68 9.6,22.83 -0.81,0.8 -25.74,25.01 -26.95,29.06 -2.84,9.93 3.13,20.25 13.31,23.07 l 0.67,0.17 c -0.85,0.81 -26.3,25.78 -27.27,30.37 -2.04,10.01 4.78,19.93 15.15,21.95 l 3.75,0.72 -2.11,2.41 c -1.73,1.14 -16.14,15.27 -17.42,16.86 -4.43,2.95 -7.69,7.49 -8.35,13.04 -1.33,10.2 6.33,19.5 16.83,20.76 l 7.46,0.86 c -1.23,0.99 -19.38,18.73 -20.61,20.43 -4.72,3.24 -8.07,8.25 -8.31,14.26 -0.45,10.23 7.91,18.97 18.51,19.41 l 11.83,0.45 -0.33,0.52 c -1.72,1.2 -20.67,19.52 -21.88,21.21 -5.02,3.55 -8.4,9.08 -8.13,15.51 0.41,9.96 8.96,17.9 19.17,17.9 0.28,0 0.56,-0.01 0.84,-0.02 l 14.7,-0.54 -0.42,0.81 c -1.69,1.23 -3.2,2.59 -4.4,4.27 -1.66,1.23 -16.24,15.23 -17.42,16.84 -5.37,3.86 -8.75,10.11 -7.84,16.96 1.11,9.54 9.49,16.52 19.08,16.52 0.76,0 1.52,-0.04 2.28,-0.13 l 18.08,-2.06 -0.42,0.4 c -1.72,1.13 -20.56,19.56 -21.82,21.17 -6.26,4.1 -9.75,11.57 -8.22,19.18 1.86,8.82 9.93,14.97 18.93,14.97 1.24,0 2.49,-0.11 3.75,-0.35 l 21.6,-4.18 -1.48,1.72 c -1.74,1.17 -20.61,19.55 -21.84,21.14 -6.56,4.42 -9.94,12.35 -7.67,20.23 2.43,8.18 10.18,13.6 18.6,13.6 1.72,0 3.47,-0.23 5.21,-0.7 l 25.63,-7.02 c -1.26,1.02 -23.76,23.02 -25,24.68 -6.85,4.75 -10.13,13.34 -7.09,21.33 2.86,7.56 10.28,12.25 18.15,12.25 2.18,0 4.4,-0.36 6.57,-1.13 l 30.37,-10.82 -1.21,1.87 c -1.72,1.24 -25,23.73 -26.17,25.37 -7.22,5.09 -10.26,14.33 -6.37,22.51 3.21,6.86 10.22,10.93 17.53,10.93 2.69,0 5.42,-0.55 8.01,-1.71 l 37.37,-16.55 -1.88,2.17 c -1.68,1.24 -29.45,27.99 -30.62,29.63 -7.47,5.53 -10.12,15.42 -5.47,23.63 3.5,6.1 10.12,9.58 16.92,9.58 3.15,0 6.34,-0.75 9.28,-2.33 l 46.97,-25.12 -0.83,0.79 c -1.69,1.26 -38.21,36.48 -39.33,38.1 -7.81,5.9 -9.93,16.68 -4.4,24.82 3.68,5.48 9.86,8.45 16.14,8.45 3.61,0 7.26,-0.98 10.48,-3.04 l 61.14,-38.8 c -1.38,1.1 -52.36,50.72 -52.36,50.72 -8.38,6.23 -9.99,18.11 -3.56,26.23 3.79,4.76 9.52,7.26 15.3,7.26 4.11,0 8.26,-1.27 11.75,-3.88 l 76.46,-56.9 c 1.1,-0.81 1.8,-1.96 2.68,-3 0,0 55.9,-53.96 56.77,-54.98 l 1.67,-1.24 1.27,-1.36 1.86,1.66 -0.14,0.13 -1.03,1.34 -60.13,57.85 -1.09,1.42 -68.75,66.27 c -7.91,6.9 -8.55,18.74 -1.51,26.39 3.8,4.11 9.07,6.19 14.37,6.19 4.58,0 9.18,-1.56 12.85,-4.72 l 71.9,-62.19 1.03,-1.35 64.47,-62.09 1.02,-1.33 0.37,-0.35 c 0.2,3.48 0.33,7 0.66,10.41 l -0.51,0.55 -0.48,0.31 -60.73,58.97 -0.43,0.26 -66.85,67.33 c -7.33,7.33 -7.19,19.21 0.51,26.35 3.72,3.47 8.56,5.2 13.4,5.2 5.05,0 10.1,-1.88 13.86,-5.64 l 3.79,-3.83 65.51,-63.44 0.57,-0.39 38.81,-37.78 0.34,-0.19 c 0.55,2.15 1.42,4.24 2.02,6.41 l -1.14,1.34 -32.84,31.4 -2.15,2.5 -2.23,1.73 -61.51,71.92 c -6.83,7.86 -5.68,19.67 2.53,26.23 3.58,2.89 7.96,4.3 12.31,4.3 5.56,0 11.08,-2.3 14.88,-6.76 l 61.12,-59.22 2.06,-2.41 1.14,-0.87 -52.45,71.41 c -6.07,8.4 -4.01,20.09 4.59,26.05 3.37,2.34 7.27,3.46 11.13,3.46 6.06,0 12.03,-2.76 15.73,-7.91 l 0.48,-0.63 c 1.36,-1.07 42.1,-40.21 43.16,-41.67 l 0.46,-0.6 0.9,-0.84 -32.26,51.83 c -5.47,8.87 -2.48,20.35 6.58,25.69 3.01,1.76 6.3,2.58 9.57,2.58 5.87,0 11.63,-2.67 15.42,-7.42 1.69,-1.09 20.55,-19.55 21.86,-21.17 l 0.62,-0.28 105.11,45.01 c 27.52,47.5 61.57,92.44 103.28,132.87 122.68,118.73 283.34,178.12 444.07,178.12 h 884.84 c 160.7,0 321.43,-59.39 444.01,-178.12 l 2.01,-2.17 c 0.27,-0.24 732.87,-709.83 1510.38,-1462.94 L 5112.04,0" /><path
             id="path28"
             style="fill:#ffffff;fill-opacity:1;fill-rule:nonzero;stroke:none"
             d="m 2534.34,1371.84 h -41.28" /><path
             id="path30"
             style="fill:#32435b;fill-opacity:1;fill-rule:nonzero;stroke:none"
             d="m 1925.84,2150.05 c 0,-10.23 8.71,-18.63 19.29,-18.63 10.62,0 19.22,8.4 19.22,18.63 v 93.39 c 0,10.25 -8.6,18.71 -19.22,18.71 -10.58,0 -19.29,-8.46 -19.29,-18.71 v -93.39" /><path
             id="path32"
             style="fill:#32435b;fill-opacity:1;fill-rule:nonzero;stroke:none"
             d="m 1868.7,2153.77 c -0.78,-10.3 7.15,-19.27 17.72,-20.12 10.55,-0.81 19.91,6.94 20.67,17.17 l 7.7,93.08 c 0.85,10.23 -7.19,19.27 -17.75,20.02 -10.57,0.86 -19.92,-6.84 -20.71,-17.05 l -7.63,-93.1" /><path
             id="path34"
             style="fill:#32435b;fill-opacity:1;fill-rule:nonzero;stroke:none"
             d="m 1812.96,2161.64 c -1.67,-10.15 5.54,-19.76 15.98,-21.37 10.51,-1.61 20.38,5.4 22.1,15.54 l 15.09,92.19 c 1.72,10.14 -5.5,19.8 -16,21.41 -10.46,1.56 -20.37,-5.44 -22.03,-15.58 l -15.14,-92.19" /><path
             id="path36"
             style="fill:#32435b;fill-opacity:1;fill-rule:nonzero;stroke:none"
             d="m 1758.68,2173.68 c -2.5,-10.06 3.87,-20.2 14.24,-22.57 10.24,-2.38 20.71,3.82 23.21,13.77 l 22.55,90.82 c 2.48,9.98 -3.95,20.11 -14.25,22.47 -10.34,2.46 -20.8,-3.74 -23.24,-13.79 l -22.51,-90.7" /><path
             id="path38"
             style="fill:#e73833;fill-opacity:1;fill-rule:nonzero;stroke:none"
             d="m 1706,2189.52 c -3.26,-9.75 2.32,-20.35 12.41,-23.51 10.05,-3.25 21.01,2.2 24.27,11.94 l 29.76,88.87 c 3.23,9.74 -2.23,20.36 -12.44,23.47 -10.05,3.17 -21.01,-2.18 -24.23,-12 L 1706,2189.52" /><path
             id="path40"
             style="fill:#e73833;fill-opacity:1;fill-rule:nonzero;stroke:none"
             d="m 1655.3,2209.08 c -4.08,-9.46 0.63,-20.46 10.47,-24.37 9.78,-3.91 21.13,0.69 25.17,10.16 l 36.74,86.33 c 3.95,9.54 -0.76,20.49 -10.51,24.36 -9.83,3.95 -21.21,-0.62 -25.17,-10.14 l -36.7,-86.34" /><path
             id="path42"
             style="fill:#e73833;fill-opacity:1;fill-rule:nonzero;stroke:none"
             d="m 1606.55,2232.26 c -4.77,-9.21 -0.97,-20.46 8.52,-25.07 9.47,-4.66 21.15,-0.91 25.93,8.24 l 43.37,83.4 c 4.73,9.15 0.93,20.44 -8.55,25.03 -9.45,4.62 -21.1,0.91 -25.86,-8.24 l -43.41,-83.36" /><path
             id="path44"
             style="fill:#e73833;fill-opacity:1;fill-rule:nonzero;stroke:none"
             d="m 1560.01,2258.73 c -5.47,-8.74 -2.48,-20.31 6.58,-25.57 9.05,-5.38 20.98,-2.49 26.44,6.28 l 49.78,79.94 c 5.48,8.87 2.53,20.37 -6.5,25.68 -9.17,5.29 -21.01,2.43 -26.53,-6.37 l -49.77,-79.96" /><path
             id="path46"
             style="fill:#e73833;fill-opacity:1;fill-rule:nonzero;stroke:none"
             d="m 1515.82,2288.42 c -6.07,-8.37 -4.01,-20.03 4.59,-26.04 8.66,-5.93 20.79,-3.94 26.86,4.44 l 55.84,76.14 c 6.1,8.37 4.07,20.05 -4.53,26.05 -8.69,5.9 -20.83,3.92 -26.87,-4.45 l -55.89,-76.14" /><path
             id="path48"
             style="fill:#e73833;fill-opacity:1;fill-rule:nonzero;stroke:none"
             d="m 1474.23,2321.2 c -6.82,-7.94 -5.68,-19.77 2.53,-26.32 8.16,-6.55 20.41,-5.48 27.19,2.47 l 61.49,71.83 c 6.79,7.99 5.65,19.79 -2.57,26.34 -8.11,6.55 -20.37,5.43 -27.13,-2.46 l -61.51,-71.86" /><path
             id="path50"
             style="fill:#e73833;fill-opacity:1;fill-rule:nonzero;stroke:none"
             d="m 1435.29,2356.81 c -7.33,-7.46 -7.19,-19.32 0.51,-26.43 7.6,-7.12 19.9,-6.92 27.26,0.51 l 66.82,67.21 c 7.37,7.35 7.19,19.29 -0.48,26.43 -7.61,7.09 -19.92,6.87 -27.26,-0.53 l -66.85,-67.19" /><path
             id="path52"
             style="fill:#e73833;fill-opacity:1;fill-rule:nonzero;stroke:none"
             d="m 1399.13,2395.05 c -7.91,-6.79 -8.55,-18.69 -1.51,-26.35 7.12,-7.65 19.32,-8.32 27.22,-1.51 l 71.9,62.3 c 7.88,6.82 8.54,18.7 1.51,26.41 -7.12,7.57 -19.35,8.28 -27.22,1.37 l -71.9,-62.22" /><path
             id="path54"
             style="fill:#e73833;fill-opacity:1;fill-rule:nonzero;stroke:none"
             d="m 1366.07,2435.86 c -8.38,-6.23 -9.99,-17.96 -3.56,-26.14 6.49,-8.15 18.66,-9.66 27.05,-3.44 l 76.45,56.91 c 8.4,6.21 10.08,17.96 3.53,26.11 -6.46,8.18 -18.59,9.69 -26.98,3.46 l -76.49,-56.9" /><path
             id="path56"
             style="fill:#e73833;fill-opacity:1;fill-rule:nonzero;stroke:none"
             d="m 1336.17,2479.05 c -8.88,-5.61 -11.33,-17.22 -5.5,-25.86 5.8,-8.5 17.8,-10.95 26.62,-5.34 l 80.65,51.14 c 8.91,5.63 11.41,17.28 5.58,25.87 -5.85,8.6 -17.8,11.02 -26.71,5.41 l -80.64,-51.22" /><path
             id="path58"
             style="fill:#e73833;fill-opacity:1;fill-rule:nonzero;stroke:none"
             d="m 1309.69,2524.48 c -9.36,-4.94 -12.76,-16.4 -7.63,-25.31 5.13,-9.04 16.93,-12.34 26.2,-7.4 l 84.41,45.16 c 9.21,5.01 12.69,16.4 7.53,25.4 -5.14,8.99 -16.91,12.29 -26.24,7.3 l -84.27,-45.15" /><path
             id="path60"
             style="fill:#e73833;fill-opacity:1;fill-rule:nonzero;stroke:none"
             d="m 1286.63,2571.94 c -9.69,-4.32 -13.97,-15.46 -9.51,-24.76 4.38,-9.34 15.88,-13.52 25.54,-9.21 l 87.62,38.77 c 9.7,4.32 13.98,15.49 9.54,24.77 -4.41,9.34 -15.91,13.45 -25.51,9.21 l -87.68,-38.78" /><path
             id="path62"
             style="fill:#e73833;fill-opacity:1;fill-rule:nonzero;stroke:none"
             d="m 1267.25,2621.18 c -9.99,-3.49 -15.11,-14.33 -11.47,-23.96 3.66,-9.64 14.76,-14.62 24.72,-11.05 l 90.59,32.19 c 9.86,3.54 15,14.28 11.38,23.94 -3.66,9.7 -14.79,14.68 -24.76,11.13 l -90.46,-32.25" /><path
             id="path64"
             style="fill:#e73833;fill-opacity:1;fill-rule:nonzero;stroke:none"
             d="m 1251.74,2672.18 c -10.18,-2.83 -16.15,-13.14 -13.31,-23.07 2.93,-9.88 13.58,-15.67 23.78,-12.88 l 92.79,25.35 c 10.18,2.74 16.21,13.18 13.34,23 -2.9,9.95 -13.55,15.73 -23.82,12.98 l -92.78,-25.38" /><path
             id="path66"
             style="fill:#e73833;fill-opacity:1;fill-rule:nonzero;stroke:none"
             d="m 1240.29,2724.67 c -10.37,-2.02 -17.19,-11.94 -15.15,-21.95 2.12,-10.11 12.26,-16.71 22.68,-14.68 l 94.53,18.25 c 10.42,2.04 17.26,11.89 15.15,21.97 -2.11,10.09 -12.28,16.69 -22.66,14.65 l -94.55,-18.24" /><path
             id="path68"
             style="fill:#e73833;fill-opacity:1;fill-rule:nonzero;stroke:none"
             d="m 1232.99,2778.46 c -10.5,-1.26 -18.16,-10.56 -16.83,-20.76 1.2,-10.22 10.85,-17.57 21.36,-16.32 l 95.78,11.03 c 10.5,1.21 18.07,10.52 16.84,20.72 -1.27,10.19 -10.93,17.59 -21.43,16.29 l -95.72,-10.96" /><path
             id="path70"
             style="fill:#e73833;fill-opacity:1;fill-rule:nonzero;stroke:none"
             d="m 1230.04,2833.42 c -10.6,-0.44 -18.96,-9.18 -18.51,-19.41 0.42,-10.32 9.43,-18.38 20.01,-17.99 l 96.33,3.75 c 10.62,0.35 18.89,9.09 18.53,19.38 -0.45,10.27 -9.45,18.34 -20.07,17.92 l -96.29,-3.65" /><path
             id="path72"
             style="fill:#e73833;fill-opacity:1;fill-rule:nonzero;stroke:none"
             d="m 1231.54,2888.99 c -10.58,0.45 -19.59,-7.65 -20.01,-17.88 -0.45,-10.27 7.91,-18.97 18.51,-19.39 l 96.29,-3.78 c 10.62,-0.32 19.62,7.74 20.07,17.99 0.36,10.28 -7.91,18.97 -18.53,19.38 l -96.33,3.68" /><path
             id="path74"
             style="fill:#e73833;fill-opacity:1;fill-rule:nonzero;stroke:none"
             d="m 1237.52,2943.72 c -10.51,1.21 -20.16,-6.11 -21.36,-16.39 -1.33,-10.19 6.33,-19.49 16.83,-20.71 l 95.72,-11.04 c 10.5,-1.17 20.16,6.15 21.43,16.34 1.23,10.2 -6.34,19.59 -16.84,20.8 l -95.78,11" /><path
             id="path76"
             style="fill:#e73833;fill-opacity:1;fill-rule:nonzero;stroke:none"
             d="m 1247.82,2997.03 c -10.42,1.99 -20.56,-4.6 -22.68,-14.62 -2.04,-10.09 4.78,-20.02 15.15,-22.02 l 94.55,-18.23 c 10.35,-1.96 20.58,4.6 22.66,14.62 2.11,10.09 -4.73,20.02 -15.15,21.99 l -94.53,18.26" /><path
             id="path78"
             style="fill:#e73833;fill-opacity:1;fill-rule:nonzero;stroke:none"
             d="m 1262.24,3048.83 c -10.23,2.81 -20.88,-3.04 -23.81,-12.89 -2.84,-9.93 3.08,-20.26 13.31,-23 l 92.78,-25.35 c 10.27,-2.87 20.95,3.01 23.82,12.86 2.87,9.93 -3.16,20.27 -13.34,23.01 l -92.76,25.37" /><path
             id="path80"
             style="fill:#e73833;fill-opacity:1;fill-rule:nonzero;stroke:none"
             d="m 1280.5,3098.95 c -9.96,3.53 -21.06,-1.46 -24.72,-11.12 -3.64,-9.62 1.48,-20.38 11.44,-23.93 l 90.49,-32.28 c 9.97,-3.46 21.1,1.47 24.76,11.09 3.62,9.63 -1.52,20.42 -11.38,23.96 l -90.59,32.28" /><path
             id="path82"
             style="fill:#e73833;fill-opacity:1;fill-rule:nonzero;stroke:none"
             d="m 1302.66,3147.1 c -9.66,4.32 -21.16,0.16 -25.54,-9.22 -4.46,-9.36 -0.18,-20.45 9.51,-24.69 l 87.68,-38.87 c 9.58,-4.27 21.1,-0.12 25.51,9.19 4.44,9.42 0.16,20.51 -9.54,24.75 l -87.62,38.84" /><path
             id="path84"
             style="fill:#e73833;fill-opacity:1;fill-rule:nonzero;stroke:none"
             d="m 1328.26,3193.23 c -9.27,4.99 -21.07,1.67 -26.2,-7.25 -5.13,-9.03 -1.73,-20.41 7.63,-25.38 l 84.27,-45.19 c 9.33,-4.98 21.1,-1.63 26.24,7.36 5.16,8.96 1.68,20.4 -7.53,25.3 l -84.41,45.16" /><path
             id="path86"
             style="fill:#e73833;fill-opacity:1;fill-rule:nonzero;stroke:none"
             d="m 1357.29,3237.23 c -8.82,5.64 -20.82,3.22 -26.62,-5.41 -5.83,-8.59 -3.38,-20.23 5.5,-25.87 l 80.64,-51.11 c 8.91,-5.72 20.86,-3.26 26.71,5.33 5.8,8.59 3.33,20.23 -5.58,25.87 l -80.65,51.19" /><path
             id="path88"
             style="fill:#e73833;fill-opacity:1;fill-rule:nonzero;stroke:none"
             d="m 1389.56,3278.76 c -8.39,6.29 -20.56,4.78 -27.05,-3.39 -6.43,-8.11 -4.82,-19.99 3.56,-26.22 l 76.49,-56.88 c 8.39,-6.23 20.52,-4.67 26.98,3.45 6.55,8.14 4.87,19.94 -3.53,26.14 l -76.45,56.9" /><path
             id="path90"
             style="fill:#e73833;fill-opacity:1;fill-rule:nonzero;stroke:none"
             d="m 1424.84,3317.81 c -7.9,6.81 -20.12,6.2 -27.22,-1.47 -7.04,-7.65 -6.4,-19.49 1.51,-26.39 l 71.9,-62.19 c 7.87,-6.79 20.1,-6.17 27.22,1.48 7.03,7.64 6.37,19.48 -1.51,26.38 l -71.9,62.19" /><path
             id="path92"
             style="fill:#e73833;fill-opacity:1;fill-rule:nonzero;stroke:none"
             d="m 1463.06,3354.24 c -7.36,7.36 -19.66,7.54 -27.26,0.44 -7.7,-7.14 -7.84,-19.01 -0.51,-26.35 l 66.85,-67.33 c 7.34,-7.34 19.65,-7.62 27.26,-0.5 7.67,7.13 7.85,19.07 0.48,26.43 l -66.82,67.31" /><path
             id="path94"
             style="fill:#e73833;fill-opacity:1;fill-rule:nonzero;stroke:none"
             d="m 1503.95,3387.68 c -6.78,7.96 -19.03,9.04 -27.19,2.46 -8.21,-6.56 -9.35,-18.37 -2.53,-26.23 l 61.51,-71.92 c 6.76,-7.85 19.02,-8.98 27.13,-2.46 8.22,6.55 9.36,18.45 2.57,26.32 l -61.49,71.83" /><path
             id="path96"
             style="fill:#e73833;fill-opacity:1;fill-rule:nonzero;stroke:none"
             d="m 1547.27,3418.19 c -6.07,8.44 -18.2,10.46 -26.86,4.45 -8.6,-5.96 -10.66,-17.65 -4.59,-26.05 l 55.89,-76.12 c 6.04,-8.35 18.18,-10.36 26.87,-4.35 8.6,5.87 10.63,17.63 4.53,26.05 l -55.84,76.02" /><path
             id="path98"
             style="fill:#e73833;fill-opacity:1;fill-rule:nonzero;stroke:none"
             d="m 1593.03,3445.61 c -5.46,8.78 -17.39,11.65 -26.44,6.36 -9.06,-5.34 -12.05,-16.82 -6.58,-25.69 l 49.77,-79.93 c 5.52,-8.77 17.36,-11.67 26.53,-6.32 9.03,5.3 11.98,16.84 6.5,25.6 l -49.78,79.98" /><path
             id="path100"
             style="fill:#e73833;fill-opacity:1;fill-rule:nonzero;stroke:none"
             d="m 1600.66,3419.96 c -9.75,-4.24 -14.07,-15.29 -9.75,-24.74 4.41,-9.32 15.89,-13.5 25.54,-9.32 l 238.28,101.92 c 9.62,4.24 13.94,15.32 9.62,24.73 -4.32,9.34 -15.81,13.56 -25.53,9.36 l -238.16,-101.95" /><path
             id="path102"
             style="fill:#e73833;fill-opacity:1;fill-rule:nonzero;stroke:none"
             d="m 3659.26,2374.76 v -397.38 c 0,-13.41 -5.34,-26.8 -15.84,-36.97 -10.62,-10.22 -24.39,-15.33 -38.16,-15.33 H 1812.55 c -13.7,0 -27.52,5.11 -38.09,15.33 -10.51,10.17 -15.78,23.56 -15.78,36.97 v 398.82 c 0,1.81 0.15,3.68 0.36,5.56 h 1899.71 c 0.24,-2.36 0.51,-4.59 0.51,-7" /><path
             id="path104"
             style="fill:#e73833;fill-opacity:1;fill-rule:nonzero;stroke:none"
             d="m 3595.37,3603.56 c -122.58,118.73 -283.31,178.12 -444.01,178.12 h -884.84 c -160.73,0 -321.39,-59.39 -444.07,-178.12 -122.57,-118.81 -183.93,-274.48 -183.93,-430.08 h 575.51 c 0,71.53 61.03,291.24 494.83,291.24 433.9,0 494.96,-219.71 494.96,-291.24 h 575.43 c 0,155.6 -61.25,311.27 -183.88,430.08" /><path
             id="path106"
             style="fill:#f2616e;fill-opacity:1;fill-rule:nonzero;stroke:none"
             d="m 2214.03,3173.48 c -259.41,0 -356.38,0 -651.46,0 0,174.22 145.82,315.46 325.78,315.46 179.8,0 325.68,-141.24 325.68,-315.46" /><path
             id="path108"
             style="fill:#e73833;fill-opacity:1;fill-rule:nonzero;stroke:none"
             d="m 2259.34,3101.59 c 0,-21.3 -17.96,-38.7 -39.94,-38.7 h -662.2 c -22,0 -39.96,17.4 -39.96,38.7 v 33.14 c 0,21.31 17.96,38.75 39.96,38.75 h 662.2 c 21.98,0 39.94,-17.44 39.94,-38.75 v -33.14" /><path
             id="path110"
             style="fill:#f2616e;fill-opacity:1;fill-rule:nonzero;stroke:none"
             d="m 3855.19,3173.48 c -259.35,0 -356.35,0 -651.37,0 0,174.22 145.79,315.46 325.68,315.46 179.87,0 325.69,-141.24 325.69,-315.46" /><path
             id="path112"
             style="fill:#e73833;fill-opacity:1;fill-rule:nonzero;stroke:none"
             d="m 3900.53,3101.59 c 0,-21.3 -17.91,-38.7 -39.9,-38.7 h -662.25 c -22,0 -39.92,17.4 -39.92,38.7 v 33.14 c 0,21.31 17.92,38.75 39.92,38.75 h 662.25 c 21.99,0 39.9,-17.44 39.9,-38.75 v -33.14" /><path
             id="path114"
             style="fill:#f2616e;fill-opacity:1;fill-rule:nonzero;stroke:none"
             d="m 3639.92,2414.84 -56.95,46.29 c -62.79,51.01 -118.7,112.11 -164.75,183.1 -46.06,70.84 -78.73,146.13 -99.09,223.08 l -156.75,593.35 H 3032.8 v -130.72 c 0,-20.1 -7.91,-40.17 -23.69,-55.49 -15.79,-15.29 -36.59,-22.94 -57.27,-22.94 h -485.92 c -20.68,0 -41.39,7.65 -57.2,22.94 -15.85,15.32 -23.76,35.39 -23.76,55.49 v 130.72 h -129.48 l -156.84,-593.35 c -20.37,-76.95 -53.01,-152.24 -99.1,-223.08 -45.97,-70.99 -101.96,-132.09 -164.7,-183.1 l -56.96,-46.29 c -16.92,-13.73 -23.94,-36.72 -15.98,-57.9 7.98,-21.27 28.59,-34.48 50.65,-34.48 H 3605.2 c 22.04,0 42.75,13.21 50.71,34.48 8.04,21.18 0.88,44.17 -15.99,57.9" /><path
             id="path116"
             style="fill:#ffffff;fill-opacity:1;fill-rule:nonzero;stroke:none"
             d="m 2708.86,3340.78 c -256.17,0 -463.8,-201.08 -463.8,-449.24 0,-248.15 207.63,-449.23 463.8,-449.23 256.27,0 463.87,201.08 463.87,449.23 0,248.16 -207.6,449.24 -463.87,449.24" /><path
             id="path118"
             style="fill:#e73833;fill-opacity:1;fill-rule:nonzero;stroke:none"
             d="m 3053.29,2828.86 c -35.76,0 -64.8,28.07 -64.8,62.71 0,34.61 29.04,62.72 64.8,62.72 35.77,0 64.75,-28.11 64.75,-62.72 0,-34.64 -28.98,-62.71 -64.75,-62.71 z m -102.26,198.1 c -17.87,30.01 -7.28,68.44 23.72,85.75 30.94,17.35 70.63,7.08 88.54,-22.94 17.86,-30 7.24,-68.45 -23.7,-85.79 -31,-17.28 -70.66,-7 -88.56,22.98 z m -102.32,99.14 c -31.03,17.35 -41.6,55.76 -23.72,85.75 17.86,30.03 57.53,40.28 88.55,22.96 30.94,-17.32 41.57,-55.72 23.67,-85.75 -17.87,-29.99 -57.57,-40.27 -88.5,-22.96 z m -139.85,-399.28 c -93.9,0 -170.03,73.78 -170.03,164.72 0,91.01 76.13,164.75 170.03,164.75 93.97,0 170.09,-73.74 170.09,-164.75 0,-90.94 -76.12,-164.72 -170.09,-164.72 z m 0,-231.61 c -35.76,0 -64.74,28.11 -64.74,62.72 0,34.67 28.98,62.82 64.74,62.82 35.8,0 64.75,-28.15 64.75,-62.82 0,-34.61 -28.95,-62.67 -64.75,-62.72 z m -116.08,76.11 c -17.87,-30.05 -57.54,-40.35 -88.41,-23.01 -31.1,17.31 -41.66,55.75 -23.81,85.75 17.9,30 57.53,40.3 88.56,22.94 30.96,-17.3 41.58,-55.71 23.66,-85.68 z m -149.74,99.09 c -31.01,-17.33 -70.64,-6.97 -88.54,22.97 -17.86,30.1 -7.3,68.42 23.7,85.76 31,17.28 70.66,7 88.52,-22.97 17.91,-30.02 7.31,-68.45 -23.68,-85.76 z m -143.32,221.16 c 0,34.65 28.99,62.72 64.75,62.72 35.77,0 64.83,-28.11 64.83,-62.72 0,-34.64 -29.06,-62.74 -64.83,-62.71 -35.76,0 -64.75,28.07 -64.75,62.71 z m 54.78,198.2 c 17.9,30.02 57.53,40.29 88.54,22.94 30.99,-17.31 41.61,-55.71 23.68,-85.75 -17.86,-29.98 -57.52,-40.28 -88.52,-22.98 -31,17.34 -41.56,55.79 -23.7,85.79 z m 149.87,145.04 c 30.87,17.32 70.54,7.07 88.41,-22.96 17.92,-29.99 7.3,-68.4 -23.66,-85.75 -31.03,-17.31 -70.66,-7.03 -88.56,22.96 -17.85,30.03 -7.29,68.43 23.81,85.75 z m 204.49,53.08 c 35.8,0 64.75,-28.09 64.75,-62.7 0,-34.69 -28.95,-62.84 -64.75,-62.84 -35.76,0 -64.74,28.15 -64.74,62.84 0,34.61 28.98,62.7 64.74,62.7 z m 0,61.13 c -260.9,0 -472.29,-204.73 -472.29,-457.48 0,-252.71 211.39,-457.48 472.29,-457.48 260.94,0 472.32,204.77 472.32,457.48 0,252.75 -211.38,457.48 -472.32,457.48" /><path
             id="path120"
             style="fill:#f2616e;fill-opacity:1;fill-rule:nonzero;stroke:none"
             d="m 2708.86,2726.82 c -93.9,0 -170.03,73.78 -170.03,164.72 0,91.01 76.13,164.75 170.03,164.75 93.97,0 170.09,-73.74 170.09,-164.75 0,-90.94 -76.12,-164.72 -170.09,-164.72 z m 0,360.86 c -111.64,0 -202.37,-87.99 -202.37,-196.14 0,-108.05 90.73,-196.12 202.37,-196.12 111.69,0 202.51,88.07 202.51,196.12 0,108.15 -90.82,196.14 -202.51,196.14" /><path
             id="path122"
             style="fill:#e5f3fc;fill-opacity:1;fill-rule:nonzero;stroke:none"
             d="m 2979.31,2516.46 c -22.08,-15.08 -45.64,-28.32 -70.36,-39.45 l -76.21,149 c -2.51,4.94 -3.17,10.71 -1.51,16.39 1.66,5.61 5.37,10.17 10.14,13.07 l 1.02,0.64 c 4.78,2.85 10.73,4.05 16.64,3.01 5.95,-1.05 10.99,-4.22 14.52,-8.59 l 105.76,-134.07" /></g></g></g></g></svg>