<?xml version="1.0" encoding="UTF-8" standalone="no"?>
<!-- Created with Inkscape (http://www.inkscape.org/) -->

<svg
   xmlns:dc="http://purl.org/dc/elements/1.1/"
   xmlns:cc="http://creativecommons.org/ns#"
   xmlns:rdf="http://www.w3.org/1999/02/22-rdf-syntax-ns#"
   xmlns:svg="http://www.w3.org/2000/svg"
   xmlns="http://www.w3.org/2000/svg"
   xmlns:sodipodi="http://sodipodi.sourceforge.net/DTD/sodipodi-0.dtd"
   xmlns:inkscape="http://www.inkscape.org/namespaces/inkscape"
   width="106.51819mm"
   height="161.42947mm"
   viewBox="0 0 377.42665 571.9942"
   id="svg3449"
   version="1.1"
   inkscape:version="0.91 r13725"
   sodipodi:docname="brain_Gray-clipped.svg">
  <defs
     id="defs3451">
    <clipPath
       clipPathUnits="userSpaceOnUse"
       id="clipPath3364">
      <rect
         style="fill:#0000ff;fill-rule:evenodd;stroke:#000000;stroke-width:0.75px;stroke-linecap:butt;stroke-linejoin:miter;stroke-opacity:1"
         id="rect3366"
         width="287.33667"
         height="428.99567"
         x="0"
         y="-861.00537"
         transform="scale(1,-1)" />
    </clipPath>
  </defs>
  <sodipodi:namedview
     id="base"
     pagecolor="#ffffff"
     bordercolor="#666666"
     borderopacity="1.0"
     inkscape:pageopacity="0.0"
     inkscape:pageshadow="2"
     inkscape:zoom="0.35"
     inkscape:cx="372.28471"
     inkscape:cy="43.13997"
     inkscape:document-units="px"
     inkscape:current-layer="layer1"
     showgrid="false"
     fit-margin-top="0"
     fit-margin-left="0"
     fit-margin-right="0"
     fit-margin-bottom="0"
     inkscape:window-width="1920"
     inkscape:window-height="1027"
     inkscape:window-x="-8"
     inkscape:window-y="-8"
     inkscape:window-maximized="1" />
  <metadata
     id="metadata3454">
    <rdf:RDF>
      <cc:Work
         rdf:about="">
        <dc:format>image/svg+xml</dc:format>
        <dc:type
           rdf:resource="http://purl.org/dc/dcmitype/StillImage" />
        <dc:title></dc:title>
      </cc:Work>
    </rdf:RDF>
  </metadata>
  <g
     inkscape:label="Layer 1"
     inkscape:groupmode="layer"
     id="layer1"
     transform="translate(-2.7152857,-3.5079672)">
    <g
       transform="matrix(1.3333333,0,0,-1.3333333,2.7152857,1151.5151)"
       id="g10"
       clip-path="url(#clipPath3364)">
      <g
         transform="scale(0.1,0.1)"
         id="g12">
        <path
           inkscape:connector-curvature="0"
           id="path14"
           style="fill:#eef1f4;fill-opacity:1;fill-rule:nonzero;stroke:none"
           d="M 0,8620.07 0,0" />
        <path
           inkscape:connector-curvature="0"
           id="path16"
           style="fill:#eef1f4;fill-opacity:1;fill-rule:nonzero;stroke:none"
           d="m 96.9336,0 0,8620.07" />
        <path
           inkscape:connector-curvature="0"
           id="path18"
           style="fill:#b5b5b4;fill-opacity:1;fill-rule:nonzero;stroke:none"
           d="m 0,4310.06 0,1703.42 1228.1,1228.11 113.61,-113.64 74.6,74.59 57.86,-57.86 556.76,556.75 48.03,-439.33 -137.2,-137.2 -9.44,-86.16 -63.16,-63.15 c 22.56,9.28 46.98,14.83 72.82,14.83 92.94,0 170.51,-66.2 188.13,-154.02 26.95,34.06 64.75,57.58 107.07,66.99 l 299.02,299.03 21.59,-94.62 166.82,133.84 -198.65,-247.24 -0.83,-0.84 0,-0.29 -127.52,-127.52 c 43.01,-34.86 70.68,-88.04 70.68,-147.56 0,-18.48 -2.86,-36.95 -8.24,-54.57 22.45,8.81 46.32,13.36 70.74,13.36 104.6,0 189.54,-84.98 189.54,-189.55 0,-51.43 -21.01,-100.32 -57.39,-135.84 94.36,-10.79 167.68,-91.22 167.68,-188.4 0,-52.01 -21.04,-98.9 -55.14,-133 -0.28,-0.85 -0.56,-1.13 -1.42,-1.42 L 1055.37,4310.06" />
        <path
           inkscape:connector-curvature="0"
           id="path20"
           style="fill:#8196a5;fill-opacity:1;fill-rule:nonzero;stroke:none"
           d="m 1104.93,5301.4 c -20.97,0 -40.96,12.81 -49.73,27.5" />
        <path
           inkscape:connector-curvature="0"
           id="path22"
           style="fill:#f2564f;fill-opacity:1;fill-rule:nonzero;stroke:none"
           d="m 1258.01,6343.29 -4.83,3.32 c 0,0 -6.05,4.41 -8.93,6.76 -38.96,31.68 -63.94,79.98 -63.94,134.11 0,95.36 77.31,172.67 172.67,172.67 35.02,0 67.6,-10.41 94.85,-28.31 1.89,-1.25 5.61,-3.86 5.61,-3.86 l 9.05,-6.95 -6.33,10.01 c 0,0 -2.61,4.45 -3.77,6.71 -12.72,24.05 -19.93,51.44 -19.93,80.54 0,95.37 77.32,172.67 172.73,172.67 67.54,0 126.1,-38.87 154.41,-95.44 1.33,-2.66 3.83,-8.12 3.83,-8.12 l 4.82,-12.33 -1.27,13.03 c 0,0 -0.33,6.84 -0.33,10.31 0,96.78 78.48,175.22 175.22,175.22 96.8,0 175.22,-78.44 175.22,-175.22 0,-3.51 -0.33,-10.47 -0.33,-10.47 l -1.27,-12.86 4.38,11.32 c 0,0 2.83,6.3 4.38,9.36 28.37,56.46 86.81,95.2 154.36,95.2 95.35,0 172.67,-77.3 172.67,-172.67 0,-30.15 -7.77,-58.52 -21.37,-83.19 -0.33,-0.59 -1,-1.83 -1,-1.83 l -7.66,-12.24 9.77,7.47 c 0,0 2.11,1.46 3.22,2.17 27.48,18.63 60.72,29.48 96.47,29.48 95.35,0 172.67,-77.31 172.67,-172.67 0,-58.69 -29.25,-110.5 -73.93,-141.69 -2.89,-2 -8.77,-5.72 -8.77,-5.72 l -13.66,-7.5 14.16,2.22 c 0,0 6.66,0.69 10.04,0.86 3.28,0.2 6.55,0.29 9.83,0.29 95.41,0 172.72,-77.3 172.72,-172.67 0,-95.39 -77.31,-172.7 -172.72,-172.7 l -723.77,0 -1.44,-2.93 c 0,0 -1.22,-2.43 -1.89,-3.63 -41.96,-79.65 -125.55,-133.96 -221.79,-133.96 l -371.6,0 c -138.42,0 -250.59,112.17 -250.59,250.55 0,111.44 72.76,205.91 173.33,238.46 3.17,1.01 9.61,2.87 9.61,2.87 l 5.1,1.36" />
        <path
           inkscape:connector-curvature="0"
           id="path24"
           style="fill:#e7352e;fill-opacity:1;fill-rule:nonzero;stroke:none"
           d="m 1901.35,5996.56 c 1.61,3.29 4.17,6.05 7.22,7.98 3.11,1.94 6.72,2.96 10.38,2.96 l 722.1,0 c 85.86,0 155.8,69.88 155.8,155.77 0,85.86 -69.94,155.74 -155.8,155.74 -2.95,0 -5.94,-0.08 -8.89,-0.26 -2.55,-0.14 -7.32,-0.6 -8.82,-0.74 l -3.5,-0.55 -1.33,0 c -8.16,0 -15.37,5.2 -17.98,12.86 -3.05,8.78 0.67,18.39 8.77,22.84 l 2.72,1.5 c 1.83,1.16 5.77,3.67 7.71,4.99 41.8,29.17 66.77,76.96 66.77,127.83 0,85.88 -69.87,155.75 -155.79,155.75 -31.2,0 -61.28,-9.18 -87.03,-26.57 -0.78,-0.51 -2.11,-1.46 -2.67,-1.85 l -1.83,-1.4 c -3.22,-2.45 -7.27,-3.81 -11.32,-3.81 -4.66,0 -9.1,1.73 -12.6,4.85 -6.66,6.07 -8.05,16.05 -3.28,23.72 l 2.33,3.73 0.78,1.36 c 12.6,22.85 19.21,48.8 19.21,75.03 0,85.87 -69.88,155.77 -155.69,155.77 -59.28,0 -112.56,-32.92 -139.2,-85.88 -1.06,-2.09 -3.05,-6.4 -3.89,-8.32 l -0.89,-2.28 c -2.72,-6.98 -9.49,-11.64 -16.98,-11.64 l -2.33,0.04 -1.94,0.47 c -8.77,2.15 -14.71,10.5 -13.83,19.45 l 0.34,3.27 c 0.05,2.1 0.28,6.86 0.28,9.24 0,87.29 -70.99,158.29 -158.3,158.29 -87.25,0 -158.3,-71 -158.3,-158.29 0,-2.35 0.17,-7.02 0.28,-9.12 l 0.28,-2.76 c 0.89,-9.04 -5.11,-17.46 -13.99,-19.61 l -2.22,-0.48 -2,0 c -7.6,0 -14.26,4.56 -17.04,11.61 l -1.05,2.78 c -0.61,1.23 -2.33,5.05 -3.39,7.1 -26.58,53.1 -79.98,86.13 -139.25,86.13 -85.92,0 -155.8,-69.9 -155.8,-155.77 0,-25.28 6.22,-50.41 17.93,-72.61 0.94,-1.75 2.77,-4.89 3.33,-5.91 l 1.55,-2.45 c 4.83,-7.57 3.5,-17.45 -3.11,-23.53 -3.38,-3.11 -7.82,-4.83 -12.43,-4.83 -4.05,0 -8.05,1.37 -11.21,3.8 l -2.06,1.57 c -0.89,0.61 -3.49,2.43 -4.93,3.37 -25.37,16.69 -54.95,25.53 -85.48,25.53 -85.86,0 -155.74,-69.87 -155.74,-155.75 0,-47.12 21.03,-91.21 57.72,-120.97 2,-1.61 6.27,-4.8 8.05,-6.11 l 1.55,-1.05 c 5.94,-4.1 8.99,-11.32 7.83,-18.51 -1.28,-7.15 -6.61,-12.99 -13.49,-14.83 l -1.28,-0.34 c 0,0 -6.1,-1.76 -9.1,-2.73 -96.63,-31.29 -161.62,-120.63 -161.62,-222.34 0,-128.81 104.84,-233.61 233.66,-233.61 l 371.6,0 c 86.98,0 166.23,47.86 206.8,124.91 0.56,1.1 1.73,3.28 1.73,3.28 z m -848.31,104.04 c 0,110.98 67.55,209.11 169.73,249.09 -37.91,35.77 -59.34,85.23 -59.34,137.79 0,104.57 85.04,189.62 189.55,189.62 24.42,0 48.34,-4.66 70.6,-13.59 -5.33,17.69 -8.05,36.2 -8.05,54.78 0,104.57 85.09,189.63 189.66,189.63 58.77,0 112.78,-26.65 148.3,-71.45 17.71,87.78 95.47,154.09 188.38,154.09 92.91,0 170.67,-66.31 188.38,-154.09 35.52,44.8 89.53,71.45 148.36,71.45 104.51,0 189.6,-85.06 189.6,-189.63 0,-18.61 -2.78,-37.09 -8.11,-54.78 22.32,8.93 46.18,13.59 70.61,13.59 104.56,0 189.65,-85.05 189.65,-189.62 0,-51.52 -21.04,-100.44 -57.39,-135.88 94.24,-10.86 167.73,-91.19 167.73,-188.33 0,-104.57 -85.09,-189.63 -189.65,-189.63 l -713.44,0 c -46.85,-86.75 -136.82,-140.52 -235.45,-140.52 l -371.6,0 c -147.52,0 -267.52,119.98 -267.52,267.48" />
        <path
           inkscape:connector-curvature="0"
           id="path26"
           style="fill:#e7352e;fill-opacity:1;fill-rule:nonzero;stroke:none"
           d="m 1692.16,5833.12 c 147.53,0 267.47,119.98 267.47,267.48 0,9.37 -7.6,16.95 -16.93,16.95 -9.32,0 -16.93,-7.58 -16.93,-16.95 0,-128.81 -104.79,-233.61 -233.61,-233.61 -9.38,0 -16.93,-7.59 -16.93,-16.94 0,-9.35 7.55,-16.93 16.93,-16.93" />
        <path
           inkscape:connector-curvature="0"
           id="path28"
           style="fill:#e7352e;fill-opacity:1;fill-rule:nonzero;stroke:none"
           d="m 2468.38,6146.34 c 9.37,0 16.93,7.56 16.93,16.93 0,85.86 69.87,155.74 155.74,155.74 9.38,0 16.98,7.56 16.98,16.93 0,9.34 -7.6,16.93 -16.98,16.93 -104.52,0 -189.6,-85.06 -189.6,-189.6 0,-9.37 7.55,-16.93 16.93,-16.93" />
        <path
           inkscape:connector-curvature="0"
           id="path30"
           style="fill:#e7352e;fill-opacity:1;fill-rule:nonzero;stroke:none"
           d="m 1355.25,5833.12 c 104.57,0 189.6,85.06 189.6,189.61 0,9.34 -7.6,16.93 -16.87,16.93 -9.38,0 -16.98,-7.59 -16.98,-16.93 0,-85.87 -69.88,-155.74 -155.75,-155.74 -9.32,0 -16.92,-7.59 -16.92,-16.94 0,-9.35 7.6,-16.93 16.92,-16.93" />
        <path
           inkscape:connector-curvature="0"
           id="path32"
           style="fill:#e7352e;fill-opacity:1;fill-rule:nonzero;stroke:none"
           d="m 1069.97,6083.69 c 9.38,0 16.93,7.56 16.93,16.91 0,128.84 104.84,233.65 233.66,233.65 9.33,0 16.88,7.57 16.88,16.92 0,9.36 -7.55,16.95 -16.88,16.95 -147.52,0 -267.52,-120 -267.52,-267.52 0,-9.35 7.6,-16.91 16.93,-16.91" />
        <path
           inkscape:connector-curvature="0"
           id="path34"
           style="fill:#e7352e;fill-opacity:1;fill-rule:nonzero;stroke:none"
           d="m 1817.43,6259.7 544.27,0 c 77.26,0 140.09,62.84 140.09,140.05 0,77.22 -62.83,140.05 -140.09,140.05 -14.82,0 -29.31,-2.26 -43.24,-6.78 2.39,10.22 3.55,20.73 3.55,31.32 0,77.23 -62.83,140.06 -140.09,140.06 -39.96,0 -77.09,-16.79 -103.18,-45.39 -16.54,60.07 -71.65,104.32 -136.87,104.32 -65.22,0 -120.33,-44.25 -136.81,-104.29 -26.15,28.6 -63.22,45.36 -103.3,45.36 -77.2,0 -140.03,-62.83 -140.03,-140.06 0,-21.03 4.55,-41.26 13.54,-60.1 1.33,-2.76 4.16,-8.09 4.16,-8.09 l 29.81,16.07 c 0,0.05 -2.33,4.35 -3.44,6.57 -6.77,14.27 -10.21,29.62 -10.21,45.55 0,58.54 47.67,106.19 106.17,106.19 40.3,0 76.6,-22.33 94.8,-58.3 0.67,-1.34 1.78,-3.78 2.28,-4.76 l 0,-0.09 c 3.27,-8.37 12.43,-13.14 21.2,-11.05 8.88,2.14 14.87,10.52 13.99,19.53 l 0,0 c -0.06,1.07 -0.17,3.98 -0.17,5.6 0,59.56 48.45,108.01 108.01,108.01 59.56,0 108.01,-48.45 108.01,-108.01 0,-1.45 -0.11,-4.02 -0.11,-5.06 l -0.11,-1.14 c -0.83,-8.95 5.11,-17.32 13.82,-19.39 8.82,-2.08 17.87,2.67 21.2,10.98 l 0.22,0.54 c 0.45,1.06 1.72,3.82 2.5,5.33 18.32,35.66 54.51,57.81 94.52,57.81 58.61,0 106.24,-47.65 106.24,-106.19 0,-11.4 -1.84,-22.58 -5.33,-33.29 -1.11,-3.3 -4.05,-10.1 -5.89,-14.16 l -1.27,-2.17 c -4.72,-7.93 -3.17,-18.25 3.66,-24.49 6.77,-6.24 17.21,-6.86 24.76,-1.48 l 1.88,1.36 c 3.17,1.85 8.49,4.82 11.05,6.01 14.1,6.54 29.08,9.85 44.68,9.85 58.61,0 106.18,-47.66 106.18,-106.22 0,-58.55 -47.57,-106.18 -106.18,-106.18 l -544.27,0 c -9.32,0 -16.93,-7.59 -16.93,-16.94 0,-9.35 7.61,-16.93 16.93,-16.93" />
        <path
           inkscape:connector-curvature="0"
           id="path36"
           style="fill:#e73933;fill-opacity:1;fill-rule:nonzero;stroke:none"
           d="m 1694.33,6136.57 c 9.32,0 16.92,7.59 16.92,16.93 0,58.56 47.63,106.2 106.18,106.2 9.38,0 16.93,7.58 16.93,16.93 0,9.35 -7.55,16.94 -16.93,16.94 -77.2,0 -140.03,-62.84 -140.03,-140.07 0,-9.34 7.54,-16.93 16.93,-16.93" />
        <path
           inkscape:connector-curvature="0"
           id="path38"
           style="fill:#e7352e;fill-opacity:1;fill-rule:nonzero;stroke:none"
           d="m 1393.83,6211.11 c 77.26,0 140.09,62.83 140.09,140.06 0,77.22 -62.83,140.08 -140.09,140.08 -9.33,0 -16.87,-7.59 -16.87,-16.96 0,-9.33 7.54,-16.92 16.87,-16.92 58.61,0 106.23,-47.64 106.23,-106.2 0,-58.55 -47.62,-106.17 -106.23,-106.17 -9.33,0 -16.87,-7.61 -16.87,-16.96 0,-9.32 7.54,-16.93 16.87,-16.93" />
        <path
           inkscape:connector-curvature="0"
           id="path40"
           style="fill:#e7352e;fill-opacity:1;fill-rule:nonzero;stroke:none"
           d="m 2361.7,6259.7 c 9.38,0 16.98,7.58 16.98,16.93 0,9.35 -7.6,16.94 -16.98,16.94 -58.5,0 -106.18,47.63 -106.18,106.18 0,9.37 -7.61,16.96 -16.93,16.96 -9.32,0 -16.93,-7.59 -16.93,-16.96 0,-77.21 62.83,-140.05 140.04,-140.05" />
        <path
           inkscape:connector-curvature="0"
           id="path42"
           style="fill:#e7352e;fill-opacity:1;fill-rule:nonzero;stroke:none"
           d="m 2044.16,6259.7 c 9.33,0 16.93,7.58 16.93,16.93 0,9.35 -7.6,16.94 -16.93,16.94 -58.55,0 -106.17,47.63 -106.17,106.18 0,9.37 -7.61,16.96 -16.93,16.96 -9.38,0 -16.93,-7.59 -16.93,-16.96 0,-77.21 62.83,-140.05 140.03,-140.05" />
        <path
           inkscape:connector-curvature="0"
           id="path44"
           style="fill:#e7352e;fill-opacity:1;fill-rule:nonzero;stroke:none"
           d="m 1270.72,6087.99 c 9.38,0 16.93,7.59 16.93,16.94 0,58.55 47.68,106.18 106.18,106.18 9.38,0 16.93,7.61 16.93,16.93 0,9.35 -7.55,16.96 -16.93,16.96 -77.2,0 -140.04,-62.83 -140.04,-140.07 0,-9.35 7.61,-16.94 16.93,-16.94" />
        <path
           inkscape:connector-curvature="0"
           id="path46"
           style="fill:#fbc039;fill-opacity:1;fill-rule:nonzero;stroke:none"
           d="m 1998.71,7406.38 32.3,295.21 47.9,-439.52 -114.17,72.1 -32.31,-295.31 -47.9,439.5 114.18,-71.98" />
        <path
           inkscape:connector-curvature="0"
           id="path48"
           style="fill:#fbc039;fill-opacity:1;fill-rule:nonzero;stroke:none"
           d="m 2557.79,7107.7 166.73,133.89 -199.36,-248.19 -21.49,94.89 -166.78,-133.99 199.42,248.24 21.48,-94.84" />
        <path
           inkscape:connector-curvature="0"
           id="path50"
           style="fill:#fbc039;fill-opacity:1;fill-rule:nonzero;stroke:none"
           d="m 1394.83,7107.7 -166.73,133.89 199.37,-248.19 21.42,94.89 166.84,-133.99 -199.42,248.24 -21.48,-94.84" />
      </g>
    </g>
  </g>
</svg>
