<?xml version="1.0" encoding="UTF-8" standalone="no"?>
<svg
   xmlns:dc="http://purl.org/dc/elements/1.1/"
   xmlns:cc="http://creativecommons.org/ns#"
   xmlns:rdf="http://www.w3.org/1999/02/22-rdf-syntax-ns#"
   xmlns:svg="http://www.w3.org/2000/svg"
   xmlns="http://www.w3.org/2000/svg"
   viewBox="0 0 666.67999 666.67999"
   height="666.67999"
   width="666.67999"
   xml:space="preserve"
   id="svg2"
   version="1.1"><metadata
     id="metadata8"><rdf:RDF><cc:Work
         rdf:about=""><dc:format>image/svg+xml</dc:format><dc:type
           rdf:resource="http://purl.org/dc/dcmitype/StillImage" /></cc:Work></rdf:RDF></metadata><defs
     id="defs6" /><g
     transform="matrix(1.3333333,0,0,-1.3333333,0,666.68)"
     id="g10"><g
       transform="scale(0.1)"
       id="g12"><path
         id="path14"
         style="fill:#b6b5b4;fill-opacity:1;fill-rule:nonzero;stroke:none"
         d="M 0,0 H 5000.05 V 5000.09 H 0 Z" /><path
         id="path16"
         style="fill:#848788;fill-opacity:1;fill-rule:nonzero;stroke:none"
         d="M 4980.07,0.140625 H 2424.16 L 1498.54,925.781 c 25.27,-25.269 53.86,-45.351 84.36,-60.211 43.27,-21.101 90.4,-31.648 137.52,-31.648 h 1080.96 c 80.32,0 160.6,30.617 221.88,91.93 61.27,61.199 91.89,141.518 91.89,221.838 V 2911.1 h -1124.7 l -119.08,119.1 c 0,0 2.18,4.38 6.58,12.79 4.75,8.06 10.96,20.49 18.65,35.5 7.32,15.74 16.11,34.03 23.43,55.23 7.29,21.6 13.9,45.38 17.19,70.98 0.71,6.23 1.11,12.81 1.82,19.4 0,6.59 0.75,13.17 0.36,20.11 0,13.19 -1.82,27.09 -3.65,40.99 -2.57,13.89 -5.5,28.54 -9.89,42.8 -4.36,14.63 -9.51,29.28 -15.37,44.26 -12.07,30.02 -27.44,61.1 -44.62,93.31 -0.72,1.47 -1.47,2.56 -2.18,4.02 -16.47,30.72 -34.4,62.56 -52.7,95.49 -18.65,34.02 -37.69,69.88 -54.13,106.82 -16.86,36.96 -31.48,75.75 -41.37,115.62 -4.75,20.13 -8.4,40.25 -10.61,60.36 -1.82,20.14 -2.54,40.25 -1.47,60.01 2.57,39.14 11.72,75.73 25.62,106.47 13.54,30.73 30.73,55.24 47.95,74.99 16.47,19.76 33.29,34.39 47.55,45.74 14.26,10.98 25.62,18.66 34.02,23.42 8.07,5.12 12.82,7.68 12.82,7.68 l 225.74,-225.74 c 4.39,26.71 11.68,51.95 21.57,73.91 13.9,30.73 31.09,55.24 47.56,74.99 16.83,19.76 33.65,34.39 47.95,45.74 14.25,10.98 25.58,18.66 34.01,23.42 8.04,5.12 12.43,7.68 12.43,7.68 l 225.74,-225.74 c 4.39,26.71 12.07,51.95 21.93,73.91 13.94,30.73 31.12,55.24 47.95,74.99 16.47,19.76 33.66,34.39 47.56,45.74 14.25,10.98 25.61,18.66 34.01,23.42 8.43,5.12 12.47,7.68 12.47,7.68 L 4980.07,1836.76 V 0.140625" /><path
         id="path18"
         style="fill:#2d3c99;fill-opacity:1;fill-rule:nonzero;stroke:none"
         d="m 3115.15,1147.69 c 0,-80.32 -30.62,-160.639 -91.89,-221.838 -61.28,-61.313 -141.56,-91.93 -221.88,-91.93 H 1720.42 c -80.28,0 -160.6,30.617 -221.84,91.93 -61.27,61.199 -91.93,141.518 -91.93,221.838 V 2911.1 h 1708.5 V 1147.69" /><path
         id="path20"
         style="fill:#2d3c99;fill-opacity:1;fill-rule:nonzero;stroke:none"
         d="m 3309.96,1566.07 h -174.93 v 150.59 h 155.05 c 30.19,0 78.43,11.79 99.76,33.12 21.3,21.33 33.09,49.67 33.09,79.86 v 474.79 c 0,30.16 -11.79,58.52 -33.09,79.85 -21.33,21.37 -49.69,33.16 -79.88,33.16 h -174.93 v 150.6 h 174.93 c 70.38,0 136.59,-27.48 186.35,-77.25 49.81,-49.8 77.21,-115.94 77.21,-186.36 v -474.79 c 0,-70.39 -27.4,-136.59 -77.21,-186.36 -49.76,-49.77 -115.97,-77.21 -186.35,-77.21" /><path
         id="path22"
         style="fill:#fafafa;fill-opacity:1;fill-rule:nonzero;stroke:none"
         d="m 1891.1,3030.11 c 0,0 2.22,4.58 6.8,12.94 4.85,8.18 10.93,20.51 18.65,35.58 7.14,15.54 15.86,33.84 23.36,55.27 7.32,21.3 13.97,45.2 17.15,70.75 0.72,6.39 1.22,12.86 1.79,19.47 0,6.57 0.64,13.15 0.28,19.97 0,13.33 -1.5,27.19 -3.64,41.09 -2.43,14.04 -5.22,28.4 -9.65,42.76 -4.43,14.58 -9.5,29.41 -15.33,44.38 -12.18,30.12 -27.68,61.2 -44.62,93.39 -17.22,31.98 -36.09,64.99 -54.99,99.29 -18.72,34.2 -37.66,69.78 -54.34,106.76 -16.76,37.12 -31.22,75.89 -41.09,115.8 -4.89,19.93 -8.64,40.19 -10.68,60.27 -1.89,20.29 -2.68,40.37 -1.5,60.02 2.61,39.12 11.83,75.93 25.55,106.47 13.72,30.63 30.97,55.38 47.84,75.14 16.75,19.65 33.44,34.23 47.55,45.52 14.4,11 25.87,18.83 34.16,23.65 8.14,4.93 12.71,7.54 12.71,7.54 0,0 -2.49,-4.5 -6.89,-12.97 -4.68,-8.15 -10.82,-20.43 -18.47,-35.59 -7.4,-15.54 -16.26,-33.83 -23.58,-55.27 -7.29,-21.4 -13.94,-45.16 -16.97,-70.88 -0.83,-6.25 -1.25,-12.76 -1.97,-19.22 0,-6.79 -0.68,-13.26 -0.21,-20.01 0,-13.47 1.5,-27.19 3.71,-41.27 2.47,-13.97 5.36,-28.26 9.65,-42.73 4.43,-14.43 9.54,-29.33 15.47,-44.41 12.04,-30.01 27.55,-61.1 44.7,-93.18 17.26,-32.08 15.99,-65.13 35,-99.36 18.86,-34.37 37.58,-69.88 54.23,-106.87 16.94,-37.15 51.18,-75.81 61.08,-115.72 4.89,-20.12 8.39,-40.19 10.68,-60.45 1.71,-20.12 2.75,-40.27 1.39,-59.85 -2.68,-39.3 -11.89,-75.99 -25.72,-106.5 -13.79,-30.69 -31.05,-55.42 -47.7,-75.1 -16.86,-19.69 -33.76,-34.23 -47.73,-45.63 -14.4,-11.18 -25.98,-18.9 -34.09,-23.62 -8.29,-4.89 -12.58,-7.43 -12.58,-7.43" /><path
         id="path24"
         style="fill:#fafafa;fill-opacity:1;fill-rule:nonzero;stroke:none"
         d="m 2280.62,3030.11 c 0,0 2.36,4.58 6.86,12.94 4.79,8.18 11.14,20.51 18.58,35.58 7.29,15.54 16.18,33.84 23.51,55.27 7.36,21.3 13.89,45.2 17.11,70.75 0.75,6.39 1.25,12.86 1.82,19.47 0,6.57 0.68,13.15 0.14,19.97 0,13.33 -1.35,27.19 -3.35,41.2 -2.61,13.93 -5.51,28.29 -9.65,42.65 -4.57,14.58 -9.68,29.41 -15.61,44.38 -12.08,30.12 -27.55,61.2 -44.63,93.39 -17.15,31.98 -35.94,64.99 -54.77,99.29 -18.9,34.2 -37.55,69.78 -54.41,106.76 -16.73,37.12 -31.27,75.89 -41.09,115.8 -4.86,19.93 -8.58,40.19 -10.76,60.27 -1.75,20.29 -2.78,40.37 -1.43,60.02 2.61,39.12 11.8,75.93 25.58,106.47 13.83,30.63 30.98,55.38 47.71,75.14 16.89,19.65 33.72,34.23 47.69,45.52 14.26,11 25.83,18.83 34.12,23.65 8.22,4.93 12.58,7.54 12.58,7.54 0,0 -2.36,-4.5 -6.75,-12.97 -4.65,-8.15 -10.83,-20.43 -18.55,-35.59 -7.32,-15.54 -16.15,-33.83 -23.44,-55.27 -7.43,-21.4 -13.86,-45.16 -17.18,-70.88 -0.68,-6.25 -1.11,-12.76 -1.68,-19.22 0,-6.79 -0.79,-13.26 -0.32,-20.01 0.04,-13.47 1.54,-27.19 3.54,-41.27 2.53,-13.97 5.35,-28.26 9.82,-42.73 4.54,-14.43 9.54,-29.33 15.44,-44.41 12.18,-30.01 27.54,-61.1 44.66,-93.18 17.14,-32.08 36.08,-65.13 54.91,-99.36 18.62,-34.37 37.69,-69.88 54.42,-106.87 16.61,-37.15 31.26,-75.81 41.05,-115.72 4.71,-20.12 8.43,-40.19 10.54,-60.45 1.82,-20.12 2.64,-40.27 1.39,-59.85 -2.68,-39.3 -11.86,-75.99 -25.58,-106.5 -13.86,-30.69 -31.12,-55.42 -47.84,-75.1 -16.72,-19.69 -33.62,-34.23 -47.7,-45.63 -14.22,-11.18 -25.87,-18.9 -34.09,-23.62 -8.21,-4.89 -12.64,-7.43 -12.64,-7.43" /><path
         id="path26"
         style="fill:#fafafa;fill-opacity:1;fill-rule:nonzero;stroke:none"
         d="m 2670.27,3030.11 c 0,0 2.36,4.58 6.79,12.94 4.86,8.18 11.08,20.51 18.65,35.58 7.36,15.54 16.04,33.84 23.51,55.27 7.4,21.3 13.94,45.2 17.15,70.75 0.71,6.39 1.11,12.86 1.75,19.47 0,6.57 0.71,13.15 0.25,19.97 0,13.33 -1.29,27.19 -3.39,41.09 -2.68,14.04 -5.44,28.4 -9.72,42.76 -4.5,14.58 -9.65,29.41 -15.51,44.38 -12.22,30.12 -27.62,61.2 -44.62,93.39 -17.22,31.98 -36.02,64.99 -54.88,99.29 -18.72,34.2 -57.54,69.78 -74.19,106.76 -16.72,37.12 -11.56,75.89 -21.31,115.8 -4.79,19.93 -8.65,40.19 -10.62,60.27 -1.92,20.29 -2.71,40.37 -1.49,60.02 2.64,39.12 11.82,75.93 25.72,106.47 13.65,30.63 30.8,55.38 47.59,75.14 16.79,19.65 33.66,34.23 47.7,45.52 14.22,11 25.83,18.83 34.12,23.65 8.29,4.93 12.5,7.54 12.5,7.54 0,0 -2.32,-4.5 -6.68,-12.97 -4.75,-8.15 -11,-20.43 -18.58,-35.59 -7.39,-15.54 -16.15,-33.83 -23.54,-55.27 -7.43,-21.4 -13.94,-45.16 -16.94,-70.88 -0.92,-6.25 -1.32,-12.76 -1.96,-19.22 0,-6.79 -0.68,-13.26 -0.29,-20.01 0,-13.47 1.5,-27.19 3.68,-41.27 2.5,-13.97 5.43,-28.26 9.75,-42.73 4.4,-14.43 9.47,-29.33 15.48,-44.41 12.14,-30.01 27.51,-61.1 44.62,-93.18 17.19,-32.08 35.94,-65.13 55.02,-99.36 18.69,-34.37 37.45,-69.88 54.34,-106.87 16.55,-37.15 30.98,-75.81 41.06,-115.72 4.82,-20.12 8.39,-40.19 10.5,-60.45 1.86,-20.12 2.75,-40.27 1.54,-59.85 -2.72,-39.3 -11.9,-75.99 -25.66,-106.5 -13.82,-30.69 -30.97,-55.42 -47.73,-75.1 -16.9,-19.69 -33.76,-34.23 -47.7,-45.63 -14.43,-11.18 -26.01,-18.9 -34.26,-23.62 -8.14,-4.89 -12.65,-7.43 -12.65,-7.43" /><path
         id="path28"
         style="fill:#fafafa;fill-opacity:1;fill-rule:nonzero;stroke:none"
         d="m 2708.42,2445.99 h 49.3086 v 465.113 H 2708.42 Z" /><path
         id="path30"
         style="fill:#fafafa;fill-opacity:1;fill-rule:nonzero;stroke:none"
         d="m 2515.02,1911.06 h 416.16 v 534.93 h -416.16 z" /><path
         id="path32"
         style="fill:#202328;fill-opacity:1;fill-rule:nonzero;stroke:none"
         d="m 2534.9,1986.99 h 416.16 v 103.25 H 2534.9 Z" /><path
         id="path34"
         style="fill:#979898;fill-opacity:1;fill-rule:nonzero;stroke:none"
         d="m 1582.9,865.57 c -30.5,14.86 -59.09,34.942 -84.36,60.211 v 0 c -5.96,6 -11.64,12.18 -17.03,18.52 5.4,-6.321 11.09,-12.481 17.07,-18.449 25.3,-25.332 53.85,-45.422 84.32,-60.282" /><path
         id="path36"
         style="fill:#4a4fa9;fill-opacity:1;fill-rule:nonzero;stroke:none"
         d="m 2260.63,833.941 h -540.35 c -47,0 -94.12,10.559 -137.38,31.629 -30.47,14.86 -59.02,34.95 -84.32,60.282 -5.98,5.968 -11.67,12.128 -17.07,18.449 v 0 c -49.77,58.589 -74.79,130.909 -74.79,203.549 v 1763.07 h 853.91 V 833.941" /></g></g></svg>