<?xml version="1.0" encoding="UTF-8" standalone="no"?>
<svg
   xmlns:dc="http://purl.org/dc/elements/1.1/"
   xmlns:cc="http://creativecommons.org/ns#"
   xmlns:rdf="http://www.w3.org/1999/02/22-rdf-syntax-ns#"
   xmlns:svg="http://www.w3.org/2000/svg"
   xmlns="http://www.w3.org/2000/svg"
   viewBox="0 0 724.32001 357.33334"
   height="357.33334"
   width="724.32001"
   xml:space="preserve"
   id="svg2"
   version="1.1"><metadata
     id="metadata8"><rdf:RDF><cc:Work
         rdf:about=""><dc:format>image/svg+xml</dc:format><dc:type
           rdf:resource="http://purl.org/dc/dcmitype/StillImage" /></cc:Work></rdf:RDF></metadata><defs
     id="defs6" /><g
     transform="matrix(1.3333333,0,0,-1.3333333,0,357.33333)"
     id="g10"><g
       transform="scale(0.1)"
       id="g12"><path
         id="path14"
         style="fill:#fef9d8;fill-opacity:1;fill-rule:nonzero;stroke:none"
         d="m 663.109,1406.61 c -6.41,0.65 -25.711,3.32 -25.711,3.32 0,0 -10.761,19.43 -11.996,21.87 -0.703,1.39 -1.398,3.16 -2.586,3.12 -1.238,-0.03 -1.64,-1.45 -2.55,-3.07 -2.094,-3.74 -8.336,-15.7 -11.524,-21.92 0,0 -19.297,-2.67 -25.711,-3.32 -6.097,-0.61 -2.797,-4.02 -0.695,-5.95 2.098,-1.92 17.488,-16.79 17.488,-16.79 0,0 -3.324,-21.34 -4.199,-25.18 -0.875,-3.85 1.227,-4.55 3.848,-3.33 2.625,1.23 22.211,12.6 22.211,12.6 l 1.359,0.67 1.414,-0.67 c 0,0 19.59,-11.37 22.215,-12.6 2.621,-1.22 4.723,-0.52 3.848,3.33 -0.875,3.84 -4.2,25.18 -4.2,25.18 0,0 15.391,14.87 17.489,16.79 2.101,1.93 5.402,5.34 -0.7,5.95" /><path
         id="path16"
         style="fill:#fef9d8;fill-opacity:1;fill-rule:nonzero;stroke:none"
         d="m 2672.71,2651.7 c -6.41,0.64 -25.71,3.32 -25.71,3.32 0,0 -10.76,19.43 -11.99,21.87 -0.71,1.38 -1.4,3.15 -2.59,3.12 -1.24,-0.03 -1.64,-1.45 -2.55,-3.08 -2.09,-3.73 -8.34,-15.69 -11.52,-21.91 0,0 -19.3,-2.68 -25.71,-3.32 -6.11,-0.61 -2.8,-4.02 -0.7,-5.95 2.1,-1.92 17.49,-16.79 17.49,-16.79 0,0 -3.33,-21.34 -4.2,-25.19 -0.88,-3.84 1.22,-4.54 3.85,-3.32 2.62,1.23 22.21,12.59 22.21,12.59 l 1.36,0.68 1.41,-0.68 c 0,0 19.59,-11.36 22.21,-12.59 2.63,-1.22 4.73,-0.52 3.85,3.32 -0.87,3.85 -4.2,25.19 -4.2,25.19 0,0 15.39,14.87 17.49,16.79 2.1,1.93 5.4,5.34 -0.7,5.95" /><path
         id="path18"
         style="fill:#fef9d8;fill-opacity:1;fill-rule:nonzero;stroke:none"
         d="m 4204.16,1470.88 c -6.41,0.65 -25.71,3.33 -25.71,3.33 0,0 -10.76,19.42 -12,21.86 -0.7,1.39 -1.4,3.16 -2.58,3.12 -1.24,-0.03 -1.64,-1.45 -2.55,-3.07 -2.1,-3.74 -8.34,-15.7 -11.53,-21.91 0,0 -19.29,-2.68 -25.71,-3.33 -6.1,-0.61 -2.79,-4.02 -0.7,-5.94 2.1,-1.93 17.49,-16.8 17.49,-16.8 0,0 -3.32,-21.34 -4.19,-25.18 -0.88,-3.85 1.22,-4.55 3.84,-3.33 2.63,1.23 22.22,12.6 22.22,12.6 l 1.35,0.67 1.42,-0.67 c 0,0 19.59,-11.37 22.21,-12.6 2.62,-1.22 4.72,-0.52 3.85,3.33 -0.88,3.84 -4.2,25.18 -4.2,25.18 0,0 15.39,14.87 17.49,16.8 2.1,1.92 5.4,5.33 -0.7,5.94" /><path
         id="path20"
         style="fill:#fef9d8;fill-opacity:1;fill-rule:nonzero;stroke:none"
         d="m 1340.53,2141.36 c -6.41,0.64 -25.71,3.32 -25.71,3.32 0,0 -10.76,19.43 -12,21.86 -0.7,1.39 -1.4,3.16 -2.58,3.12 -1.24,-0.03 -1.64,-1.45 -2.55,-3.07 -2.1,-3.74 -8.34,-15.7 -11.53,-21.91 0,0 -19.29,-2.68 -25.71,-3.32 -6.1,-0.62 -2.79,-4.03 -0.69,-5.95 2.09,-1.93 17.48,-16.8 17.48,-16.8 0,0 -3.32,-21.33 -4.19,-25.18 -0.88,-3.85 1.22,-4.55 3.84,-3.32 2.63,1.22 22.22,12.59 22.22,12.59 l 1.36,0.67 1.41,-0.67 c 0,0 19.59,-11.37 22.21,-12.59 2.62,-1.23 4.72,-0.53 3.85,3.32 -0.88,3.85 -4.2,25.18 -4.2,25.18 0,0 15.39,14.87 17.49,16.8 2.1,1.92 5.4,5.33 -0.7,5.95" /><path
         id="path22"
         style="fill:#fef9d8;fill-opacity:1;fill-rule:nonzero;stroke:none"
         d="m 2048.28,2525.03 c -5.05,0.51 -20.26,2.61 -20.26,2.61 0,0 -8.48,15.32 -9.46,17.24 -0.55,1.09 -1.1,2.48 -2.04,2.46 -0.97,-0.03 -1.29,-1.14 -2.01,-2.43 -1.65,-2.94 -6.57,-12.36 -9.08,-17.27 0,0 -15.21,-2.1 -20.26,-2.61 -4.81,-0.49 -2.21,-3.17 -0.55,-4.69 1.65,-1.52 13.78,-13.23 13.78,-13.23 0,0 -2.62,-16.82 -3.31,-19.86 -0.69,-3.03 0.97,-3.58 3.04,-2.61 2.06,0.96 17.5,9.92 17.5,9.92 l 1.07,0.53 1.12,-0.53 c 0,0 15.44,-8.96 17.5,-9.92 2.07,-0.97 3.73,-0.42 3.04,2.61 -0.69,3.04 -3.31,19.86 -3.31,19.86 0,0 12.13,11.71 13.78,13.23 1.66,1.52 4.26,4.2 -0.55,4.69" /><path
         id="path24"
         style="fill:#fef9d8;fill-opacity:1;fill-rule:nonzero;stroke:none"
         d="m 2971.3,2037.41 c -5.05,0.51 -20.26,2.62 -20.26,2.62 0,0 -8.48,15.31 -9.46,17.24 -0.55,1.09 -1.1,2.48 -2.04,2.46 -0.97,-0.03 -1.29,-1.15 -2.01,-2.43 -1.65,-2.94 -6.56,-12.37 -9.08,-17.27 0,0 -15.21,-2.11 -20.26,-2.62 -4.81,-0.48 -2.2,-3.17 -0.55,-4.68 1.65,-1.52 13.78,-13.24 13.78,-13.24 0,0 -2.62,-16.81 -3.3,-19.85 -0.69,-3.03 0.96,-3.58 3.03,-2.62 2.07,0.97 17.5,9.93 17.5,9.93 l 1.07,0.53 1.12,-0.53 c 0,0 15.44,-8.96 17.5,-9.93 2.07,-0.96 3.73,-0.41 3.04,2.62 -0.69,3.04 -3.31,19.85 -3.31,19.85 0,0 12.13,11.72 13.78,13.24 1.66,1.51 4.26,4.2 -0.55,4.68" /><path
         id="path26"
         style="fill:#fef9d8;fill-opacity:1;fill-rule:nonzero;stroke:none"
         d="m 4824.75,1291.85 c -5.05,0.51 -20.26,2.62 -20.26,2.62 0,0 -8.48,15.31 -9.46,17.23 -0.55,1.1 -1.1,2.49 -2.04,2.47 -0.97,-0.03 -1.29,-1.15 -2.01,-2.43 -1.65,-2.94 -6.57,-12.37 -9.08,-17.27 0,0 -15.21,-2.11 -20.26,-2.62 -4.81,-0.48 -2.21,-3.17 -0.55,-4.68 1.65,-1.52 13.78,-13.24 13.78,-13.24 0,0 -2.62,-16.81 -3.3,-19.85 -0.7,-3.03 0.96,-3.58 3.03,-2.62 2.06,0.97 17.5,9.93 17.5,9.93 l 1.07,0.53 1.12,-0.53 c 0,0 15.44,-8.96 17.5,-9.93 2.07,-0.96 3.73,-0.41 3.04,2.62 -0.69,3.04 -3.31,19.85 -3.31,19.85 0,0 12.13,11.72 13.78,13.24 1.66,1.51 4.26,4.2 -0.55,4.68" /><path
         id="path28"
         style="fill:#fef9d8;fill-opacity:1;fill-rule:nonzero;stroke:none"
         d="m 1515.22,1830.12 c -5.05,0.51 -20.26,2.61 -20.26,2.61 0,0 -8.48,15.32 -9.45,17.24 -0.56,1.09 -1.11,2.49 -2.04,2.46 -0.98,-0.03 -1.3,-1.14 -2.01,-2.43 -1.65,-2.94 -6.57,-12.36 -9.08,-17.27 0,0 -15.21,-2.1 -20.27,-2.61 -4.81,-0.48 -2.2,-3.17 -0.55,-4.69 1.66,-1.52 13.79,-13.23 13.79,-13.23 0,0 -2.62,-16.82 -3.31,-19.85 -0.69,-3.04 0.96,-3.59 3.03,-2.62 2.07,0.96 17.51,9.92 17.51,9.92 l 1.07,0.53 1.11,-0.53 c 0,0 15.44,-8.96 17.51,-9.92 2.06,-0.97 3.72,-0.42 3.03,2.62 -0.69,3.03 -3.31,19.85 -3.31,19.85 0,0 12.13,11.71 13.78,13.23 1.66,1.52 4.26,4.21 -0.55,4.69" /><path
         id="path30"
         style="fill:#fef9d8;fill-opacity:1;fill-rule:nonzero;stroke:none"
         d="m 3499.19,2493.46 c -5.05,0.51 -20.26,2.62 -20.26,2.62 0,0 -8.48,15.31 -9.46,17.23 -0.55,1.09 -1.1,2.49 -2.04,2.46 -0.97,-0.03 -1.28,-1.14 -2,-2.43 -1.65,-2.94 -6.57,-12.36 -9.09,-17.26 0,0 -15.2,-2.11 -20.26,-2.62 -4.8,-0.48 -2.2,-3.17 -0.55,-4.69 1.66,-1.52 13.78,-13.23 13.78,-13.23 0,0 -2.61,-16.82 -3.3,-19.85 -0.69,-3.04 0.96,-3.59 3.03,-2.62 2.07,0.96 17.51,9.92 17.51,9.92 l 1.07,0.53 1.11,-0.53 c 0,0 15.44,-8.96 17.51,-9.92 2.06,-0.97 3.72,-0.42 3.03,2.62 -0.69,3.03 -3.31,19.85 -3.31,19.85 0,0 12.13,11.71 13.78,13.23 1.66,1.52 4.26,4.21 -0.55,4.69" /><path
         id="path32"
         style="fill:#beb6b2;fill-opacity:1;fill-rule:nonzero;stroke:none"
         d="m 1170.08,1468.38 h 24.1875 V 1664.7 H 1170.08 Z" /><path
         id="path34"
         style="fill:#f9b1ac;fill-opacity:1;fill-rule:nonzero;stroke:none"
         d="m 1194.27,1575.28 h 132.742 v 89.9102 H 1194.27 Z" /><path
         id="path36"
         style="fill:#fbf1dd;fill-opacity:1;fill-rule:nonzero;stroke:none"
         d="m 1085.61,222.93 h -90.965 90.965 v 0 m -90.965,269.191 v 9.949 H 831.398 v 619.47 h 699.622 l -124.57,-70.45 h -54.98 V 1020 l -48.37,-27.359 v 58.449 h -96.74 V 937.93 l -82.17,-46.469 h 269.79 -269.79 v -50.242 h -62.94 v -128.09 h 96.74 V 840.59 h 24.18 V 679.648 l -48.3,-48.296 h -72.62 v -72.633 l -48.37,-48.367 v 121 H 916.137 V 503.25 h 89.643 l -11.135,-11.129 m -78.508,349.098 v -128.09 h 96.743 v 128.09 H 916.137 M 1061.25,1051.09 V 923 h 96.74 v 128.09 h -96.74 m -145.113,0 V 923 h 96.743 v 128.09 h -96.743" /><path
         id="path38"
         style="fill:#eee2cc;fill-opacity:1;fill-rule:nonzero;stroke:none"
         d="m 1085.61,222.93 h -90.965 v 70.449 h 18.235 v 128.09 h -18.235 v 70.652 l 11.135,11.129 h 7.1 v 7.102 l 48.37,48.367 V 503.25 h 96.74 v 2.449 h 48.37 -24.19 v -84.23 h -96.56 V 222.93 m 96.56,333.64 h -24.18 v 74.782 h -24.12 l 48.3,48.296 V 556.57" /><path
         id="path40"
         style="fill:#fbf1dd;fill-opacity:1;fill-rule:nonzero;stroke:none"
         d="m 732.492,631.352 h -36.543 c -1.16,23.957 -3.969,51.699 -8.261,81.777 h 95.699 v 128.09 H 686.648 V 720.289 C 677.379,782.648 661.941,854.352 641.781,923 H 831.398 V 730.25 l -98.906,-98.898" /><path
         id="path42"
         style="fill:#eee2cc;fill-opacity:1;fill-rule:nonzero;stroke:none"
         d="M 831.398,502.07 H 671.352 c 6.164,12.16 11.3,24.93 15.296,38.2 v -37.02 h 96.739 v 128.102 h -50.895 l 98.906,98.898 V 502.07" /><path
         id="path44"
         style="fill:#beb6b2;fill-opacity:1;fill-rule:nonzero;stroke:none"
         d="M 1531.02,1121.54 H 791.984 v 49.27 h 780.376 v -25.89 l -41.34,-23.38" /><path
         id="path46"
         style="fill:#fbf1dd;fill-opacity:1;fill-rule:nonzero;stroke:none"
         d="m 1060.34,1170.81 h -47.46 v 248.3 h 338.59 -42.82 l -68.58,-68.57 c -14.6,15.21 -35.14,24.68 -57.9,24.68 -44.32,0 -80.26,-35.93 -80.26,-80.26 0,-22.75 9.47,-43.3 24.68,-57.9 l -66.25,-66.25" /><path
         id="path48"
         style="fill:#beb6b2;fill-opacity:1;fill-rule:nonzero;stroke:none"
         d="M 1391.29,1419.11 H 973.063 v 49.27 h 418.227 v -49.27" /><path
         id="path50"
         style="fill:#beb6b2;fill-opacity:1;fill-rule:nonzero;stroke:none"
         d="M 831.398,923 H 641.781 c -4.894,16.672 -10.058,33.141 -15.488,49.27 H 831.398 V 923" /><path
         id="path52"
         style="fill:#b2cacd;fill-opacity:1;fill-rule:nonzero;stroke:none"
         d="m 994.645,293.379 h 18.2344 v 0 z" /><path
         id="path54"
         style="fill:#b2cacd;fill-opacity:1;fill-rule:nonzero;stroke:none"
         d="m 1012.88,503.25 h -96.743 v 128.102 h 96.743 V 503.25" /><path
         id="path56"
         style="fill:#b2cacd;fill-opacity:1;fill-rule:nonzero;stroke:none"
         d="m 1157.99,503.25 h -96.74 v 128.102 h 96.74 l -24.12,-0.012 -72.62,-72.621 v -55.457 h 96.74 v -0.012" /><path
         id="path58"
         style="fill:#b2cacd;fill-opacity:1;fill-rule:nonzero;stroke:none"
         d="m 916.137,713.129 h 96.7422 v 128.09 H 916.137 Z" /><path
         id="path60"
         style="fill:#b2cacd;fill-opacity:1;fill-rule:nonzero;stroke:none"
         d="m 1157.99,713.129 h -96.74 v 128.09 h 62.94 v -0.629 h 33.8 V 713.129" /><path
         id="path62"
         style="fill:#b2cacd;fill-opacity:1;fill-rule:nonzero;stroke:none"
         d="m 916.137,923 h 96.7422 v 128.09 H 916.137 Z" /><path
         id="path64"
         style="fill:#b2cacd;fill-opacity:1;fill-rule:nonzero;stroke:none"
         d="m 1061.25,923 h 96.7383 v 128.09 H 1061.25 Z" /><path
         id="path66"
         style="fill:#b2cacd;fill-opacity:1;fill-rule:nonzero;stroke:none"
         d="m 1206.36,937.93 v 113.16 h 96.74 v -58.449 l -96.74,-54.711" /><path
         id="path68"
         style="fill:#b2cacd;fill-opacity:1;fill-rule:nonzero;stroke:none"
         d="m 1351.47,1020 v 31.09 h 54.98 L 1351.47,1020" /><path
         id="path70"
         style="fill:#b2cacd;fill-opacity:1;fill-rule:nonzero;stroke:none"
         d="m 783.387,503.25 h -96.739 v 37.02 -37.008 h 96.739 v -0.012 m -87.18,91.809 c 0.231,4.261 0.348,8.55 0.348,12.871 v 0 c 0,7.32 -0.203,15.129 -0.606,23.422 h 87.438 l -50.895,-0.012 -36.285,-36.281" /><path
         id="path72"
         style="fill:#b2cacd;fill-opacity:1;fill-rule:nonzero;stroke:none"
         d="m 783.387,713.129 h -95.699 c -0.336,2.371 -0.684,4.762 -1.04,7.16 v 120.93 h 96.739 v -128.09" /><path
         id="path74"
         style="fill:#beb6b2;fill-opacity:1;fill-rule:nonzero;stroke:none"
         d="m 1085.61,222.93 h 96.5625 V 421.469 H 1085.61 Z" /><path
         id="path76"
         style="fill:#b2cacd;fill-opacity:1;fill-rule:nonzero;stroke:none"
         d="m 1126.59,1237.06 c -15.21,14.6 -24.68,35.15 -24.68,57.9 0,44.33 35.94,80.26 80.26,80.26 22.76,0 43.3,-9.47 57.9,-24.68 l -0.04,-0.04 -113.39,-113.4 v 0 l -0.05,-0.04" /><path
         id="path78"
         style="fill:#eee2cc;fill-opacity:1;fill-rule:nonzero;stroke:none"
         d="m 1351.47,1170.81 h -291.13 l 66.25,66.25 0.05,0.04 c 14.42,-13.84 33.96,-22.4 55.54,-22.4 44.32,0 80.25,35.93 80.25,80.26 0,21.57 -8.55,41.11 -22.4,55.54 v 0 l 0.04,0.04 68.58,68.57 h 42.82 v -248.3" /><path
         id="path80"
         style="fill:#a7b8c0;fill-opacity:1;fill-rule:nonzero;stroke:none"
         d="m 1182.18,1214.7 c -21.58,0 -41.12,8.56 -55.54,22.4 v 0 l 113.39,113.4 c 13.85,-14.43 22.4,-33.97 22.4,-55.54 0,-44.33 -35.93,-80.26 -80.25,-80.26" /><path
         id="path82"
         style="fill:#a7b8c0;fill-opacity:1;fill-rule:nonzero;stroke:none"
         d="m 783.387,503.262 h -96.739 v 37.008 c 5.258,17.492 8.532,35.839 9.559,54.789 l 36.285,36.281 h 50.895 V 503.262" /><path
         id="path84"
         style="fill:#a7b8c0;fill-opacity:1;fill-rule:nonzero;stroke:none"
         d="m 1012.88,293.379 h -18.235 v 128.09 h 18.235 v -128.09" /><path
         id="path86"
         style="fill:#a7b8c0;fill-opacity:1;fill-rule:nonzero;stroke:none"
         d="m 1157.99,503.262 h -96.74 v 55.457 l 72.62,72.621 h 24.12 v -74.77 h -33.8 v -50.871 h 33.8 v -2.437" /><path
         id="path88"
         style="fill:#fddc8d;fill-opacity:1;fill-rule:nonzero;stroke:none"
         d="m 1888.29,1058.8 -39.74,22.48 v 6.19 h -10.95 l -87.49,49.48 h 98.44 v 106.64 h -113.76 v -97.98 l -55.22,31.23 v 897.48 h 949.68 v -274.57 l -55.22,-55.21 v 26.84 h -265.82 v -106.64 h 186.02 l -49.48,-49.48 h -136.54 v -106.64 h 29.9 l -71.38,-71.39 v 21.91 H 2000.91 V 1352.5 h 181.08 l -108.91,-108.91 h -72.17 v -72.17 L 1888.29,1058.8 m -153.5,400.34 V 1352.5 h 113.76 v 106.64 h -113.76 m 266.12,156.12 v -106.64 h 265.82 v 106.64 h -265.82 m -266.12,0 v -106.64 h 113.76 v 106.64 h -113.76 m 266.12,156.12 v -106.64 h 265.82 v 106.64 h -265.82 m -266.12,0 v -106.64 h 113.76 v 106.64 h -113.76 m 573.42,156.12 v -106.64 h 265.82 v 106.64 h -265.82 m -307.3,0 v -106.64 h 265.82 v 106.64 h -265.82 m -266.12,0 v -106.64 h 113.76 v 106.64 h -113.76" /><path
         id="path90"
         style="fill:#e3b979;fill-opacity:1;fill-rule:nonzero;stroke:none"
         d="m 2629.25,695.379 h -55.22 v 79.84 h -265.82 v -32.231 c -30.91,35.953 -71.31,57.723 -115.51,57.723 -23.53,0 -45.99,-6.172 -66.5,-17.359 v 41.359 h 140.53 v 106.641 h -153.08 l -87.49,49.48 h 240.57 v 106.638 h -265.82 v -92.361 l -112.62,63.691 112.62,112.62 v -34.47 h 265.82 v 106.64 h -193.65 l 108.91,108.91 h 84.74 v 84.74 l 71.38,71.38 h 235.92 v 106.64 h -129.28 l 49.48,49.48 h 79.8 v 79.8 l 55.22,55.21 V 695.379 M 2308.21,931.352 V 824.711 h 265.82 v 106.641 h -265.82 m 0,156.118 V 980.832 h 265.82 v 106.638 h -265.82 m 0,156.12 v -106.64 h 265.82 v 106.64 h -265.82 m 0,215.55 V 1352.5 h 265.82 v 106.64 h -265.82" /><path
         id="path92"
         style="fill:#89807b;fill-opacity:1;fill-rule:nonzero;stroke:none"
         d="M 2682.6,2074.32 H 1626.22 v 66.69 H 2682.6 v -66.69" /><path
         id="path94"
         style="fill:#6c9fa8;fill-opacity:1;fill-rule:nonzero;stroke:none"
         d="m 2308.21,1820.86 h 265.82 v 106.637 h -265.82 z" /><path
         id="path96"
         style="fill:#6c9fa8;fill-opacity:1;fill-rule:nonzero;stroke:none"
         d="m 2494.24,1664.74 h -186.03 v 106.64 h 265.82 v -26.84 l -79.79,-79.8" /><path
         id="path98"
         style="fill:#6c9fa8;fill-opacity:1;fill-rule:nonzero;stroke:none"
         d="m 2574.03,1508.62 h -265.82 v 106.64 h 136.54 l -106.64,-106.64 h 235.92 v 0" /><path
         id="path100"
         style="fill:#5c8594;fill-opacity:1;fill-rule:nonzero;stroke:none"
         d="m 2308.21,1352.5 h 265.82 v 106.641 h -265.82 z" /><path
         id="path102"
         style="fill:#6c9fa8;fill-opacity:1;fill-rule:nonzero;stroke:none"
         d="m 2000.91,1820.86 h 265.82 v 106.637 h -265.82 z" /><path
         id="path104"
         style="fill:#6c9fa8;fill-opacity:1;fill-rule:nonzero;stroke:none"
         d="m 2000.91,1664.74 h 265.82 v 106.641 h -265.82 z" /><path
         id="path106"
         style="fill:#6c9fa8;fill-opacity:1;fill-rule:nonzero;stroke:none"
         d="m 2000.91,1508.62 h 265.82 v 106.641 h -265.82 z" /><path
         id="path108"
         style="fill:#6c9fa8;fill-opacity:1;fill-rule:nonzero;stroke:none"
         d="m 2266.73,1352.5 h -265.82 v 106.64 h 265.82 v -21.9 l -84.74,-84.74 h 84.74 v 0" /><path
         id="path110"
         style="fill:#5c8594;fill-opacity:1;fill-rule:nonzero;stroke:none"
         d="m 2308.21,1136.95 h 265.82 v 106.641 h -265.82 z" /><path
         id="path112"
         style="fill:#5c8594;fill-opacity:1;fill-rule:nonzero;stroke:none"
         d="m 2308.21,980.832 h 265.82 v 106.637 h -265.82 z" /><path
         id="path114"
         style="fill:#5c8594;fill-opacity:1;fill-rule:nonzero;stroke:none"
         d="m 2308.21,824.711 h 265.82 v 106.641 h -265.82 z" /><path
         id="path116"
         style="fill:#5c8594;fill-opacity:1;fill-rule:nonzero;stroke:none"
         d="m 2574.03,695.379 h -234.55 c -8.79,17.703 -19.31,33.711 -31.27,47.609 v 32.231 h 265.82 v -79.84" /><path
         id="path118"
         style="fill:#6c9fa8;fill-opacity:1;fill-rule:nonzero;stroke:none"
         d="m 2000.91,1136.95 v 106.64 h 265.82 -193.65 l -72.16,-72.17 v -34.47" /><path
         id="path120"
         style="fill:#5c8594;fill-opacity:1;fill-rule:nonzero;stroke:none"
         d="m 2266.73,980.832 h -240.57 l -25.25,14.277 v 92.361 h 265.82 V 980.832" /><path
         id="path122"
         style="fill:#5c8594;fill-opacity:1;fill-rule:nonzero;stroke:none"
         d="M 2266.73,824.711 H 2126.2 v 15.879 h 57.98 v 50.871 l -70.53,39.891 h 153.08 V 824.711" /><path
         id="path124"
         style="fill:#6c9fa8;fill-opacity:1;fill-rule:nonzero;stroke:none"
         d="m 1734.79,1820.86 h 113.762 v 106.637 H 1734.79 Z" /><path
         id="path126"
         style="fill:#6c9fa8;fill-opacity:1;fill-rule:nonzero;stroke:none"
         d="m 1734.79,1664.74 h 113.762 v 106.641 H 1734.79 Z" /><path
         id="path128"
         style="fill:#6c9fa8;fill-opacity:1;fill-rule:nonzero;stroke:none"
         d="m 1734.79,1508.62 h 113.762 v 106.641 H 1734.79 Z" /><path
         id="path130"
         style="fill:#6c9fa8;fill-opacity:1;fill-rule:nonzero;stroke:none"
         d="m 1734.79,1352.5 h 113.762 v 106.641 H 1734.79 Z" /><path
         id="path132"
         style="fill:#6c9fa8;fill-opacity:1;fill-rule:nonzero;stroke:none"
         d="m 1848.55,1136.95 h -98.44 l -15.32,8.66 v 97.98 h 113.76 v -106.64" /><path
         id="path134"
         style="fill:#6c9fa8;fill-opacity:1;fill-rule:nonzero;stroke:none"
         d="m 1848.55,1081.28 -10.95,6.19 h 10.95 v -6.19" /><path
         id="path136"
         style="fill:#5c8594;fill-opacity:1;fill-rule:nonzero;stroke:none"
         d="m 2574.03,1508.62 h -235.92 l 106.64,106.64 h 129.28 v -106.64" /><path
         id="path138"
         style="fill:#5c8594;fill-opacity:1;fill-rule:nonzero;stroke:none"
         d="m 2266.73,1352.5 h -84.74 l 84.74,84.74 v -84.74" /><path
         id="path140"
         style="fill:#5c8594;fill-opacity:1;fill-rule:nonzero;stroke:none"
         d="m 2574.03,1664.74 h -79.79 l 79.79,79.8 v -79.8" /><path
         id="path142"
         style="fill:#5c8594;fill-opacity:1;fill-rule:nonzero;stroke:none"
         d="m 2266.73,1136.95 h -265.81 v 34.47 l 72.16,72.17 h 193.65 v -106.64" /><path
         id="path144"
         style="fill:#9dce1f;fill-opacity:1;fill-rule:nonzero;stroke:none"
         d="m 696.555,607.93 c 0,-129.168 -104.418,-233.879 -233.231,-233.879 -128.808,0 -233.23,104.711 -233.23,233.879 0,179.441 104.422,592.76 233.23,592.76 128.813,0 233.231,-463.6 233.231,-592.76" /><path
         id="path146"
         style="fill:#77a62b;fill-opacity:1;fill-rule:nonzero;stroke:none"
         d="m 696.555,607.93 c 0,165.629 -104.418,592.76 -233.231,592.76 V 374.051 c 128.813,0 233.231,104.711 233.231,233.879" /><path
         id="path148"
         style="fill:#855a2f;fill-opacity:1;fill-rule:nonzero;stroke:none"
         d="m 444.418,607.281 -14.09,-378.633 h 65.988 L 482.23,607.281 h -37.812" /><path
         id="path150"
         style="fill:#704323;fill-opacity:1;fill-rule:nonzero;stroke:none"
         d="M 463.324,607.281 V 228.648 h 32.992 L 482.23,607.281 h -18.906" /><path
         id="path152"
         style="fill:#855a2f;fill-opacity:1;fill-rule:nonzero;stroke:none"
         d="m 5022,405.191 -14.71,-188.8 h 68.88 l -14.7,188.8 H 5022" /><path
         id="path154"
         style="fill:#704323;fill-opacity:1;fill-rule:nonzero;stroke:none"
         d="m 5041.73,405.191 v -188.8 h 34.44 l -14.7,188.8 h -19.74" /><path
         id="path156"
         style="fill:#9dce1f;fill-opacity:1;fill-rule:nonzero;stroke:none"
         d="m 4849.89,345.059 191.84,822.831 191.85,-822.831 h -383.69" /><path
         id="path158"
         style="fill:#628c2c;fill-opacity:1;fill-rule:nonzero;stroke:none"
         d="M 5233.58,345.059 5041.73,1167.89 V 345.059 h 191.85" /><path
         id="path160"
         style="fill:#cbecd1;fill-opacity:1;fill-rule:nonzero;stroke:none"
         d="m 4188.22,591.262 h -0.08 v 24.57 h -134.72 v -24.57 h -108.95 v 645.008 l 442.21,-227.51 c -9.62,-27.6 -18.49,-56.401 -26.5,-85.569 H 4237.24 V 818.219 h 98.03 c -3.32,-16.5 -6.32,-32.778 -8.98,-48.707 h -89.05 V 664.531 h 24.26 l -73.28,-73.269 m -134.8,178.25 V 664.531 h 134.72 v 104.981 h -134.72 m 0,153.679 V 818.219 h 134.72 v 104.972 h -134.72" /><path
         id="path162"
         style="fill:#aadeba;fill-opacity:1;fill-rule:nonzero;stroke:none"
         d="m 4237.24,591.262 h -49.02 l 73.28,73.269 h 51.87 c -1.13,-15.91 -1.71,-30.769 -1.71,-44.351 0,-1.461 0.02,-2.899 0.04,-4.348 h -74.46 v -24.57" /><path
         id="path164"
         style="fill:#cbecd1;fill-opacity:1;fill-rule:nonzero;stroke:none"
         d="m 3853.51,221.32 h -472.91 472.91 v 0 m -630.54,548.192 h -12.99 c -2.55,15.808 -5.46,32.097 -8.69,48.707 h 70.39 l -48.71,-48.707 m 76.35,76.34 v 77.339 h -121.98 c -26.67,101.779 -63.48,202.489 -106.44,267.659 v 540.27 h 873.57 V 1491 l -93.7,-93.7 v 45.44 h -134.72 v -104.97 h 75.18 l -48.71,-48.71 h -26.47 v -26.48 l -49.1,-49.09 v 75.57 h -134.71 v -104.98 h 105.31 l -48.71,-48.71 h -56.6 v -56.6 L 3376.66,923.191 h -28.24 v -28.242 l -49.1,-49.097 m 49.1,289.518 V 1030.4 h 134.72 v 104.97 h -134.72 m -183.82,0 V 1030.4 h 134.72 v 104.97 H 3164.6 m 183.82,153.69 v -104.98 h 134.72 v 104.98 h -134.72 m -183.82,0 v -104.98 h 134.72 v 104.98 H 3164.6 m 367.64,153.68 v -104.97 h 134.71 v 104.97 h -134.71 m -183.82,0 v -104.97 h 134.72 v 104.97 h -134.72 m -183.82,0 v -104.97 h 134.72 v 104.97 H 3164.6 m 551.45,153.68 v -104.97 h 134.72 v 104.97 h -134.72 m -183.81,0 v -104.97 h 134.71 v 104.97 h -134.71 m -183.82,0 v -104.97 h 134.72 v 104.97 h -134.72 m -183.82,0 v -104.97 h 134.72 v 104.97 H 3164.6" /><path
         id="path166"
         style="fill:#aadeba;fill-opacity:1;fill-rule:nonzero;stroke:none"
         d="M 3853.51,221.32 H 3380.6 v 135.852 h 102.54 v 104.969 h -89.15 l -29.82,48.711 h 118.97 v 104.98 h -134.72 v -95.66 h -49.1 v 95.66 h -76.64 c 0.36,5.508 0.55,11.066 0.55,16.68 v 0 c 0,9.847 -0.35,20.558 -1.03,32.019 h 77.12 v 104.981 h -76.35 l 48.71,48.707 h 27.64 v 27.633 l 49.1,49.097 v -76.73 h 134.72 v 104.972 h -106.48 l 155.58,155.579 v -48.37 h 134.71 v 104.97 h -78.11 l 48.71,48.71 h 29.4 v 29.41 l 49.1,49.09 v -78.5 h 134.72 v 104.98 h -108.25 l 48.71,48.71 h 59.54 v 59.54 l 93.7,93.69 v -202.24 l -0.57,0.3 v -52.49 l 0.57,-0.3 V 591.262 h -93.7 v 24.57 h -134.72 v -104.98 h 134.72 v 29.707 h 93.7 -90.96 V 221.32 M 3716.05,462.141 V 357.172 h 134.72 v 104.969 h -134.72 m -183.81,0 V 357.172 h 134.71 v 104.969 h -134.71 m 0,153.691 v -104.98 h 134.71 v 104.98 h -134.71 m 183.81,153.68 V 664.531 h 134.72 v 104.981 h -134.72 m -183.81,0 V 664.531 h 134.71 v 104.981 h -134.71 m -183.82,0 V 664.531 h 134.72 v 104.981 h -134.72 m 367.63,153.679 V 818.219 h 134.72 v 104.972 h -134.72 m -183.81,0 V 818.219 h 134.71 v 104.972 h -134.71 m 183.81,212.179 V 1030.4 h 134.72 v 104.97 H 3716.05 M 3348.42,415.551 h -49.1 v 0.179 h 49.1 v -0.179 m -183.82,0 h -67.7 c 0.09,0.058 0.2,0.121 0.3,0.179 h 67.4 v -0.179" /><path
         id="path168"
         style="fill:#958c87;fill-opacity:1;fill-rule:nonzero;stroke:none"
         d="m 3996.65,1731.12 h -977.93 v 65.65 h 977.93 v -65.65" /><path
         id="path170"
         style="fill:#7ea9b1;fill-opacity:1;fill-rule:nonzero;stroke:none"
         d="m 3716.05,1491.45 h 134.719 v 104.973 H 3716.05 Z" /><path
         id="path172"
         style="fill:#7ea9b1;fill-opacity:1;fill-rule:nonzero;stroke:none"
         d="m 3791.23,1337.77 h -75.18 v 104.97 h 134.72 v -45.44 l -59.54,-59.53" /><path
         id="path174"
         style="fill:#6d909d;fill-opacity:1;fill-rule:nonzero;stroke:none"
         d="m 3850.77,1184.08 h -134.72 v 104.98 h 134.72 v -104.98" /><path
         id="path176"
         style="fill:#6d909d;fill-opacity:1;fill-rule:nonzero;stroke:none"
         d="m 3716.05,1030.4 h 134.719 v 104.973 H 3716.05 Z" /><path
         id="path178"
         style="fill:#6d909d;fill-opacity:1;fill-rule:nonzero;stroke:none"
         d="m 3716.05,818.219 h 134.719 V 923.192 H 3716.05 Z" /><path
         id="path180"
         style="fill:#6d909d;fill-opacity:1;fill-rule:nonzero;stroke:none"
         d="m 3716.05,664.531 h 134.719 v 104.98 H 3716.05 Z" /><path
         id="path182"
         style="fill:#6d909d;fill-opacity:1;fill-rule:nonzero;stroke:none"
         d="m 3850.77,510.852 h -134.72 v 104.98 h 134.72 v -24.57 h -63.82 v -50.703 h 63.82 v -29.707" /><path
         id="path184"
         style="fill:#6d909d;fill-opacity:1;fill-rule:nonzero;stroke:none"
         d="m 3716.05,357.172 h 134.719 V 462.141 H 3716.05 Z" /><path
         id="path186"
         style="fill:#7ea9b1;fill-opacity:1;fill-rule:nonzero;stroke:none"
         d="m 3532.24,1491.45 h 134.711 v 104.973 H 3532.24 Z" /><path
         id="path188"
         style="fill:#7ea9b1;fill-opacity:1;fill-rule:nonzero;stroke:none"
         d="m 3532.24,1337.77 h 134.711 v 104.969 H 3532.24 Z" /><path
         id="path190"
         style="fill:#7ea9b1;fill-opacity:1;fill-rule:nonzero;stroke:none"
         d="m 3637.55,1184.08 h -105.31 v 104.98 h 134.71 v -75.57 l -29.4,-29.41" /><path
         id="path192"
         style="fill:#7ea9b1;fill-opacity:1;fill-rule:nonzero;stroke:none"
         d="m 3532.24,1030.4 v 104.97 h 134.71 -78.11 l -56.6,-56.6 v -48.37" /><path
         id="path194"
         style="fill:#6d909d;fill-opacity:1;fill-rule:nonzero;stroke:none"
         d="m 3532.24,818.219 h 134.711 V 923.192 H 3532.24 Z" /><path
         id="path196"
         style="fill:#6d909d;fill-opacity:1;fill-rule:nonzero;stroke:none"
         d="m 3532.24,664.531 h 134.711 v 104.98 H 3532.24 Z" /><path
         id="path198"
         style="fill:#6d909d;fill-opacity:1;fill-rule:nonzero;stroke:none"
         d="m 3532.24,510.852 h 134.711 v 104.98 H 3532.24 Z" /><path
         id="path200"
         style="fill:#6d909d;fill-opacity:1;fill-rule:nonzero;stroke:none"
         d="m 3532.24,357.172 h 134.711 V 462.141 H 3532.24 Z" /><path
         id="path202"
         style="fill:#7ea9b1;fill-opacity:1;fill-rule:nonzero;stroke:none"
         d="m 3348.42,1491.45 h 134.719 v 104.973 H 3348.42 Z" /><path
         id="path204"
         style="fill:#7ea9b1;fill-opacity:1;fill-rule:nonzero;stroke:none"
         d="m 3348.42,1337.77 h 134.719 v 104.969 H 3348.42 Z" /><path
         id="path206"
         style="fill:#7ea9b1;fill-opacity:1;fill-rule:nonzero;stroke:none"
         d="m 3348.42,1184.08 h 134.719 v 104.98 H 3348.42 Z" /><path
         id="path208"
         style="fill:#7ea9b1;fill-opacity:1;fill-rule:nonzero;stroke:none"
         d="m 3348.42,1030.4 h 134.719 v 104.973 H 3348.42 Z" /><path
         id="path210"
         style="fill:#7ea9b1;fill-opacity:1;fill-rule:nonzero;stroke:none"
         d="m 3483.14,818.219 h -134.72 v 104.972 h 28.24 l -28.24,-28.242 v -76.73 h 134.72 v 0" /><path
         id="path212"
         style="fill:#6d909d;fill-opacity:1;fill-rule:nonzero;stroke:none"
         d="m 3348.42,664.531 h 134.719 v 104.98 H 3348.42 Z" /><path
         id="path214"
         style="fill:#6d909d;fill-opacity:1;fill-rule:nonzero;stroke:none"
         d="m 3483.14,510.852 h -118.97 l -5.71,9.32 h -10.04 v 95.66 h 134.72 v -104.98" /><path
         id="path216"
         style="fill:#6d909d;fill-opacity:1;fill-rule:nonzero;stroke:none"
         d="M 3483.14,357.172 H 3380.6 v 58.379 h -32.18 v 0.179 h 73.99 l -28.42,46.411 h 89.15 V 357.172" /><path
         id="path218"
         style="fill:#7ea9b1;fill-opacity:1;fill-rule:nonzero;stroke:none"
         d="m 3164.6,1491.45 h 134.719 v 104.973 H 3164.6 Z" /><path
         id="path220"
         style="fill:#7ea9b1;fill-opacity:1;fill-rule:nonzero;stroke:none"
         d="m 3164.6,1337.77 h 134.719 v 104.969 H 3164.6 Z" /><path
         id="path222"
         style="fill:#7ea9b1;fill-opacity:1;fill-rule:nonzero;stroke:none"
         d="m 3164.6,1184.08 h 134.719 v 104.98 H 3164.6 Z" /><path
         id="path224"
         style="fill:#7ea9b1;fill-opacity:1;fill-rule:nonzero;stroke:none"
         d="m 3164.6,1030.4 h 134.719 v 104.973 H 3164.6 Z" /><path
         id="path226"
         style="fill:#7ea9b1;fill-opacity:1;fill-rule:nonzero;stroke:none"
         d="m 3299.32,818.219 h -98.03 c -6.65,34.16 -14.68,69.621 -23.95,104.972 h 121.98 v -77.339 l -27.64,-27.633 h 27.64 v 0" /><path
         id="path228"
         style="fill:#7ea9b1;fill-opacity:1;fill-rule:nonzero;stroke:none"
         d="m 3211.75,758.281 c -0.57,3.719 -1.16,7.457 -1.77,11.231 h 89.34 -76.34 l -11.23,-11.231" /><path
         id="path230"
         style="fill:#6d909d;fill-opacity:1;fill-rule:nonzero;stroke:none"
         d="m 3299.32,520.172 h -102.74 c 14.68,29.066 23.84,61.418 26.1,95.66 h 76.64 v -95.66" /><path
         id="path232"
         style="fill:#6d909d;fill-opacity:1;fill-rule:nonzero;stroke:none"
         d="M 3299.32,415.551 H 3164.6 v 0.179 h 134.72 v -0.179" /><path
         id="path234"
         style="fill:#7ea9b1;fill-opacity:1;fill-rule:nonzero;stroke:none"
         d="m 4335.27,818.219 h -98.03 v 104.972 h 122.94 c -9.59,-34.929 -17.96,-70.41 -24.91,-104.972" /><path
         id="path236"
         style="fill:#7ea9b1;fill-opacity:1;fill-rule:nonzero;stroke:none"
         d="m 4261.5,664.531 h -24.26 v 104.981 h 89.05 c -2.7,-16.172 -5.05,-31.953 -7.03,-47.211 l -57.76,-57.77" /><path
         id="path238"
         style="fill:#6d909d;fill-opacity:1;fill-rule:nonzero;stroke:none"
         d="m 4313.37,591.262 h -76.13 v 24.57 h 74.46 c 0.15,-8.301 0.71,-16.5 1.67,-24.57" /><path
         id="path240"
         style="fill:#7ea9b1;fill-opacity:1;fill-rule:nonzero;stroke:none"
         d="m 4053.42,818.219 h 134.719 V 923.192 H 4053.42 Z" /><path
         id="path242"
         style="fill:#7ea9b1;fill-opacity:1;fill-rule:nonzero;stroke:none"
         d="m 4053.42,664.531 h 134.719 v 104.98 H 4053.42 Z" /><path
         id="path244"
         style="fill:#7ea9b1;fill-opacity:1;fill-rule:nonzero;stroke:none"
         d="m 4053.42,591.262 h 134.719 v 24.5703 H 4053.42 Z" /><path
         id="path246"
         style="fill:#6d909d;fill-opacity:1;fill-rule:nonzero;stroke:none"
         d="m 3850.77,1337.77 h -59.54 l 59.54,59.54 v -59.54" /><path
         id="path248"
         style="fill:#6d909d;fill-opacity:1;fill-rule:nonzero;stroke:none"
         d="m 3666.95,1184.08 h -29.4 l 29.4,29.41 v -29.41" /><path
         id="path250"
         style="fill:#6d909d;fill-opacity:1;fill-rule:nonzero;stroke:none"
         d="m 3666.95,1030.4 h -134.71 v 48.37 l 56.6,56.6 h 78.11 V 1030.4" /><path
         id="path252"
         style="fill:#6d909d;fill-opacity:1;fill-rule:nonzero;stroke:none"
         d="m 3483.14,818.219 h -134.72 v 76.73 l 28.24,28.242 h 106.48 V 818.219" /><path
         id="path254"
         style="fill:#6d909d;fill-opacity:1;fill-rule:nonzero;stroke:none"
         d="m 3299.32,818.219 h -27.64 l 27.64,27.633 v -27.633" /><path
         id="path256"
         style="fill:#6d909d;fill-opacity:1;fill-rule:nonzero;stroke:none"
         d="m 3299.32,664.531 h -77.12 c -1.63,27.551 -5.19,59.41 -10.45,93.75 l 11.23,11.231 h 76.34 V 664.531" /><path
         id="path258"
         style="fill:#6d909d;fill-opacity:1;fill-rule:nonzero;stroke:none"
         d="m 4313.37,664.531 h -51.87 l 57.76,57.77 c -2.63,-20.321 -4.62,-39.719 -5.89,-57.77" /><path
         id="path260"
         style="fill:#958c87;fill-opacity:1;fill-rule:nonzero;stroke:none"
         d="m 4386.68,1008.76 -442.21,227.51 -0.57,0.3 v 52.49 l 0.57,-0.3 458.65,-235.97 c -5.69,-14.22 -11.18,-28.95 -16.44,-44.03" /><path
         id="path262"
         style="fill:#9dce1f;fill-opacity:1;fill-rule:nonzero;stroke:none"
         d="m 3223.23,632.512 c 0,-137.543 -111.19,-249.043 -248.35,-249.043 -137.16,0 -248.35,111.5 -248.35,249.043 0,191.066 111.19,631.178 248.35,631.178 137.16,0 248.35,-493.651 248.35,-631.178" /><path
         id="path264"
         style="fill:#77a62b;fill-opacity:1;fill-rule:nonzero;stroke:none"
         d="m 3223.23,632.512 c 0,176.367 -111.19,631.178 -248.35,631.178 V 383.469 c 137.16,0 248.35,111.5 248.35,249.043" /><path
         id="path266"
         style="fill:#855a2f;fill-opacity:1;fill-rule:nonzero;stroke:none"
         d="m 2954.75,631.82 -15,-403.172 h 70.26 l -15,403.172 h -40.26" /><path
         id="path268"
         style="fill:#704323;fill-opacity:1;fill-rule:nonzero;stroke:none"
         d="M 2974.88,631.82 V 228.648 h 35.13 l -15,403.172 h -20.13" /><path
         id="path270"
         style="fill:#9dce1f;fill-opacity:1;fill-rule:nonzero;stroke:none"
         d="m 4793.2,620.18 c 0,-133.34 -107.8,-241.43 -240.77,-241.43 -132.97,0 -240.77,108.09 -240.77,241.43 0,185.242 107.8,611.92 240.77,611.92 132.97,0 240.77,-478.58 240.77,-611.92" /><path
         id="path272"
         style="fill:#77a62b;fill-opacity:1;fill-rule:nonzero;stroke:none"
         d="m 4793.2,620.18 c 0,170.992 -107.8,611.92 -240.77,611.92 V 378.75 c 132.97,0 240.77,108.09 240.77,241.43" /><path
         id="path274"
         style="fill:#855a2f;fill-opacity:1;fill-rule:nonzero;stroke:none"
         d="m 4532.91,619.512 -14.54,-390.864 h 68.12 l -14.54,390.864 h -39.04" /><path
         id="path276"
         style="fill:#704323;fill-opacity:1;fill-rule:nonzero;stroke:none"
         d="M 4552.43,619.512 V 228.648 h 34.06 l -14.54,390.864 h -19.52" /><path
         id="path278"
         style="fill:#716b66;fill-opacity:1;fill-rule:nonzero;stroke:none"
         d="m 2280.26,645.641 h 824.68 v 49.7383 h -824.68 z" /><path
         id="path280"
         style="fill:#f8f9f9;fill-opacity:1;fill-rule:nonzero;stroke:none"
         d="m 2325.37,221.031 h 734.461 V 645.64 H 2325.37 Z" /><path
         id="path282"
         style="fill:#f14556;fill-opacity:1;fill-rule:nonzero;stroke:none"
         d="M 2692.6,988.52 2280.26,695.379 h 824.68 L 2692.6,988.52" /><path
         id="path284"
         style="fill:#f8f9f9;fill-opacity:1;fill-rule:nonzero;stroke:none"
         d="m 2004.61,221.031 h 320.762 v 194.52 H 2004.61 Z" /><path
         id="path286"
         style="fill:#4b8e9a;fill-opacity:1;fill-rule:nonzero;stroke:none"
         d="m 2436.34,449.172 h 122.191 V 561.809 H 2436.34 Z" /><path
         id="path288"
         style="fill:#4b8e9a;fill-opacity:1;fill-rule:nonzero;stroke:none"
         d="m 2637.11,449.172 h 122.191 V 561.809 H 2637.11 Z" /><path
         id="path290"
         style="fill:#4b8e9a;fill-opacity:1;fill-rule:nonzero;stroke:none"
         d="m 2436.34,294.262 h 122.191 V 406.891 H 2436.34 Z" /><path
         id="path292"
         style="fill:#4b8e9a;fill-opacity:1;fill-rule:nonzero;stroke:none"
         d="m 2103.89,294.262 h 122.191 v 77.0703 H 2103.89 Z" /><path
         id="path294"
         style="fill:#4b8e9a;fill-opacity:1;fill-rule:nonzero;stroke:none"
         d="m 2837.88,449.172 h 122.191 V 561.809 H 2837.88 Z" /><path
         id="path296"
         style="fill:#4b8e9a;fill-opacity:1;fill-rule:nonzero;stroke:none"
         d="m 2837.88,294.262 h 122.191 V 406.891 H 2837.88 Z" /><path
         id="path298"
         style="fill:#f14556;fill-opacity:1;fill-rule:nonzero;stroke:none"
         d="M 2026.74,520.172 1962.79,415.73 h 362.58 v 104.442 h -298.63" /><path
         id="path300"
         style="fill:#f8f9f9;fill-opacity:1;fill-rule:nonzero;stroke:none"
         d="m 3059.83,221.031 h 320.77 v 194.52 h -320.77 z" /><path
         id="path302"
         style="fill:#ee2a3f;fill-opacity:1;fill-rule:nonzero;stroke:none"
         d="m 3358.46,520.172 63.95,-104.442 h -362.58 v 104.442 h 298.63" /><path
         id="path304"
         style="fill:#716b66;fill-opacity:1;fill-rule:nonzero;stroke:none"
         d="m 2637.11,221.031 h 122.191 V 406.89 H 2637.11 Z" /><path
         id="path306"
         style="fill:#ee2a3f;fill-opacity:1;fill-rule:nonzero;stroke:none"
         d="M 3104.94,695.379 2692.6,988.531 V 695.379 h 412.34" /><path
         id="path308"
         style="fill:#c7c3c1;fill-opacity:1;fill-rule:nonzero;stroke:none"
         d="m 3059.83,221.031 h -587.38 587.38 V 398.422 221.031" /><path
         id="path310"
         style="fill:#7fa529;fill-opacity:1;fill-rule:nonzero;stroke:none"
         d="m 3059.83,398.422 v 0 0 z" /><path
         id="path312"
         style="fill:#64872f;fill-opacity:1;fill-rule:nonzero;stroke:none"
         d="M 3059.83,398.422 V 645.641 398.422" /><path
         id="path314"
         style="fill:#c3bfbd;fill-opacity:1;fill-rule:nonzero;stroke:none"
         d="M 3059.83,221.031 H 2759.3 v 185.86 h -100.99 l 42.28,42.281 h 58.71 v 58.707 l 137.76,137.762 h 162.77 v -424.61 m -221.95,185.86 V 294.262 h 122.19 v 112.629 h -122.19 m 0,154.918 V 449.172 h 122.19 V 561.809 H 2837.88 M 2637.11,221.031 h -164.66 l 73.23,73.231 h 12.85 v 12.859 l 78.58,78.57 v -164.66" /><path
         id="path316"
         style="fill:#44767e;fill-opacity:1;fill-rule:nonzero;stroke:none"
         d="m 2759.3,449.172 h -58.71 l 58.71,58.707 v -58.707" /><path
         id="path318"
         style="fill:#44767e;fill-opacity:1;fill-rule:nonzero;stroke:none"
         d="m 2558.53,294.262 h -12.85 l 12.85,12.859 v -12.859" /><path
         id="path320"
         style="fill:#44767e;fill-opacity:1;fill-rule:nonzero;stroke:none"
         d="m 2837.88,449.172 h 122.191 V 561.809 H 2837.88 Z" /><path
         id="path322"
         style="fill:#44767e;fill-opacity:1;fill-rule:nonzero;stroke:none"
         d="m 2837.88,294.262 h 122.191 V 406.891 H 2837.88 Z" /><path
         id="path324"
         style="fill:#c3bfbd;fill-opacity:1;fill-rule:nonzero;stroke:none"
         d="m 3059.83,221.031 v 194.52 -194.52" /><path
         id="path326"
         style="fill:#605a57;fill-opacity:1;fill-rule:nonzero;stroke:none"
         d="m 2759.3,221.031 h -122.19 v 164.66 l 21.2,21.2 h 100.99 v -185.86" /><path
         id="path328"
         style="fill:#c3bfbd;fill-opacity:1;fill-rule:nonzero;stroke:none"
         d="m 2325.37,221.031 v 0 190.289 0 z" /><path
         id="path330"
         style="fill:#c3bfbd;fill-opacity:1;fill-rule:nonzero;stroke:none"
         d="M 2325.37,221.031 H 2126.2 v 66.168 l 7.06,7.063 h 92.82 v 40.668 c 39.32,10.082 73.99,37.64 99.29,76.39 V 221.031" /><path
         id="path332"
         style="fill:#44767e;fill-opacity:1;fill-rule:nonzero;stroke:none"
         d="m 2226.08,294.262 h -92.82 l 38.14,38.148 c 6.98,-1.129 14.09,-1.711 21.3,-1.711 11.41,0 22.58,1.461 33.38,4.231 v -40.668" /><path
         id="path334"
         style="fill:#c3bfbd;fill-opacity:1;fill-rule:nonzero;stroke:none"
         d="m 3380.6,221.031 h -38.18 V 357.32 h -90.88 l 58.24,58.231 h 70.82 v -194.52" /><path
         id="path336"
         style="fill:#716b66;fill-opacity:1;fill-rule:nonzero;stroke:none"
         d="m 3098.01,221.031 h 244.41 V 357.32 h -244.41 z" /><path
         id="path338"
         style="fill:#605a57;fill-opacity:1;fill-rule:nonzero;stroke:none"
         d="m 3220.21,221.031 h 122.211 V 357.32 H 3220.21 Z" /><path
         id="path340"
         style="fill:#f9b2a9;fill-opacity:1;fill-rule:nonzero;stroke:none"
         d="M 382.207,221.031 H 994.645 V 502.07 H 382.207 Z" /><path
         id="path342"
         style="fill:#4b8e9a;fill-opacity:1;fill-rule:nonzero;stroke:none"
         d="M 456.301,300.129 H 740.926 V 485.738 H 456.301 Z" /><path
         id="path344"
         style="fill:#716b66;fill-opacity:1;fill-rule:nonzero;stroke:none"
         d="M 790.328,221.031 H 920.555 V 481.422 H 790.328 Z" /><path
         id="path346"
         style="fill:#c58d87;fill-opacity:1;fill-rule:nonzero;stroke:none"
         d="m 994.645,221.031 h -74.09 V 481.422 H 790.328 V 221.031 H 514.746 l 79.102,79.098 H 740.926 V 485.738 H 456.301 V 426.93 c -1.961,-0.348 -3.985,-0.532 -6.047,-0.532 -18.789,0 -34.024,15.231 -34.024,34.024 0,-18.793 -15.23,-34.024 -34.023,-34.024 V 502.07 H 994.645 V 221.031" /><path
         id="path348"
         style="fill:#44767e;fill-opacity:1;fill-rule:nonzero;stroke:none"
         d="M 740.926,300.129 H 593.848 l 126.386,126.383 c -17.754,1.148 -31.808,15.867 -31.808,33.91 0,-18.793 -15.231,-34.024 -34.024,-34.024 -18.789,0 -34.023,15.231 -34.023,34.024 0,-18.793 -15.234,-34.024 -34.024,-34.024 -18.792,0 -34.027,15.231 -34.027,34.024 0,-18.793 -15.23,-34.024 -34.023,-34.024 -18.793,0 -34.024,15.231 -34.024,34.024 0,-16.723 -12.074,-30.633 -27.98,-33.492 v 58.808 H 740.926 V 300.129" /><path
         id="path350"
         style="fill:#605a57;fill-opacity:1;fill-rule:nonzero;stroke:none"
         d="M 790.328,221.031 H 920.555 V 481.422 H 790.328 Z" /><path
         id="path352"
         style="fill:#ee2a3f;fill-opacity:1;fill-rule:nonzero;stroke:none"
         d="m 450.254,696.129 h 476.34 v 44.5508 h -476.34 z" /><path
         id="path354"
         style="fill:#f8f9f9;fill-opacity:1;fill-rule:nonzero;stroke:none"
         d="M 688.426,696.129 H 450.254 L 348.184,548.691 h 340.242 v 147.438" /><path
         id="path356"
         style="fill:#ee2a3f;fill-opacity:1;fill-rule:nonzero;stroke:none"
         d="m 348.184,548.691 v -59.23 c 0,-18.789 15.234,-34.02 34.023,-34.02 18.793,0 34.023,15.231 34.023,34.02 v 59.23 h -68.046" /><path
         id="path358"
         style="fill:#cdbcbf;fill-opacity:1;fill-rule:nonzero;stroke:none"
         d="m 416.23,548.691 v -59.23 c 0,-18.789 15.235,-34.02 34.024,-34.02 18.793,0 34.027,15.231 34.027,34.02 v 59.23 H 416.23" /><path
         id="path360"
         style="fill:#ee2a3f;fill-opacity:1;fill-rule:nonzero;stroke:none"
         d="m 484.281,548.691 v -59.23 c 0,-18.789 15.235,-34.02 34.024,-34.02 18.793,0 34.023,15.231 34.023,34.02 v 59.23 h -68.047" /><path
         id="path362"
         style="fill:#cdbcbf;fill-opacity:1;fill-rule:nonzero;stroke:none"
         d="m 552.328,548.691 v -59.23 c 0,-18.789 15.235,-34.02 34.024,-34.02 18.793,0 34.027,15.231 34.027,34.02 v 59.23 h -68.051" /><path
         id="path364"
         style="fill:#ee2a3f;fill-opacity:1;fill-rule:nonzero;stroke:none"
         d="m 620.379,548.691 v -59.23 c 0,-18.789 15.234,-34.02 34.023,-34.02 18.793,0 34.024,15.231 34.024,34.02 v 59.23 h -68.047" /><path
         id="path366"
         style="fill:#f14556;fill-opacity:1;fill-rule:nonzero;stroke:none"
         d="m 416.23,548.691 81.657,147.438 H 450.254 L 348.18,548.691 h 68.05" /><path
         id="path368"
         style="fill:#f14556;fill-opacity:1;fill-rule:nonzero;stroke:none"
         d="m 484.281,548.691 61.242,147.438 h 47.633 L 552.328,548.691 h -68.047" /><path
         id="path370"
         style="fill:#f14556;fill-opacity:1;fill-rule:nonzero;stroke:none"
         d="m 620.375,548.691 h 68.051 V 696.129 H 640.789 L 620.375,548.691" /><path
         id="path372"
         style="fill:#f14556;fill-opacity:1;fill-rule:nonzero;stroke:none"
         d="M 688.426,696.129 H 926.594 L 1028.67,548.691 H 688.426 v 147.438" /><path
         id="path374"
         style="fill:#cdbcbf;fill-opacity:1;fill-rule:nonzero;stroke:none"
         d="m 1028.67,548.691 v -59.23 c 0,-18.789 -15.24,-34.02 -34.025,-34.02 -18.79,0 -34.024,15.231 -34.024,34.02 v 59.23 h 68.049" /><path
         id="path376"
         style="fill:#ee2a3f;fill-opacity:1;fill-rule:nonzero;stroke:none"
         d="m 960.621,548.691 v -59.23 c 0,-18.789 -15.234,-34.02 -34.023,-34.02 -18.793,0 -34.024,15.231 -34.024,34.02 v 59.23 h 68.047" /><path
         id="path378"
         style="fill:#cdbcbf;fill-opacity:1;fill-rule:nonzero;stroke:none"
         d="m 892.574,548.691 v -59.23 c 0,-18.789 -15.234,-34.02 -34.027,-34.02 -18.789,0 -34.024,15.231 -34.024,34.02 v 59.23 h 68.051" /><path
         id="path380"
         style="fill:#ee2a3f;fill-opacity:1;fill-rule:nonzero;stroke:none"
         d="m 824.523,548.691 v -59.23 c 0,-18.789 -15.234,-34.02 -34.023,-34.02 -18.793,0 -34.023,15.231 -34.023,34.02 v 59.23 h 68.046" /><path
         id="path382"
         style="fill:#cdbcbf;fill-opacity:1;fill-rule:nonzero;stroke:none"
         d="m 756.477,548.691 v -59.23 c 0,-18.789 -15.239,-34.02 -34.028,-34.02 -18.789,0 -34.023,15.231 -34.023,34.02 v 59.23 h 68.051" /><path
         id="path384"
         style="fill:#f8f9f9;fill-opacity:1;fill-rule:nonzero;stroke:none"
         d="m 960.621,548.691 -81.66,147.438 h 47.633 L 1028.67,548.691 h -68.049" /><path
         id="path386"
         style="fill:#f8f9f9;fill-opacity:1;fill-rule:nonzero;stroke:none"
         d="M 892.57,548.691 831.328,696.129 H 783.691 L 824.523,548.691 H 892.57" /><path
         id="path388"
         style="fill:#f8f9f9;fill-opacity:1;fill-rule:nonzero;stroke:none"
         d="m 756.473,548.691 h -68.047 v 147.438 h 47.633 l 20.414,-147.438" /><path
         id="path390"
         style="fill:#716b66;fill-opacity:1;fill-rule:nonzero;stroke:none"
         d="m 4833.23,870.129 h 80.1016 V 1037.43 H 4833.23 Z" /><path
         id="path392"
         style="fill:#f14556;fill-opacity:1;fill-rule:nonzero;stroke:none"
         d="m 3786.95,591.262 h 1261.67 v 340.84 H 3786.95 Z" /><path
         id="path394"
         style="fill:#ee2a3f;fill-opacity:1;fill-rule:nonzero;stroke:none"
         d="M 3786.95,591.262 H 5048.62 V 745.95 H 3786.95 Z" /><path
         id="path396"
         style="fill:#716b66;fill-opacity:1;fill-rule:nonzero;stroke:none"
         d="m 3786.95,540.559 h 1261.67 v 50.7031 H 3786.95 Z" /><path
         id="path398"
         style="fill:#b5e4bf;fill-opacity:1;fill-rule:nonzero;stroke:none"
         d="M 3853.51,221.031 H 4982.07 V 540.558 H 3853.51 Z" /><path
         id="path400"
         style="fill:#4b8e9a;fill-opacity:1;fill-rule:nonzero;stroke:none"
         d="m 3946.84,307.051 h 106.648 v 98.3008 H 3946.84 Z" /><path
         id="path402"
         style="fill:#4b8e9a;fill-opacity:1;fill-rule:nonzero;stroke:none"
         d="m 4110.8,307.051 h 106.648 v 98.3008 H 4110.8 Z" /><path
         id="path404"
         style="fill:#4b8e9a;fill-opacity:1;fill-rule:nonzero;stroke:none"
         d="m 4274.76,307.051 h 106.648 v 98.3008 H 4274.76 Z" /><path
         id="path406"
         style="fill:#4b8e9a;fill-opacity:1;fill-rule:nonzero;stroke:none"
         d="m 4438.72,307.051 h 106.641 v 98.3008 H 4438.72 Z" /><path
         id="path408"
         style="fill:#716b66;fill-opacity:1;fill-rule:nonzero;stroke:none"
         d="m 4602.67,221.031 h 106.648 v 184.32 H 4602.67 Z" /><path
         id="path410"
         style="fill:#4b8e9a;fill-opacity:1;fill-rule:nonzero;stroke:none"
         d="m 4766.63,307.051 h 106.652 v 98.3008 H 4766.63 Z" /><path
         id="path412"
         style="fill:#4b8e9a;fill-opacity:1;fill-rule:nonzero;stroke:none"
         d="m 4287.35,776.039 h -141.13 l -35.42,-73.918 h 211.96 l -35.41,73.918" /><path
         id="path414"
         style="fill:#4b8e9a;fill-opacity:1;fill-rule:nonzero;stroke:none"
         d="m 4673.91,776.039 h -141.14 l -35.41,-73.918 h 211.96 l -35.41,73.918" /><path
         id="path416"
         style="fill:#3a7183;fill-opacity:1;fill-rule:nonzero;stroke:none"
         d="m 4110.8,702.121 h 211.96 l -21,43.828 H 4131.8 l -21,-43.828" /><path
         id="path418"
         style="fill:#3a7183;fill-opacity:1;fill-rule:nonzero;stroke:none"
         d="m 4497.36,702.121 h 211.96 l -21,43.828 h -169.96 l -21,-43.828" /><path
         id="path420"
         style="fill:#91b297;fill-opacity:1;fill-rule:nonzero;stroke:none"
         d="M 4982.07,221.031 H 4709.32 V 405.352 H 4602.67 V 221.031 h -323.96 l 86.02,86.02 h 16.68 v 16.668 l 57.31,57.312 v -73.98 h 106.64 v 98.301 h -82.32 l 135.21,135.207 h 383.82 V 221.031 m -215.44,184.321 v -98.301 h 106.65 v 98.301 h -106.65" /><path
         id="path422"
         style="fill:#44767e;fill-opacity:1;fill-rule:nonzero;stroke:none"
         d="m 4381.41,307.051 h -16.68 l 16.68,16.668 v -16.668" /><path
         id="path424"
         style="fill:#44767e;fill-opacity:1;fill-rule:nonzero;stroke:none"
         d="m 4545.36,307.051 h -106.64 v 73.98 l 24.32,24.321 h 82.32 v -98.301" /><path
         id="path426"
         style="fill:#605a57;fill-opacity:1;fill-rule:nonzero;stroke:none"
         d="m 4602.67,221.031 h 106.648 v 184.32 H 4602.67 Z" /><path
         id="path428"
         style="fill:#44767e;fill-opacity:1;fill-rule:nonzero;stroke:none"
         d="m 4766.63,307.051 h 106.652 v 98.3008 H 4766.63 Z" /><path
         id="path430"
         style="fill:#9dce1f;fill-opacity:1;fill-rule:nonzero;stroke:none"
         d="m 2368.67,565.711 c 0,-129.789 -78.78,-235.012 -175.97,-235.012 -97.19,0 -175.97,105.223 -175.97,235.012 0,129.777 78.78,235 175.97,235 97.19,0 175.97,-105.223 175.97,-235" /><path
         id="path432"
         style="fill:#77a62b;fill-opacity:1;fill-rule:nonzero;stroke:none"
         d="m 2368.67,565.711 c 0,129.777 -78.78,235 -175.97,235 V 330.699 c 97.19,0 175.97,105.223 175.97,235.012" /><path
         id="path434"
         style="fill:#855a2f;fill-opacity:1;fill-rule:nonzero;stroke:none"
         d="M 2178.43,506.68 2167.8,221 h 49.79 l -10.63,285.68 h -28.53" /><path
         id="path436"
         style="fill:#704323;fill-opacity:1;fill-rule:nonzero;stroke:none"
         d="M 2192.7,506.68 V 221 h 24.89 l -10.63,285.68 h -14.26" /><path
         id="path438"
         style="fill:#716b66;fill-opacity:1;fill-rule:nonzero;stroke:none"
         d="m 1124.19,505.699 h 1059.99 v 50.8711 H 1124.19 Z" /><path
         id="path440"
         style="fill:#fcd473;fill-opacity:1;fill-rule:nonzero;stroke:none"
         d="m 1182.17,221.031 h 944.027 V 505.699 H 1182.17 Z" /><path
         id="path442"
         style="fill:#4b8e9a;fill-opacity:1;fill-rule:nonzero;stroke:none"
         d="m 1283.79,295.91 h 124.941 V 411.07 H 1283.79 Z" /><path
         id="path444"
         style="fill:#4b8e9a;fill-opacity:1;fill-rule:nonzero;stroke:none"
         d="m 1694.36,295.91 h 124.941 V 411.07 H 1694.36 Z" /><path
         id="path446"
         style="fill:#4b8e9a;fill-opacity:1;fill-rule:nonzero;stroke:none"
         d="m 1899.65,295.91 h 124.941 V 411.07 H 1899.65 Z" /><path
         id="path448"
         style="fill:#f14556;fill-opacity:1;fill-rule:nonzero;stroke:none"
         d="m 1654.19,1191.2 -530,-299.739 H 2184.18 L 1654.19,1191.2" /><path
         id="path450"
         style="fill:#716b66;fill-opacity:1;fill-rule:nonzero;stroke:none"
         d="m 1124.19,840.59 h 1059.99 v 50.8711 H 1124.19 Z" /><path
         id="path452"
         style="fill:#fcd473;fill-opacity:1;fill-rule:nonzero;stroke:none"
         d="m 1182.17,556.57 h 944.027 V 841.25 H 1182.17 Z" /><path
         id="path454"
         style="fill:#4b8e9a;fill-opacity:1;fill-rule:nonzero;stroke:none"
         d="m 1283.79,631.449 h 124.941 v 115.16 H 1283.79 Z" /><path
         id="path456"
         style="fill:#4b8e9a;fill-opacity:1;fill-rule:nonzero;stroke:none"
         d="m 1489.07,631.449 h 124.941 V 746.621 H 1489.07 Z" /><path
         id="path458"
         style="fill:#4b8e9a;fill-opacity:1;fill-rule:nonzero;stroke:none"
         d="m 1899.65,631.449 h 124.941 V 746.621 H 1899.65 Z" /><path
         id="path460"
         style="fill:#4b8e9a;fill-opacity:1;fill-rule:nonzero;stroke:none"
         d="m 1694.36,631.449 h 124.941 V 746.621 H 1694.36 Z" /><path
         id="path462"
         style="fill:#ee2a3f;fill-opacity:1;fill-rule:nonzero;stroke:none"
         d="M 1654.19,1191.2 V 891.461 h 529.99 L 1654.19,1191.2" /><path
         id="path464"
         style="fill:#4b8e9a;fill-opacity:1;fill-rule:nonzero;stroke:none"
         d="m 1614.01,932.852 h 80.3477 v 74.0586 H 1614.01 Z" /><path
         id="path466"
         style="fill:#44767e;fill-opacity:1;fill-rule:nonzero;stroke:none"
         d="m 1654.18,932.852 h 40.1797 v 74.0586 H 1654.18 Z" /><path
         id="path468"
         style="fill:#c6a562;fill-opacity:1;fill-rule:nonzero;stroke:none"
         d="m 2126.2,221.031 h -512.19 v 117.391 l 167.29,167.277 h 344.9 V 221.031 M 1899.65,411.07 V 295.91 h 124.94 v 115.16 h -124.94 m -205.29,0 V 295.91 h 124.94 v 115.16 h -124.94" /><path
         id="path470"
         style="fill:#44767e;fill-opacity:1;fill-rule:nonzero;stroke:none"
         d="m 1694.36,295.91 h 124.941 V 411.07 H 1694.36 Z" /><path
         id="path472"
         style="fill:#44767e;fill-opacity:1;fill-rule:nonzero;stroke:none"
         d="m 1899.65,295.91 h 124.941 V 411.07 H 1899.65 Z" /><path
         id="path474"
         style="fill:#c6a562;fill-opacity:1;fill-rule:nonzero;stroke:none"
         d="m 2126.2,556.57 h -629.58 l 74.88,74.879 h 42.51 v 42.512 L 1781.3,841.25 h 344.9 V 556.57 M 1899.65,746.621 V 631.449 h 124.94 v 115.172 h -124.94 m -205.29,0 V 631.449 h 124.94 v 115.172 h -124.94" /><path
         id="path476"
         style="fill:#44767e;fill-opacity:1;fill-rule:nonzero;stroke:none"
         d="m 1614.01,631.449 h -42.51 l 42.51,42.512 v -42.512" /><path
         id="path478"
         style="fill:#44767e;fill-opacity:1;fill-rule:nonzero;stroke:none"
         d="m 1899.65,631.449 h 124.941 V 746.621 H 1899.65 Z" /><path
         id="path480"
         style="fill:#44767e;fill-opacity:1;fill-rule:nonzero;stroke:none"
         d="m 1694.36,631.449 h 124.941 V 746.621 H 1694.36 Z" /><path
         id="path482"
         style="fill:#716b66;fill-opacity:1;fill-rule:nonzero;stroke:none"
         d="m 1489.07,221.031 h 124.941 V 411.07 H 1489.07 Z" /><path
         id="path484"
         style="fill:#605a57;fill-opacity:1;fill-rule:nonzero;stroke:none"
         d="m 1614.01,221.031 h -62.47 V 411.07 h 62.47 V 221.031" /><path
         id="path486"
         style="fill:#855a2f;fill-opacity:1;fill-rule:nonzero;stroke:none"
         d="m 1021.47,331.73 -8.62,-110.699 h 40.39 l -8.62,110.699 h -23.15" /><path
         id="path488"
         style="fill:#704323;fill-opacity:1;fill-rule:nonzero;stroke:none"
         d="M 1033.05,331.73 V 221.031 h 20.19 l -8.62,110.699 h -11.57" /><path
         id="path490"
         style="fill:#9dce1f;fill-opacity:1;fill-rule:nonzero;stroke:none"
         d="M 920.555,296.469 1033.05,778.98 1145.54,296.469 H 920.555" /><path
         id="path492"
         style="fill:#628c2c;fill-opacity:1;fill-rule:nonzero;stroke:none"
         d="M 1145.54,296.469 1033.05,778.98 V 296.469 h 112.49" /><path
         id="path494"
         style="fill:#c7e32f;fill-opacity:1;fill-rule:nonzero;stroke:none"
         d="M 5432.39,110.512 C 5432.39,49.4805 5375.34,0 5304.97,0 H 127.414 C 57.0469,0 0,49.4805 0,110.512 0,171.551 57.0469,221.031 127.414,221.031 H 5304.97 c 70.37,0 127.42,-49.48 127.42,-110.519" /><path
         id="path496"
         style="fill:#8bc425;fill-opacity:1;fill-rule:nonzero;stroke:none"
         d="M 127.414,0 H 5304.97 c 70.37,0 127.42,49.4805 127.42,110.512 H 0 C 0,49.4805 57.043,0 127.414,0" /><path
         id="path498"
         style="fill:#ffffff;fill-opacity:1;fill-rule:nonzero;stroke:none"
         d="m 4072.81,265.02 c -24.29,0 -43.99,-19.7 -43.99,-43.989 h 87.99 c 0,24.289 -19.7,43.989 -44,43.989" /><path
         id="path500"
         style="fill:#ffffff;fill-opacity:1;fill-rule:nonzero;stroke:none"
         d="m 2062.3,265.02 c -24.3,0 -43.99,-19.7 -43.99,-43.989 h 87.99 c 0,24.289 -19.7,43.989 -44,43.989" /><path
         id="path502"
         style="fill:#ffffff;fill-opacity:1;fill-rule:nonzero;stroke:none"
         d="m 479.82,265.02 c -24.297,0 -43.996,-19.7 -43.996,-43.989 h 87.992 c 0,24.289 -19.699,43.989 -43.996,43.989" /><path
         id="path504"
         style="fill:#ffffff;fill-opacity:1;fill-rule:nonzero;stroke:none"
         d="m 1265.58,251.871 c -17.03,0 -30.84,-13.812 -30.84,-30.84 h 61.68 c 0,17.028 -13.81,30.84 -30.84,30.84" /><path
         id="path506"
         style="fill:#ffffff;fill-opacity:1;fill-rule:nonzero;stroke:none"
         d="m 4833.23,251.871 c -17.04,0 -30.85,-13.812 -30.85,-30.84 h 61.69 c 0,17.028 -13.81,30.84 -30.84,30.84" /></g></g></svg>