<?xml version="1.0" encoding="UTF-8" standalone="no"?>
<!-- Created with Inkscape (http://www.inkscape.org/) -->

<svg
   xmlns:dc="http://purl.org/dc/elements/1.1/"
   xmlns:cc="http://creativecommons.org/ns#"
   xmlns:rdf="http://www.w3.org/1999/02/22-rdf-syntax-ns#"
   xmlns:svg="http://www.w3.org/2000/svg"
   xmlns="http://www.w3.org/2000/svg"
   xmlns:sodipodi="http://sodipodi.sourceforge.net/DTD/sodipodi-0.dtd"
   xmlns:inkscape="http://www.inkscape.org/namespaces/inkscape"
   width="145.86171mm"
   height="162.18181mm"
   viewBox="0 0 516.83283 574.65995"
   id="svg3373"
   version="1.1"
   inkscape:version="0.91 r13725"
   sodipodi:docname="trimmied-brain.svg">
  <defs
     id="defs3375">
    <clipPath
       clipPathUnits="userSpaceOnUse"
       id="clipPath3369">
      <rect
         style="fill:#0000ff;fill-rule:evenodd;stroke:#000000;stroke-width:0.75px;stroke-linecap:butt;stroke-linejoin:miter;stroke-opacity:1"
         id="rect3371"
         width="387.62463"
         height="432.40439"
         x="0"
         y="-863.40942"
         transform="scale(1,-1)" />
    </clipPath>
    <clipPath
       id="clipPath20"
       clipPathUnits="userSpaceOnUse">
      <path
         inkscape:connector-curvature="0"
         id="path18"
         d="m 0,0 3883.77,0 0,8620 L 0,8620 Z" />
    </clipPath>
  </defs>
  <sodipodi:namedview
     id="base"
     pagecolor="#ffffff"
     bordercolor="#666666"
     borderopacity="1.0"
     inkscape:pageopacity="0.0"
     inkscape:pageshadow="2"
     inkscape:zoom="0.35"
     inkscape:cx="258.41642"
     inkscape:cy="287.32993"
     inkscape:document-units="px"
     inkscape:current-layer="layer1"
     showgrid="false"
     fit-margin-top="0"
     fit-margin-left="0"
     fit-margin-right="0"
     fit-margin-bottom="0"
     inkscape:window-width="1440"
     inkscape:window-height="785"
     inkscape:window-x="-8"
     inkscape:window-y="-8"
     inkscape:window-maximized="1" />
  <metadata
     id="metadata3378">
    <rdf:RDF>
      <cc:Work
         rdf:about="">
        <dc:format>image/svg+xml</dc:format>
        <dc:type
           rdf:resource="http://purl.org/dc/dcmitype/StillImage" />
        <dc:title></dc:title>
      </cc:Work>
    </rdf:RDF>
  </metadata>
  <g
     inkscape:label="Layer 1"
     inkscape:groupmode="layer"
     id="layer1"
     transform="translate(-116.58358,-245.0322)">
    <g
       transform="matrix(1.3333333,0,0,-1.3333333,116.58358,1394.3655)"
       id="g10"
       clip-path="url(#clipPath3369)">
      <g
         transform="scale(0.1,0.1)"
         id="g12">
        <g
           id="g14">
          <g
             clip-path="url(#clipPath20)"
             id="g16">
            <path
               inkscape:connector-curvature="0"
               id="path22"
               style="fill:#eef1f4;fill-opacity:1;fill-rule:nonzero;stroke:none"
               d="m 3883.77,8620.07 0,-8620.07 0,8620.07" />
            <path
               inkscape:connector-curvature="0"
               id="path24"
               style="fill:#eef1f4;fill-opacity:1;fill-rule:nonzero;stroke:none"
               d="M 0,0 0,8620.07" />
            <path
               inkscape:connector-curvature="0"
               id="path26"
               style="fill:#d9e6f0;fill-opacity:1;fill-rule:nonzero;stroke:none"
               d="m 3883.77,4310.06 -1055.37,0 -1718.69,1718.71 -1.42,1.42 c -34.11,34.1 -55.14,80.99 -55.14,133 0,97.18 73.32,177.61 167.68,188.4 -36.39,35.52 -57.4,84.41 -57.4,135.84 0,104.57 84.95,189.55 189.55,189.55 24.42,0 48.29,-4.55 70.74,-13.36 -5.39,17.62 -8.24,36.09 -8.24,54.57 0,59.52 27.66,112.7 70.68,147.56 l -127.52,127.52 0,0.29 -0.83,0.84 -198.65,247.24 166.82,-133.84 21.59,94.62 299.02,-299.03 c 42.32,-9.41 80.12,-32.93 107.07,-66.99 17.62,87.82 95.19,154.02 188.13,154.02 25.83,0 50.25,-5.55 72.82,-14.83 l -63.17,63.15 -9.43,86.16 -137.21,137.2 48.04,439.33 556.76,-556.75 57.86,57.86 74.59,-74.6 113.62,113.65 1228.1,-1228.11 0,-1703.42" />
            <path
               inkscape:connector-curvature="0"
               id="path28"
               style="fill:#cbd9e6;fill-opacity:1;fill-rule:nonzero;stroke:none"
               d="m 3883.77,4310.06 0,1703.42 0,-1703.42" />
            <path
               inkscape:connector-curvature="0"
               id="path30"
               style="fill:#8196a5;fill-opacity:1;fill-rule:nonzero;stroke:none"
               d="m 2828.57,5328.9 c -8.77,-14.69 -28.76,-27.5 -49.74,-27.5" />
            <path
               inkscape:connector-curvature="0"
               id="path32"
               style="fill:#f2564f;fill-opacity:1;fill-rule:nonzero;stroke:none"
               d="m 2625.75,6343.29 4.83,3.32 c 0,0 6.05,4.41 8.94,6.76 38.96,31.68 63.94,79.98 63.94,134.11 0,95.36 -77.32,172.67 -172.67,172.67 -35.02,0 -67.61,-10.41 -94.86,-28.31 -1.89,-1.25 -5.6,-3.86 -5.6,-3.86 l -9.05,-6.95 6.33,10.01 c 0,0 2.61,4.45 3.77,6.71 12.71,24.05 19.93,51.44 19.93,80.54 0,95.37 -77.32,172.67 -172.73,172.67 -67.55,0 -126.1,-38.87 -154.41,-95.44 -1.33,-2.66 -3.83,-8.12 -3.83,-8.12 l -4.83,-12.33 1.28,13.03 c 0,0 0.33,6.84 0.33,10.31 0,96.78 -78.48,175.22 -175.22,175.22 -96.8,0 -175.23,-78.44 -175.23,-175.22 0,-3.51 0.34,-10.47 0.34,-10.47 l 1.27,-12.86 -4.38,11.32 c 0,0 -2.83,6.3 -4.39,9.36 -28.36,56.46 -86.81,95.2 -154.35,95.2 -95.36,0 -172.67,-77.3 -172.67,-172.67 0,-30.15 7.77,-58.52 21.37,-83.19 l 0.99,-1.83 7.66,-12.24 -9.76,7.47 c 0,0 -2.11,1.46 -3.22,2.17 -27.48,18.63 -60.72,29.48 -96.47,29.48 -95.35,0 -172.67,-77.31 -172.67,-172.67 0,-58.69 29.25,-110.5 73.93,-141.69 2.89,-2 8.77,-5.72 8.77,-5.72 l 13.65,-7.5 -14.15,2.22 c 0,0 -6.66,0.69 -10.04,0.86 -3.28,0.2 -6.55,0.29 -9.83,0.29 -95.41,0 -172.73,-77.3 -172.73,-172.67 0,-95.39 77.32,-172.7 172.73,-172.7 l 723.76,0 1.45,-2.93 c 0,0 1.22,-2.43 1.89,-3.63 41.96,-79.65 125.54,-133.96 221.79,-133.96 l 371.59,0 c 138.43,0 250.6,112.17 250.6,250.55 0,111.44 -72.76,205.91 -173.34,238.46 -3.16,1.01 -9.6,2.87 -9.6,2.87 l -5.11,1.36" />
            <path
               inkscape:connector-curvature="0"
               id="path34"
               style="fill:#e7352e;fill-opacity:1;fill-rule:nonzero;stroke:none"
               d="m 1983.08,5995.18 c 0,0 1.17,-2.18 1.72,-3.28 40.57,-77.05 119.83,-124.91 206.81,-124.91 l 371.59,0 c 128.83,0 233.67,104.8 233.67,233.61 0,101.71 -64.99,191.05 -161.62,222.34 -3,0.97 -9.11,2.73 -9.11,2.73 l -1.27,0.34 c -6.89,1.84 -12.21,7.68 -13.49,14.83 -1.17,7.19 1.89,14.41 7.83,18.51 l 1.55,1.05 c 1.78,1.31 6.05,4.5 8.05,6.11 36.69,29.76 57.72,73.85 57.72,120.97 0,85.88 -69.88,155.75 -155.74,155.75 -30.53,0 -60.11,-8.84 -85.48,-25.53 -1.44,-0.94 -4.05,-2.76 -4.94,-3.37 l -2.05,-1.57 c -3.16,-2.43 -7.16,-3.8 -11.21,-3.8 -4.61,0 -9.05,1.72 -12.44,4.83 -6.6,6.08 -7.93,15.96 -3.1,23.53 l 1.55,2.45 c 0.55,1.02 2.39,4.16 3.33,5.91 11.71,22.2 17.93,47.33 17.93,72.61 0,85.87 -69.88,155.77 -155.8,155.77 -59.28,0 -112.67,-33.03 -139.26,-86.13 -1.05,-2.05 -2.77,-5.87 -3.38,-7.1 l -1.06,-2.78 c -2.77,-7.05 -9.43,-11.61 -17.04,-11.61 l -1.99,0 -2.22,0.48 c -8.88,2.15 -14.88,10.57 -13.99,19.61 l 0.27,2.76 c 0.12,2.1 0.28,6.77 0.28,9.12 0,87.29 -71.04,158.29 -158.29,158.29 -87.31,0 -158.3,-71 -158.3,-158.29 0,-2.38 0.22,-7.14 0.28,-9.24 l 0.33,-3.27 c 0.89,-8.95 -5.05,-17.3 -13.82,-19.45 l -1.94,-0.47 -2.33,-0.04 c -7.49,0 -14.27,4.66 -16.99,11.64 l -0.89,2.28 c -0.83,1.92 -2.83,6.23 -3.88,8.32 -26.64,52.96 -79.92,85.88 -139.2,85.88 -85.81,0 -155.69,-69.9 -155.69,-155.77 0,-26.23 6.61,-52.18 19.2,-75.03 l 0.78,-1.36 2.33,-3.73 c 4.78,-7.67 3.39,-17.65 -3.27,-23.72 -3.5,-3.12 -7.94,-4.85 -12.6,-4.85 -4.05,0 -8.1,1.36 -11.32,3.81 l -1.84,1.4 -2.66,1.85 c -25.75,17.39 -55.84,26.57 -87.03,26.57 -85.92,0 -155.8,-69.87 -155.8,-155.75 0,-50.87 24.98,-98.66 66.78,-127.83 1.94,-1.32 5.88,-3.83 7.71,-4.99 l 2.72,-1.5 c 8.1,-4.45 11.82,-14.06 8.77,-22.84 -2.61,-7.66 -9.83,-12.86 -17.99,-12.86 l -1.33,0 -3.49,0.55 c -1.5,0.14 -6.28,0.6 -8.83,0.74 -2.94,0.18 -5.94,0.26 -8.88,0.26 -85.86,0 -155.8,-69.88 -155.8,-155.74 0,-85.89 69.94,-155.77 155.8,-155.77 l 722.1,0 c 3.66,0 7.27,-1.02 10.38,-2.96 3.05,-1.93 5.6,-4.69 7.22,-7.98 z m 580.12,-162.06 -371.59,0 c -98.63,0 -188.6,53.77 -235.45,140.52 l -713.44,0 c -104.57,0 -189.66,85.06 -189.66,189.63 0,97.14 73.49,177.47 167.74,188.33 -36.36,35.44 -57.39,84.36 -57.39,135.88 0,104.57 85.08,189.62 189.65,189.62 24.42,0 48.29,-4.66 70.6,-13.59 -5.33,17.69 -8.1,36.17 -8.1,54.78 0,104.57 85.08,189.63 189.6,189.63 58.83,0 112.84,-26.65 148.36,-71.45 17.7,87.78 95.47,154.09 188.38,154.09 92.91,0 170.67,-66.31 188.38,-154.09 35.52,44.8 89.52,71.45 148.3,71.45 104.57,0 189.66,-85.06 189.66,-189.63 0,-18.58 -2.72,-37.09 -8.05,-54.78 22.26,8.93 46.18,13.59 70.6,13.59 104.51,0 189.54,-85.05 189.54,-189.62 0,-52.56 -21.42,-102.02 -59.33,-137.79 102.18,-39.98 169.73,-138.11 169.73,-249.09 0,-147.5 -120,-267.48 -267.53,-267.48" />
            <path
               inkscape:connector-curvature="0"
               id="path36"
               style="fill:#e7352e;fill-opacity:1;fill-rule:nonzero;stroke:none"
               d="m 2191.61,5833.12 c -147.53,0 -267.47,119.98 -267.47,267.48 0,9.37 7.6,16.95 16.92,16.95 9.33,0 16.93,-7.58 16.93,-16.95 0,-128.81 104.79,-233.61 233.62,-233.61 9.38,0 16.93,-7.59 16.93,-16.94 0,-9.35 -7.55,-16.93 -16.93,-16.93" />
            <path
               inkscape:connector-curvature="0"
               id="path38"
               style="fill:#e7352e;fill-opacity:1;fill-rule:nonzero;stroke:none"
               d="m 1415.39,6146.34 c -9.38,0 -16.93,7.56 -16.93,16.93 0,85.86 -69.87,155.74 -155.74,155.74 -9.38,0 -16.98,7.56 -16.98,16.93 0,9.34 7.6,16.93 16.98,16.93 104.51,0 189.6,-85.06 189.6,-189.6 0,-9.37 -7.55,-16.93 -16.93,-16.93" />
            <path
               inkscape:connector-curvature="0"
               id="path40"
               style="fill:#e7352e;fill-opacity:1;fill-rule:nonzero;stroke:none"
               d="m 2528.51,5833.12 c -104.57,0 -189.6,85.06 -189.6,189.61 0,9.34 7.61,16.93 16.87,16.93 9.39,0 16.99,-7.59 16.99,-16.93 0,-85.87 69.88,-155.74 155.74,-155.74 9.33,0 16.93,-7.59 16.93,-16.94 0,-9.35 -7.6,-16.93 -16.93,-16.93" />
            <path
               inkscape:connector-curvature="0"
               id="path42"
               style="fill:#e7352e;fill-opacity:1;fill-rule:nonzero;stroke:none"
               d="m 2813.8,6083.69 c -9.38,0 -16.93,7.56 -16.93,16.91 0,128.84 -104.84,233.65 -233.67,233.65 -9.32,0 -16.87,7.57 -16.87,16.92 0,9.36 7.55,16.95 16.87,16.95 147.53,0 267.53,-120 267.53,-267.52 0,-9.35 -7.6,-16.91 -16.93,-16.91" />
            <path
               inkscape:connector-curvature="0"
               id="path44"
               style="fill:#e7352e;fill-opacity:1;fill-rule:nonzero;stroke:none"
               d="m 2066.34,6259.7 -544.27,0 c -77.26,0 -140.09,62.84 -140.09,140.05 0,77.22 62.83,140.05 140.09,140.05 14.82,0 29.31,-2.26 43.24,-6.78 -2.39,10.22 -3.56,20.73 -3.56,31.32 0,77.23 62.84,140.06 140.09,140.06 39.97,0 77.1,-16.79 103.19,-45.39 16.54,60.07 71.65,104.32 136.87,104.32 65.21,0 120.33,-44.25 136.81,-104.29 26.15,28.6 63.22,45.36 103.29,45.36 77.21,0 140.04,-62.83 140.04,-140.06 0,-21.03 -4.55,-41.26 -13.54,-60.1 -1.33,-2.76 -4.17,-8.09 -4.17,-8.09 l -29.8,16.07 c 0,0.05 2.33,4.35 3.44,6.57 6.77,14.27 10.21,29.62 10.21,45.55 0,58.54 -47.67,106.19 -106.18,106.19 -40.29,0 -76.59,-22.33 -94.79,-58.3 -0.67,-1.34 -1.78,-3.78 -2.28,-4.76 l 0,-0.09 c -3.27,-8.37 -12.43,-13.14 -21.2,-11.05 -8.88,2.14 -14.88,10.52 -13.99,19.53 0.06,1.07 0.17,3.98 0.17,5.6 0,59.56 -48.46,108.01 -108.01,108.01 -59.56,0 -108.01,-48.45 -108.01,-108.01 0,-1.45 0.11,-4.02 0.11,-5.06 l 0.11,-1.14 c 0.83,-8.95 -5.11,-17.32 -13.82,-19.39 -8.83,-2.08 -17.87,2.67 -21.2,10.98 l -0.22,0.54 c -0.45,1.06 -1.73,3.82 -2.5,5.33 -18.32,35.66 -54.51,57.81 -94.53,57.81 -58.61,0 -106.23,-47.65 -106.23,-106.19 0,-11.4 1.83,-22.58 5.33,-33.29 1.11,-3.3 4.05,-10.1 5.88,-14.16 l 1.28,-2.17 c 4.72,-7.93 3.16,-18.25 -3.66,-24.49 -6.78,-6.24 -17.21,-6.86 -24.76,-1.48 l -1.88,1.36 c -3.17,1.85 -8.5,4.82 -11.05,6.01 -14.1,6.54 -29.08,9.85 -44.68,9.85 -58.61,0 -106.18,-47.66 -106.18,-106.22 0,-58.55 47.57,-106.18 106.18,-106.18 l 544.27,0 c 9.32,0 16.92,-7.59 16.92,-16.94 0,-9.35 -7.6,-16.93 -16.92,-16.93" />
            <path
               inkscape:connector-curvature="0"
               id="path46"
               style="fill:#e73933;fill-opacity:1;fill-rule:nonzero;stroke:none"
               d="m 2189.44,6136.57 c -9.32,0 -16.93,7.59 -16.93,16.93 0,58.56 -47.62,106.2 -106.17,106.2 -9.38,0 -16.93,7.58 -16.93,16.93 0,9.35 7.55,16.94 16.93,16.94 77.2,0 140.03,-62.84 140.03,-140.07 0,-9.34 -7.55,-16.93 -16.93,-16.93" />
            <path
               inkscape:connector-curvature="0"
               id="path48"
               style="fill:#e7352e;fill-opacity:1;fill-rule:nonzero;stroke:none"
               d="m 2489.94,6211.11 c -77.26,0 -140.09,62.83 -140.09,140.06 0,77.22 62.83,140.08 140.09,140.08 9.32,0 16.87,-7.59 16.87,-16.96 0,-9.33 -7.55,-16.92 -16.87,-16.92 -58.61,0 -106.23,-47.64 -106.23,-106.2 0,-58.55 47.62,-106.17 106.23,-106.17 9.32,0 16.87,-7.61 16.87,-16.96 0,-9.32 -7.55,-16.93 -16.87,-16.93" />
            <path
               inkscape:connector-curvature="0"
               id="path50"
               style="fill:#e7352e;fill-opacity:1;fill-rule:nonzero;stroke:none"
               d="m 1522.07,6259.7 c -9.38,0 -16.98,7.58 -16.98,16.93 0,9.35 7.6,16.94 16.98,16.94 58.5,0 106.18,47.63 106.18,106.18 0,9.37 7.6,16.96 16.93,16.96 9.32,0 16.93,-7.59 16.93,-16.96 0,-77.21 -62.84,-140.05 -140.04,-140.05" />
            <path
               inkscape:connector-curvature="0"
               id="path52"
               style="fill:#e7352e;fill-opacity:1;fill-rule:nonzero;stroke:none"
               d="m 1839.61,6259.7 c -9.33,0 -16.93,7.58 -16.93,16.93 0,9.35 7.6,16.94 16.93,16.94 58.55,0 106.17,47.63 106.17,106.18 0,9.37 7.61,16.96 16.93,16.96 9.38,0 16.93,-7.59 16.93,-16.96 0,-77.21 -62.83,-140.05 -140.03,-140.05" />
            <path
               inkscape:connector-curvature="0"
               id="path54"
               style="fill:#e7352e;fill-opacity:1;fill-rule:nonzero;stroke:none"
               d="m 2613.05,6087.99 c -9.39,0 -16.93,7.59 -16.93,16.94 0,58.55 -47.68,106.18 -106.18,106.18 -9.38,0 -16.93,7.61 -16.93,16.93 0,9.35 7.55,16.96 16.93,16.96 77.2,0 140.03,-62.83 140.03,-140.07 0,-9.35 -7.6,-16.94 -16.92,-16.94" />
            <path
               inkscape:connector-curvature="0"
               id="path56"
               style="fill:#fbc039;fill-opacity:1;fill-rule:nonzero;stroke:none"
               d="m 1885.06,7406.38 -32.3,295.21 -47.9,-439.52 114.17,72.1 32.3,-295.31 47.9,439.5 -114.17,-71.98" />
            <path
               inkscape:connector-curvature="0"
               id="path58"
               style="fill:#fbc039;fill-opacity:1;fill-rule:nonzero;stroke:none"
               d="m 1325.98,7107.7 -166.74,133.89 199.37,-248.19 21.48,94.89 166.79,-133.99 -199.42,248.24 -21.48,-94.84" />
            <path
               inkscape:connector-curvature="0"
               id="path60"
               style="fill:#fbc039;fill-opacity:1;fill-rule:nonzero;stroke:none"
               d="m 2488.94,7107.7 166.73,133.89 -199.37,-248.19 -21.42,94.89 -166.85,-133.99 199.43,248.24 21.48,-94.84" />
          </g>
        </g>
      </g>
    </g>
  </g>
</svg>
